<?xml version="1.0" encoding="utf-8"?>
<!-- Generator: Adobe Illustrator 26.4.1, SVG Export Plug-In . SVG Version: 6.00 Build 0)  -->
<svg version="1.1" id="Layer_1" xmlns="http://www.w3.org/2000/svg" xmlns:xlink="http://www.w3.org/1999/xlink" x="0px" y="0px"
	 viewBox="0 0 1080 1080" style="enable-background:new 0 0 1080 1080;" xml:space="preserve">
<style type="text/css">
	.st0{fill:#FFFFFF;}
</style>
<g>
	<g>
		<g>
			<path class="st0" d="M209,750.1c-2.6,1.7-5.2,2.8-8,3.4c-2.8,0.6-6.1,0.9-10,0.9c-3.5,0-6.8-0.2-10.1-0.6
				c-3.3-0.4-6.5-0.9-9.8-1.5c-3.2-0.6-6.4-1-9.5-1.5c-3.1-0.4-6.1-0.6-9.2-0.6c-2.1,0-4.3,0.1-6.6,0.3c-2.3,0.2-3.9,0.7-5,1.5
				c0.6,0.7,1,1.6,1.4,2.8c0.3,1.1,0.5,2.2,0.5,3.3c0,1.4-0.4,2.7-1.2,4c-0.8,1.3-2.1,2-3.9,2c-1.5,0-2.7-0.5-3.4-1.5
				c-0.8-1-1.1-2.2-1.1-3.7c0-1.4,0.4-2.8,1.1-4.3c0.8-1.5,2.2-2.8,4.4-3.8c1.6-0.8,3.3-1.3,5.1-1.7c1.8-0.3,3.6-0.6,5.2-0.6
				c1.6-0.1,2.8-0.1,3.6-0.1c4.8,0,9.4,0.3,13.6,1c4.2,0.7,8.4,1.3,12.5,2c4.2,0.7,8.6,1,13.3,1c3.7,0,6.7-0.3,9.2-0.8
				c2.5-0.6,5-1.6,7.5-3.1L209,750.1z M166,750.5c1.2,0.1,2.3,0.3,3.3,0.4c0.9,0.1,1.9,0.3,2.8,0.4c0.9,0.1,2,0.3,3.3,0.4
				l-15.6,58.5c-0.7,2.6-1,4.7-0.8,6.1c0.1,1.4,0.9,2.4,2.2,3c1.4,0.6,3.5,0.9,6.4,0.9l-0.4,2.1c-1.8-0.1-4.1-0.2-6.9-0.3
				c-2.8,0-5.6-0.1-8.6-0.1c-3,0-5.8,0-8.6,0.1c-2.7,0-4.9,0.1-6.6,0.3l0.4-2.1c2.9-0.1,5.2-0.5,6.8-1.1c1.6-0.6,2.9-1.6,3.8-3
				c0.9-1.4,1.8-3.4,2.5-5.9L166,750.5z M208,741.2c1.7-0.1,3.4-0.2,5-0.4c1.6-0.2,3.1-0.6,4.4-1l-23.2,82.6c-1.2,0-2.3,0-3.2,0
				c-0.9,0-1.7,0-2.6,0c-0.9,0-2,0-3.2,0L208,741.2z M197.2,806.9c2.6-7.3,5.1-13.4,7.5-18.5c2.4-5.1,4.8-9.1,7.2-12.2
				c2.4-3.1,4.8-5.3,7.3-6.7c2.5-1.4,5-2.1,7.7-2.1c3.1,0,5.3,0.7,6.5,2.2c1.2,1.5,1.8,3.4,1.8,5.8c-0.1,2.4-0.6,5-1.5,7.7
				l-10.1,30.3c-0.3,0.9-0.5,1.9-0.7,2.9c-0.2,1-0.2,1.9,0.2,2.5c0.3,0.7,1.1,1,2.2,1c1.3,0,2.6-0.7,3.9-2.2
				c1.3-1.5,2.6-4.3,4.1-8.4l1.4-3.8h2l-2.6,7.6c-1,2.9-2.2,5.1-3.6,6.6c-1.5,1.5-2.9,2.6-4.5,3.2c-1.5,0.6-3,0.9-4.5,0.9
				c-2.8,0-4.7-0.6-5.8-1.9c-1.1-1.2-1.6-3-1.4-5.2c0.2-2.2,0.7-4.7,1.6-7.5l9.9-29.7c0.4-1.2,0.7-2.5,1-3.9
				c0.2-1.3,0.2-2.5-0.3-3.4s-1.4-1.4-3-1.4c-2.2,0-4.6,1.2-7.1,3.6c-2.5,2.4-5,5.8-7.6,10.2c-2.6,4.4-5,9.6-7.4,15.6
				s-4.6,12.7-6.6,19.9L197.2,806.9z"/>
			<path class="st0" d="M250.6,798.7c3.9-1.3,7.4-2.6,10.5-3.9c3.1-1.3,5.7-2.6,7.5-4.1c2.5-2,4.5-4.4,5.9-7.3
				c1.5-2.8,2.2-6,2.2-9.3c0-2-0.1-3.3-0.4-3.8c-0.3-0.6-0.7-0.8-1.2-0.8c-1.7,0-3.6,0.8-5.6,2.3c-2,1.5-4,3.6-5.9,6.3
				c-1.9,2.7-3.7,5.7-5.3,9.1c-1.6,3.4-2.9,7-3.9,10.9c-1,3.8-1.5,7.7-1.5,11.5c0,3.5,0.7,6.1,2,7.6c1.3,1.6,3,2.3,5.2,2.3
				c2.5,0,5.1-0.8,7.9-2.3c2.8-1.5,5.5-4.2,8.1-8.1l1.7,0.8c-1.3,2.3-3,4.5-5.2,6.6c-2.1,2.1-4.6,3.9-7.2,5.2c-2.7,1.4-5.5,2-8.5,2
				c-2.8,0-5.2-0.6-7.3-1.7c-2.1-1.1-3.7-2.8-4.8-4.9c-1.1-2.2-1.7-4.9-1.7-8c0-3,0.6-6.3,1.7-10c1.1-3.7,2.7-7.4,4.7-11.1
				c2-3.7,4.5-7.1,7.3-10.2c2.8-3.1,6-5.6,9.5-7.5c3.5-1.9,7.2-2.8,11.1-2.8c2.1,0,4,0.6,5.5,1.7c1.5,1.1,2.2,2.9,2.2,5.1
				c0,2.8-0.8,5.3-2.4,7.7c-1.6,2.4-3.8,4.6-6.4,6.5c-2.7,2-5.6,3.7-8.7,5.2c-3.1,1.5-6.2,2.8-9.1,3.9c-3,1.1-5.6,2-7.9,2.7
				L250.6,798.7z"/>
			<path class="st0" d="M325.3,822.3h-9l12.5-44.6c0.7-2.4,0.9-4,0.7-5c-0.2-1-1-1.5-2.1-1.5c-1.5,0-2.9,0.8-4.2,2.4
				c-1.2,1.6-2.6,4.3-3.9,8.2l-1.4,3.8h-2l2.6-7.6c1-2.9,2.3-5.1,3.7-6.6c1.4-1.5,2.9-2.6,4.5-3.2c1.6-0.6,3-0.9,4.4-0.9
				c2.1,0,3.5,0.5,4.4,1.4c0.9,0.9,1.4,2.1,1.5,3.5c0.1,1.5,0,3-0.3,4.7c-0.3,1.7-0.7,3.3-1.1,4.9L325.3,822.3z M352,770
				c-1.6,0-3.2,0.7-4.9,2.2c-1.7,1.5-3.4,3.6-5.2,6.4c-1.8,2.8-3.5,6.2-5.3,10.1c-1.8,3.9-3.5,8.3-5.2,13c-1.7,4.8-3.3,9.9-4.9,15.5
				L329,804c2.3-6.8,4.4-12.5,6.4-17.1c2-4.6,3.9-8.4,5.9-11.3c1.9-2.9,3.9-4.9,6-6.2c2-1.3,4.2-1.9,6.5-1.9c1.9,0,3.4,0.6,4.5,1.7
				c1.1,1.1,1.6,2.5,1.6,4.3c0,1.4-0.3,2.6-1,3.8c-0.7,1.1-1.6,2-2.6,2.7c-1.1,0.7-2.3,1-3.6,1c-1.2,0-2.2-0.3-3-1
				c-0.8-0.7-1.2-1.6-1.2-2.8c0-1.1,0.2-2.1,0.6-3c0.4-0.9,1-1.6,1.7-2.2c0.7-0.6,1.5-1.1,2.4-1.5c-0.1-0.1-0.3-0.2-0.5-0.3
				C352.5,770.1,352.3,770,352,770z"/>
			<path class="st0" d="M359.1,807.4c0-3,0.4-6.4,1.2-10c0.8-3.6,2.1-7.2,3.7-10.7c1.7-3.5,3.7-6.8,6.1-9.7c2.4-2.9,5.2-5.2,8.4-7
				c3.2-1.8,6.7-2.6,10.6-2.6c4.3,0,7.7,1.3,10.3,4c2.6,2.7,3.9,6.8,3.9,12.3c0,3-0.4,6.4-1.2,10c-0.8,3.6-2.1,7.2-3.7,10.7
				s-3.7,6.8-6.1,9.7c-2.4,2.9-5.2,5.2-8.4,7c-3.2,1.8-6.7,2.6-10.6,2.6c-4.3,0-7.7-1.4-10.3-4.1S359.1,812.9,359.1,807.4z
				 M388.5,769.5c-2.2,0-4.3,0.9-6.4,2.6c-2,1.8-3.9,4.2-5.6,7.2c-1.7,3-3.2,6.4-4.5,10.1c-1.3,3.7-2.3,7.6-3,11.6
				c-0.7,4-1,7.9-1,11.5c0,3.1,0.5,5.4,1.5,6.9c1,1.5,2.5,2.2,4.4,2.2c2.2,0,4.3-0.9,6.4-2.6c2-1.8,3.9-4.2,5.7-7.2
				c1.7-3,3.2-6.4,4.5-10.1c1.2-3.7,2.2-7.6,2.9-11.6c0.7-4,1-7.8,1-11.6c0-3.2-0.5-5.5-1.5-6.9C392,770.2,390.5,769.5,388.5,769.5z
				"/>
			<path class="st0" d="M414.3,836.9c3-1.6,6.1-3.8,9.5-6.5c3.4-2.7,6.8-6.4,10.4-11.1c4.1-5.2,7.8-11,11.2-17.5
				c3.4-6.5,5.7-13,7-19.6c-1.1-0.6-2.3-1.4-3.6-2.3c-1.3-0.9-2.3-2-3.2-3.3c-0.8-1.3-1.2-2.7-1.1-4.3c0.1-1.6,0.7-2.8,1.7-3.6
				c1-0.8,2.2-1.2,3.6-1.2c1.9,0,3.2,0.7,4.1,2.1c0.9,1.4,1.3,3.5,1.3,6.3c0,3.5-0.6,7.3-1.8,11.4c-1.2,4-2.8,8.2-4.7,12.3
				c-2,4.2-4.2,8.2-6.6,12c-2.4,3.8-4.9,7.3-7.4,10.4c-1.1,1.4-2.6,3.1-4.6,5.2c-1.9,2.1-4.2,4.2-6.9,6.4c-2.7,2.2-5.7,4.1-9,5.7
				c-2.1,1-3.9,1.6-5.3,2c-1.5,0.4-2.7,0.6-3.7,0.6c-1.4,0-2.6-0.4-3.6-1.1s-1.6-1.8-1.6-3.2c0-1.5,0.6-2.7,1.7-3.5
				c1.1-0.8,2.4-1.2,3.9-1.2c1.6,0,3.1,0.4,4.5,1.2C411.6,835,413,835.9,414.3,836.9z M437,818.1l-7,7.6l-7.9-47.8
				c-0.3-2.1-0.8-3.6-1.2-4.5c-0.5-0.8-1.2-1.2-2.1-1.2c-0.8,0-1.6,0.6-2.6,1.8c-1,1.2-2.1,3.8-3.5,7.7l-1.4,3.8h-2l2.6-7.6
				c1.5-4.2,3.3-7,5.4-8.5c2.1-1.4,4.3-2.1,6.5-2.1c2.1,0,3.8,0.7,5,2c1.2,1.3,2,3.9,2.5,7.5L437,818.1z"/>
			<path class="st0" d="M471.3,820.4c1.7,0,3.6-1.1,5.7-3.2c2.1-2.1,4.3-5,6.5-8.6c2.2-3.6,4.3-7.7,6.1-12.3
				c1.9-4.6,3.4-9.3,4.5-14.2l-1.8,11.2c-2.6,7.3-5.3,13.2-7.9,17.7c-2.6,4.5-5.3,7.7-8,9.7s-5.4,3-8.2,3c-3.3,0-5.7-1.2-7.3-3.5
				c-1.6-2.4-2.4-5.4-2.4-9c0-3.3,0.6-6.9,1.7-10.9c1.1-3.9,2.6-7.8,4.6-11.7c2-3.9,4.2-7.4,6.8-10.6c2.6-3.2,5.3-5.7,8.4-7.7
				c3-1.9,6.1-2.9,9.2-2.9c2.4,0,4.3,1.2,5.6,3.6s1.5,5.7,0.8,10l-1.1,0.6c0.5-3.7,0.2-6.6-0.7-8.9c-1-2.2-2.6-3.4-4.8-3.4
				c-1.8,0-3.7,0.9-5.7,2.6c-2,1.8-3.9,4.2-5.7,7.2c-1.8,3-3.5,6.4-5,10.1c-1.5,3.7-2.7,7.6-3.5,11.6c-0.9,4-1.3,7.8-1.3,11.5
				c0,3,0.3,5.1,1,6.2C469.3,819.8,470.2,820.4,471.3,820.4z M497.5,768.9c1.7-0.1,3.3-0.2,5-0.4c1.7-0.2,3.2-0.6,4.6-1l-13,45.9
				c-0.1,0.6-0.3,1.4-0.6,2.4c-0.2,1-0.2,1.9,0,2.8c0.2,0.8,1,1.2,2.1,1.2c1.4,0,2.7-0.8,4.1-2.3c1.3-1.5,2.6-4.3,3.9-8.3l1.2-3.8h2
				l-2.6,7.6c-1,2.8-2.1,4.9-3.5,6.5c-1.3,1.6-2.8,2.7-4.2,3.3c-1.5,0.7-2.9,1-4.3,1c-2.7,0-4.6-0.9-5.7-2.7
				c-0.9-1.6-1.1-3.4-0.7-5.6c0.4-2.1,0.9-4.2,1.5-6.4L497.5,768.9z"/>
			<path class="st0" d="M522.5,813.5c-0.6,2-0.7,3.6-0.5,4.7c0.2,1.1,1,1.7,2.3,1.7c1.4,0,2.7-0.8,3.9-2.3c1.2-1.6,2.5-4.3,3.9-8.3
				l1.3-3.8h2l-2.6,7.6c-0.9,2.6-2,4.7-3.3,6.3c-1.3,1.6-2.7,2.7-4.2,3.4c-1.5,0.7-3.2,1-5,1c-2.3,0-4-0.4-5-1.3
				c-1.1-0.9-1.7-2-2-3.5c-0.2-1.5-0.2-3,0.1-4.7c0.3-1.7,0.7-3.4,1.2-5l16.9-56.2c0.7-2.4,0.6-4.1-0.2-5.2
				c-0.8-1.1-2.9-1.7-6.3-1.7l0.7-2.2c3.8-0.1,7.2-0.5,10.1-1.2c2.9-0.7,5.7-1.7,8.4-3.1L522.5,813.5z"/>
			<path class="st0" d="M580.7,820.4c1.7,0,3.6-1.1,5.7-3.2c2.1-2.1,4.3-5,6.5-8.6c2.2-3.6,4.3-7.7,6.1-12.3
				c1.9-4.6,3.4-9.3,4.5-14.2l-1.8,11.2c-2.6,7.3-5.3,13.2-7.9,17.7c-2.6,4.5-5.3,7.7-8,9.7s-5.4,3-8.2,3c-3.3,0-5.7-1.2-7.3-3.5
				c-1.6-2.4-2.4-5.4-2.4-9c0-3.3,0.6-6.9,1.7-10.9c1.1-3.9,2.6-7.8,4.6-11.7c2-3.9,4.2-7.4,6.8-10.6c2.6-3.2,5.3-5.7,8.4-7.7
				c3-1.9,6.1-2.9,9.2-2.9c2.4,0,4.3,1.2,5.6,3.6c1.3,2.4,1.5,5.7,0.8,10l-1.1,0.6c0.5-3.7,0.2-6.6-0.7-8.9c-1-2.2-2.6-3.4-4.8-3.4
				c-1.8,0-3.7,0.9-5.7,2.6c-2,1.8-3.9,4.2-5.7,7.2c-1.8,3-3.5,6.4-5,10.1c-1.5,3.7-2.7,7.6-3.5,11.6c-0.9,4-1.3,7.8-1.3,11.5
				c0,3,0.3,5.1,1,6.2C578.7,819.8,579.5,820.4,580.7,820.4z M606.8,768.9c1.7-0.1,3.3-0.2,5-0.4c1.7-0.2,3.2-0.6,4.6-1l-13,45.9
				c-0.1,0.6-0.3,1.4-0.6,2.4c-0.2,1-0.2,1.9,0,2.8c0.2,0.8,1,1.2,2.1,1.2c1.4,0,2.7-0.8,4-2.3c1.3-1.5,2.6-4.3,3.9-8.3l1.2-3.8h2
				l-2.6,7.6c-1,2.8-2.1,4.9-3.5,6.5c-1.3,1.6-2.8,2.7-4.2,3.3s-2.9,1-4.3,1c-2.7,0-4.6-0.9-5.7-2.7c-0.9-1.6-1.1-3.4-0.7-5.6
				c0.4-2.1,0.9-4.2,1.5-6.4L606.8,768.9z"/>
			<path class="st0" d="M627.4,820.7c0.6,0.3,1.2,0.5,1.8,0.7c0.7,0.2,1.6,0.3,3,0.3c3,0,5.6-0.9,7.5-2.8c2-1.8,3-4.5,3-7.9
				c0-2.1-0.4-4.3-1.2-6.4c-0.8-2.1-2.2-4.6-4.2-7.3c-1.6-2.2-3.1-4.5-4.6-6.8c-1.5-2.3-2.2-5.1-2.2-8.3c0-3,0.7-5.6,2.2-7.7
				c1.5-2.2,3.4-3.9,5.9-5.1c2.5-1.2,5.1-1.9,8-1.9c2,0,4,0.2,5.9,0.7c1.9,0.5,3.5,1.4,4.8,2.6c1.3,1.3,1.9,3.2,1.9,5.7
				c0,0.6-0.2,1.4-0.5,2.2c-0.3,0.9-0.8,1.6-1.5,2.2c-0.7,0.6-1.6,0.9-2.8,0.9c-1.1,0-2.1-0.4-2.9-1.2c-0.8-0.8-1.2-1.9-1.2-3.2
				c0-1.2,0.3-2.4,0.8-3.6s1.2-2.3,2.1-3.4c-1.3-0.8-3-1.2-5.2-1.2c-2.6,0-4.7,0.9-6.4,2.6c-1.7,1.7-2.6,4.2-2.6,7.3
				c0,1.6,0.2,3,0.7,4.2c0.5,1.2,1.2,2.5,2.1,3.8c0.9,1.3,2.1,3,3.4,5c1.7,2.6,3.2,5.2,4.4,7.6c1.2,2.4,1.8,5,1.8,7.7
				c0,3.2-0.8,6-2.4,8.5c-1.6,2.5-3.8,4.4-6.5,5.8s-5.7,2.1-8.9,2.1c-2.4,0-4.6-0.3-6.8-1c-2.1-0.7-3.9-1.8-5.2-3.3
				c-1.4-1.5-2-3.5-2-6c0-1,0.3-2,0.9-3.1c0.6-1.1,1.6-1.6,3.2-1.6c1.7,0,2.8,0.7,3.5,2c0.7,1.3,1,2.9,1,4.5c0,1.1-0.1,2.1-0.3,3
				C627.7,819.2,627.5,820,627.4,820.7z"/>
			<path class="st0" d="M694.4,769.5c-2.6,0-5.2,1.1-7.8,3.2c-2.6,2.1-5,5.1-7.1,8.8c-2.1,3.7-3.9,8-5.1,12.8
				c-1.3,4.8-1.9,9.8-1.9,15.1c0,3.5,0.7,6.1,2,7.6c1.3,1.6,3.1,2.3,5.2,2.3c2.5,0,5.1-0.8,7.7-2.3c2.6-1.5,5.3-4.2,7.9-8.1l2.1,0.8
				c-1.3,2.3-3,4.5-5.2,6.6c-2.1,2.1-4.6,3.9-7.2,5.2c-2.7,1.4-5.5,2-8.5,2c-4.2,0-7.5-1.3-10-3.8c-2.5-2.6-3.7-6.4-3.7-11.4
				c0-3.2,0.5-6.6,1.4-10.3c0.9-3.7,2.3-7.4,4-11c1.8-3.6,3.9-6.9,6.5-9.9c2.6-2.9,5.5-5.3,8.7-7.1c3.3-1.8,6.8-2.7,10.7-2.7
				c3,0,5.7,0.8,7.9,2.3c2.2,1.6,3.3,3.7,3.3,6.5c0,1.3-0.3,2.6-0.9,3.9c-0.6,1.3-1.4,2.3-2.5,3.2c-1.1,0.8-2.4,1.2-3.9,1.2
				c-1.5,0-2.5-0.4-3.2-1.2c-0.7-0.8-1-1.7-1-2.9c0-2,0.8-3.7,2.4-5.1c1.6-1.4,3.4-2.3,5.4-2.6c-0.7-1-1.6-1.7-2.7-2.3
				C697.6,769.8,696.2,769.5,694.4,769.5z"/>
			<path class="st0" d="M714.4,798.7c3.9-1.3,7.4-2.6,10.5-3.9c3.1-1.3,5.7-2.6,7.5-4.1c2.5-2,4.5-4.4,5.9-7.3
				c1.5-2.8,2.2-6,2.2-9.3c0-2-0.1-3.3-0.4-3.8c-0.3-0.6-0.7-0.8-1.2-0.8c-1.7,0-3.6,0.8-5.6,2.3c-2,1.5-4,3.6-5.9,6.3
				c-1.9,2.7-3.7,5.7-5.3,9.1c-1.6,3.4-2.9,7-3.9,10.9c-1,3.8-1.5,7.7-1.5,11.5c0,3.5,0.7,6.1,2,7.6c1.3,1.6,3,2.3,5.2,2.3
				c2.5,0,5.1-0.8,7.9-2.3c2.8-1.5,5.5-4.2,8.1-8.1l1.7,0.8c-1.3,2.3-3,4.5-5.2,6.6c-2.1,2.1-4.6,3.9-7.2,5.2c-2.7,1.4-5.5,2-8.5,2
				c-2.8,0-5.2-0.6-7.3-1.7c-2.1-1.1-3.7-2.8-4.8-4.9c-1.1-2.2-1.7-4.9-1.7-8c0-3,0.6-6.3,1.7-10c1.1-3.7,2.7-7.4,4.7-11.1
				c2-3.7,4.5-7.1,7.3-10.2c2.8-3.1,6-5.6,9.5-7.5c3.5-1.9,7.2-2.8,11.1-2.8c2.1,0,4,0.6,5.5,1.7c1.5,1.1,2.2,2.9,2.2,5.1
				c0,2.8-0.8,5.3-2.4,7.7c-1.6,2.4-3.8,4.6-6.4,6.5c-2.7,2-5.6,3.7-8.7,5.2c-3.1,1.5-6.2,2.8-9.1,3.9c-3,1.1-5.6,2-7.9,2.7
				L714.4,798.7z"/>
			<path class="st0" d="M762.9,822.3h-9l12.5-44.6c0.3-0.8,0.5-1.7,0.7-2.8c0.2-1,0.1-1.9-0.2-2.6c-0.3-0.7-1-1.1-2.1-1.1
				c-1.5,0-2.9,0.7-4,2.2c-1.2,1.5-2.5,4.3-3.9,8.4l-1.4,3.8h-2l2.6-7.6c1.5-4.4,3.4-7.2,5.7-8.6c2.2-1.4,4.5-2.1,6.7-2.1
				c2.1,0,3.6,0.5,4.5,1.4c0.9,0.9,1.5,2.1,1.6,3.5c0.1,1.4,0,3-0.3,4.7c-0.3,1.7-0.7,3.4-1.1,5L762.9,822.3z M767.7,800.7
				c2.4-6.2,4.8-11.5,7.1-15.7c2.3-4.2,4.5-7.6,6.8-10.2c2.2-2.6,4.5-4.5,6.8-5.6c2.3-1.1,4.7-1.7,7.2-1.7c3.3,0,5.5,0.8,6.7,2.3
				c1.2,1.6,1.7,3.5,1.6,5.9c-0.1,2.4-0.6,4.9-1.5,7.4l-10.1,30.3c-0.6,1.9-0.9,3.4-0.8,4.6c0.1,1.2,0.9,1.8,2.4,1.8
				c1.3,0,2.6-0.7,3.9-2.2c1.3-1.5,2.6-4.3,4.1-8.4l1.4-3.8h2l-2.6,7.6c-1,2.9-2.2,5.1-3.6,6.6c-1.4,1.5-2.9,2.6-4.5,3.2
				c-1.6,0.6-3.1,0.9-4.5,0.9c-1.7,0-3-0.3-4.1-0.8c-1.1-0.6-1.9-1.3-2.4-2.2c-0.8-1.2-1-2.9-0.7-4.9c0.3-2,0.8-4.2,1.7-6.6
				l9.9-29.7c0.3-1,0.6-2.1,0.9-3.5c0.2-1.4,0.2-2.6-0.2-3.6c-0.3-1.1-1.4-1.6-3-1.6c-1.7,0-3.4,0.7-5.3,2.2
				c-1.9,1.5-3.8,3.5-5.8,6.2c-2,2.7-4,5.9-5.9,9.6c-1.9,3.7-3.8,7.8-5.6,12.3s-3.4,9.2-4.8,14.3L767.7,800.7z"/>
			<path class="st0" d="M816.6,820.7c0.6,0.3,1.2,0.5,1.8,0.7c0.7,0.2,1.6,0.3,3,0.3c3,0,5.6-0.9,7.5-2.8c2-1.8,3-4.5,3-7.9
				c0-2.1-0.4-4.3-1.2-6.4c-0.8-2.1-2.2-4.6-4.2-7.3c-1.6-2.2-3.1-4.5-4.6-6.8c-1.5-2.3-2.2-5.1-2.2-8.3c0-3,0.7-5.6,2.2-7.7
				c1.5-2.2,3.4-3.9,5.9-5.1c2.5-1.2,5.1-1.9,8-1.9c2,0,4,0.2,5.9,0.7c1.9,0.5,3.5,1.4,4.8,2.6c1.3,1.3,1.9,3.2,1.9,5.7
				c0,0.6-0.2,1.4-0.5,2.2c-0.3,0.9-0.8,1.6-1.5,2.2c-0.7,0.6-1.6,0.9-2.8,0.9c-1.1,0-2.1-0.4-2.9-1.2c-0.8-0.8-1.2-1.9-1.2-3.2
				c0-1.2,0.3-2.4,0.8-3.6s1.2-2.3,2.1-3.4c-1.3-0.8-3-1.2-5.2-1.2c-2.6,0-4.7,0.9-6.4,2.6c-1.7,1.7-2.6,4.2-2.6,7.3
				c0,1.6,0.2,3,0.7,4.2c0.5,1.2,1.2,2.5,2.1,3.8c0.9,1.3,2.1,3,3.4,5c1.7,2.6,3.2,5.2,4.4,7.6c1.2,2.4,1.8,5,1.8,7.7
				c0,3.2-0.8,6-2.4,8.5c-1.6,2.5-3.8,4.4-6.5,5.8s-5.7,2.1-8.9,2.1c-2.4,0-4.6-0.3-6.8-1c-2.1-0.7-3.9-1.8-5.2-3.3
				c-1.4-1.5-2-3.5-2-6c0-1,0.3-2,0.9-3.1c0.6-1.1,1.6-1.6,3.2-1.6c1.7,0,2.8,0.7,3.5,2c0.7,1.3,1,2.9,1,4.5c0,1.1-0.1,2.1-0.3,3
				C816.9,819.2,816.7,820,816.6,820.7z"/>
			<path class="st0" d="M866.5,777.7c1.5-4.3,1-6.4-1.5-6.4c-1.6,0-3,0.9-4.3,2.6c-1.2,1.7-2.6,4.4-3.9,8l-1.5,3.8h-2l2.7-7.6
				c1-2.9,2.3-5.1,3.7-6.6c1.5-1.5,3-2.6,4.6-3.2c1.6-0.6,3.1-0.9,4.5-0.9c2.2,0,3.8,0.5,4.9,1.4c1,0.9,1.7,2.1,1.9,3.5
				c0.2,1.5,0.1,3-0.2,4.7c-0.3,1.7-0.8,3.3-1.3,4.9L863,813.5c-0.7,2-0.9,3.6-0.7,4.7c0.2,1.1,1,1.7,2.3,1.7c1.4,0,2.7-0.8,3.9-2.3
				c1.2-1.5,2.6-4.3,4.2-8.3l1.5-3.8h2l-2.7,7.6c-1,2.7-2.1,4.8-3.5,6.4c-1.4,1.6-2.9,2.7-4.5,3.3c-1.6,0.7-3.2,1-4.8,1
				c-3,0-5-0.7-6-2.1c-1-1.4-1.4-3.2-1.1-5.4c0.3-2.2,0.9-4.6,1.8-7.1L866.5,777.7z M869.7,750c0.3-1.8,1.3-3.4,2.8-4.7
				c1.5-1.3,3.1-2,4.8-2c1.8,0,3.2,0.7,4.2,2c1,1.3,1.3,2.9,1,4.7c-0.3,1.8-1.3,3.4-2.8,4.7c-1.5,1.3-3.1,2-4.9,2
				c-1.7,0-3.1-0.7-4.1-2C869.7,753.4,869.3,751.8,869.7,750z"/>
			<path class="st0" d="M883.6,807.4c0-3,0.4-6.4,1.2-10c0.8-3.6,2.1-7.2,3.7-10.7c1.7-3.5,3.7-6.8,6.1-9.7c2.4-2.9,5.2-5.2,8.4-7
				c3.2-1.8,6.7-2.6,10.6-2.6c4.3,0,7.7,1.3,10.3,4c2.6,2.7,3.9,6.8,3.9,12.3c0,3-0.4,6.4-1.2,10c-0.8,3.6-2.1,7.2-3.7,10.7
				c-1.7,3.5-3.7,6.8-6.1,9.7c-2.4,2.9-5.2,5.2-8.4,7s-6.7,2.6-10.6,2.6c-4.3,0-7.7-1.4-10.3-4.1C884.9,817,883.6,812.9,883.6,807.4
				z M913,769.5c-2.2,0-4.3,0.9-6.4,2.6c-2,1.8-3.9,4.2-5.6,7.2c-1.7,3-3.2,6.4-4.5,10.1c-1.3,3.7-2.3,7.6-3,11.6
				c-0.7,4-1,7.9-1,11.5c0,3.1,0.5,5.4,1.5,6.9c1,1.5,2.5,2.2,4.4,2.2c2.2,0,4.3-0.9,6.4-2.6c2-1.8,3.9-4.2,5.7-7.2
				c1.7-3,3.2-6.4,4.5-10.1c1.2-3.7,2.2-7.6,2.9-11.6c0.7-4,1-7.8,1-11.6c0-3.2-0.5-5.5-1.5-6.9C916.5,770.2,915,769.5,913,769.5z"
				/>
			<path class="st0" d="M944.8,822.3h-9l12.5-44.6c0.3-0.8,0.5-1.7,0.7-2.8c0.2-1,0.1-1.9-0.2-2.6c-0.3-0.7-1-1.1-2.1-1.1
				c-1.5,0-2.9,0.7-4,2.2c-1.2,1.5-2.5,4.3-3.9,8.4l-1.4,3.8h-2l2.6-7.6c1.5-4.4,3.4-7.2,5.7-8.6c2.2-1.4,4.5-2.1,6.7-2.1
				c2.1,0,3.6,0.5,4.5,1.4c0.9,0.9,1.5,2.1,1.6,3.5c0.1,1.4,0,3-0.3,4.7c-0.3,1.7-0.7,3.4-1.1,5L944.8,822.3z M949.5,800.7
				c2.4-6.2,4.8-11.5,7.1-15.7c2.3-4.2,4.5-7.6,6.8-10.2c2.2-2.6,4.5-4.5,6.8-5.6c2.3-1.1,4.7-1.7,7.2-1.7c3.3,0,5.5,0.8,6.7,2.3
				c1.2,1.6,1.7,3.5,1.6,5.9c-0.1,2.4-0.6,4.9-1.5,7.4l-10.1,30.3c-0.6,1.9-0.9,3.4-0.8,4.6c0.1,1.2,0.9,1.8,2.4,1.8
				c1.3,0,2.6-0.7,3.9-2.2c1.3-1.5,2.6-4.3,4.1-8.4l1.4-3.8h2l-2.6,7.6c-1,2.9-2.2,5.1-3.6,6.6c-1.4,1.5-2.9,2.6-4.5,3.2
				c-1.6,0.6-3.1,0.9-4.5,0.9c-1.7,0-3-0.3-4.1-0.8c-1.1-0.6-1.9-1.3-2.4-2.2c-0.8-1.2-1-2.9-0.7-4.9c0.3-2,0.8-4.2,1.7-6.6
				l9.9-29.7c0.3-1,0.6-2.1,0.9-3.5c0.2-1.4,0.2-2.6-0.2-3.6c-0.3-1.1-1.4-1.6-3-1.6c-1.7,0-3.4,0.7-5.3,2.2
				c-1.9,1.5-3.8,3.5-5.8,6.2c-2,2.7-4,5.9-5.9,9.6c-1.9,3.7-3.8,7.8-5.6,12.3s-3.4,9.2-4.8,14.3L949.5,800.7z"/>
		</g>
	</g>
	<g>
		<g>
			<path class="st0" d="M487.2,684.8c0-1.2,0.7-2,1.8-2h3.3c22.9,0,30.6-16.4,30.6-48.4V217.8c0-32-7.6-48-30.6-48H489
				c-1.1,0-1.8-0.8-1.8-2c0-1.2,0.7-2,1.8-2h102c1.1,0,1.8,0.8,1.8,2c0,1.2-0.7,2-1.8,2h-3.6c-22.9,0-30.6,16-30.6,48v416.5
				c0,32,7.6,48.4,30.6,48.4h3.6c1.1,0,1.8,0.8,1.8,2c0,1.2-0.7,2-1.8,2H489C487.9,686.8,487.2,686,487.2,684.8z"/>
		</g>
		<g>
			<g>
				<path class="st0" d="M624.3,403.1c5.1,0.8,8.6-0.3,14.6-1.7c-6.1,12-6.6,24.2-0.1,36c2.9,5.2,3.2,11,3.2,16.9
					c0,18.3,3.8,11,2.9,19.7c-0.7,6.6-1,12.8-1.1,19.4c-0.2,8.9-1.9,17.2-3.5,26c-3,15.8,0.4,17-5.5,39.4c-1,3.7,0.2,10.1,2.9,12.9
					c3.3,3.4,8.8,3.4,13.1,4.2l27.6,4.8c7,1.2,14.1,1.7,21.3,2c18.4,0.8,18.9,11,36.4,12.6c7.4,0.7,14.2,1.2,21.7,0.3
					c2.8-0.3,5.8-2.5,8.5-3.2c9.1-2.3,25.2,4.4,35.5-6.9c1.4-1.5,2-5.8,2.6-8.2l20.1-4.8l34.2-3.4c7.4-0.7,14.1-2.9,21.8-2.1
					c7.9,0.8,20.5,0,28-1.7c-4.3-1-8.8-2.5-13.3-2.6l-22.1-0.7c-0.7-2-0.9-4.7-0.4-6.8c8.2,1.6,49.9,7.5,50,14.4
					c0.2,12.3-56.1,13.5-66.3,16c16,5.3,82.5,4.2,82.8-16.9c0.2-10.5-12.1-14.5-21.6-17.1c-9.4-2.5-18.5-4.4-28.1-6l-24-3.8
					c-4.6-6.1-8.2-12.6-12.3-19c-8-12.3-18.8-22.9-31.3-31c-7.1-4.6-15.3-5-23.9-2c0.4-11.5,0-22.5-1.5-34c-0.3-2.6,0-4.5,1.7-7.5
					l1,4.6c2.2-6.2,5.4-13.8,2.2-20.6l-5.4-11.4l7.2,6.2c1.4,1.2,3.5,2.3,4.1,4.3l2,6.6l3.3-5l1.4,2.8l2.8-4.3l1,2.7l6.7-8.4
					l0.7,5.5c1.5-2.5,3.3-6.9,5.5-8.4c4.3-1.7,4.3-6.4,3.3-10.2l-2.3-9.3c10.2-7,7.7-16.3,12.2-25.5c1.5-3,1.6-7-0.5-10
					c-6-8.3-12.7-16-20.1-23.2c-10.7-10.4,1.7-13.9-13.1-25.9l-0.5-8.4l-5.5-4.9c8.3-4.9,9.8-15.7,2.9-22.3c0.3,5.7,0.9,11.1-3.6,15
					c-2.9,2.5-7.1,4.1-11.4,4.9l4.4-3c6.3-5.7,12.4-21.5,2.6-27.9c1.8,4.7,1.4,9.9-2.1,14.1c0.4-8,0.5-16-6.4-21.8l3.8,8.3
					c3,9.6-1.2,20.3-9.7,26.3c1.4-6.5,3.3-12.1,2.8-18.2c-1-12.9-13.1-19.9-25.2-22.2l9.3,5c0.4,0.2,1.9,0.7,1.9,0.7
					c0,0-1.1,0.9-1.2,1c-1.2-0.5-2.7-1.1-4.2-1.4c27.2,17.7,0.1,44.1,10.2,39.1l2.8-1.4l8.4,4.1c8.2,4,14.5,11.2,20.9,17.3
					c10.7,10.1-1.4,11.2,10,22.6c4,4,24.6,24.5,22,28.2c-0.6,0.8-2.7,1.9-3.7,1.8l-8.8-0.5c-2.4,0.4-5,1.1-6.5,0.4
					c-2.4-1.2-3.1-3-4.1-5.6c-2.5,12.3,11.7,4.3,13.2,17.4c1.3,12.2-18.5,19.2-30.1,18.2l0.6-3.3l-3.6,0.5c4-7.3,11.3-2.4,14.3-6.7
					l-8.4,0.6l0.1-2.3c0-0.4-1.3,0.1-1.9,0.1l-4.1,0.2c-0.9,0.1-1.8-2.2-1.7-3.6c6.8,1.9,12.5,2.4,18.4,0.6
					c-7.3-1.2-14.1,1-19.5-4.4c7.6,0.2,14.1,0.6,20.7,0.1c-7.4-0.7-13.8-0.6-20.7-3.1l1.7-3.8c-2.2,1.1-3.1,3.5-3.7,6.1l-7.3,0.7
					l6.9,0.6c0.3,0.2,1,2.2,0.4,2.5l-2.6,1.3l4.6,1.4c-2.5,2.3-4.3,2.9-7.4,4l7.4-0.4c-3.8,1.7-8.9,4.1-9.1,8.8
					c-0.3,4.4,5,5,8.3,4.6l13.9-1.8c6.4-0.8,12.3-4.1,18.7-6.5c1,3,2.4,7.8,1.6,10.4l-2.1,6.8l-1.5-2.4c-1.9,3.4-3.7,6.4-5.6,8.8
					l-1.2-2.2c0-0.1-0.1-0.1-0.1-0.1l-5.1,5.4l-0.4-6.1l-2,5.5l-1.9-4.7l-1,3.9l-1.9-6.3l-1.9,3.7l-0.7-4.6l-1.6,1.1
					c-0.4,0.3-0.9-1.4-1.2-2c-1.8-0.9-2.9-2.2-3.9-4.3c-0.1,0.2-0.4,0.8-0.6,1c-0.2,0.3-1,0.6-1.1,0.3l-0.7-2.7
					c-3,0.4-6.3-1.3-8.7-4l-0.7,2.5l-3.4-7.6c-1.5,0.2-2.3,0.4-2.4,0l-0.8-2.2l-2.3,2.8l0.4-5.3l-2.3,1.9l1.3-5.8l-1.2,0.5
					c-0.6,0.3-1.1,0.3-1.1-0.1l-0.1-2.6c-0.1-1.4,0.1-3.1,0.5-4.8c-3.3-6.5-8.8-12.6-14.2-17.7c-6.9-6.5-7-15.1-8.9-23.6
					c-0.8-3.8-1.8-6.5-0.9-11.8c-7.6,17.4-2.1,34.7,9,51.3c7.9,11.9,3.9,21.3,7.5,31.6l0.5-7.8l8.3,27.9c-0.2,2.6-0.7,6.1-0.4,9
					c3.2-3.8,3.7-8,4.8-12.5l0.7,5.5l1.4-3.8l0.6,8.3l1.9-8.3l1,3l2.7-8.3l1.3,5.6c0.8-3.2,0.8-5.7,0.6-9.1l1.5,3.6
					c0.1,0.2,0.8,1.1,0.8,1.1c0,0,0.7-0.5,1.6-1.1c1.8,4.2,3.6,9.3,0.7,14.5l-2.3-10.8c-2.8,11.4-5.7,21.9-14.8,29.6l4.7-16.3
					c-3.6,6.8-7.4,13-14.1,18.4l3-14c-2.2,4.6-3.7,9-7.6,12.8c1.1-5.6,4.3-8.9,4.4-13.9c-2.3,3.9-3.5,8.8-6.7,12l-7.9,7.8
					c-0.7,0.7-2.8,0.3-3.9-0.2c-3,1.9-7.1,4.8-9.9,7.4c-2.7,2.5-3.5,6.2-7.2,8.1c5.9-8.9,8.5-16.8,7.3-26.6
					c-0.3-2.3-0.1-5.3-1.1-7.6l-4-9.5c0-7.5,2.7-15.1-0.1-22.3c-2.1-5.6-4.9-11.7-9-16l-4.5-4.7c-2.4-2.5-1.5-6.4-5.6-7.7l15.4,28.3
					c-1.7-0.6-2.1-1.5-3.4-3.2l1.9,7.6l2.7,10.5c0.3,1.4,1.3,3,0.5,4.2c-0.9-0.6-19.1-22.9-19.5-18.3l-0.2,2.3l-9-11.4
					c-0.2-0.3-0.9-2.2-0.5-2.3l1.3-0.4c-3.9-10.5-6.2-22.9-4.4-33.3c-8.3,17.5,4.3,27.9,1.5,31.8c-0.4,0.6-2.2-0.7-2.6-1.4
					c-6.7-13.2-6.2-28.4,0.9-41.3l-0.3,5.3c3.1-5.7,11.5-16.6,18.2-22.5l-1.5,9.5c-0.6,4.1-2.2,10-1.3,14.1
					c3.5,16.9,25.4,34.7,37.3,58.3c4.8,9.5,2.5,19.2-3.6,27.4c8.9-7.6,9.1-16,9.7-26.9c2.1,8,0,15-3.9,23.9c1.8-1.6,3.6-3.7,5.3-6.1
					c0.9,6.1-3.8,9-7.6,14.2c15.5-9.8,15.7-34.4,3.9-48.7l-11.5-14l0-3.6c-10.1-9-13.5-21-16.5-33.5c-2.4-10-3.6-13.1,2.6-25.6
					l4.1-8.3l-6.7,3c-4.2-5.3-8.2-11.1-9.3-17.9c-0.9-5.9-0.4-13.1,4.2-17.3c5.9-5.4,15.1-4.2,21.4,0.3c4.4,3.1,5.9,6.5,8.1,11.5
					l1-7.1c3.1,1.6,4.9,3.1,7.8,5.8c-0.2-0.9-0.7-4.4-1.4-5.3c-4.6-5.7-18.9-12.7-27.9-12.8c-16.7-0.3-14.4,13.8-21.5,15.5l-0.6-2.1
					l-14.5,7c-4.9,2.4-11.5,3.4-16.8,3.1c8.2-3.8,22.3-5.5,28.1-12.7c-2.8-0.3-6.6,0-10,1l-17.7,5.4c-10.4,3.2-18.1,10.8-22.5,20.2
					c12.4-11.3,20.2-13.6,36.6-9.2l-6,0.8c4.3,2.3,11.3-2.8,18-2.8c-2.2,2.3-4.6,3.9-7.7,5.1c-9.3,3.6-27.1,14-34,20.9
					c4.1,0.6,4.5-4.1,8.4-3.1c-4.1,4.3-6.3,8.4-8.3,13.6c-3.1,8.1-5.7,15.8-3.1,24l0.5-2.5c0.1-0.4,0.5-0.8,1.2-1.5l0.5,13.1
					c0.3,8.5-3.8,16.8-8.9,23.3c1.7-8.6,5.2-11.4,6.6-20.3c-1.1,1.6-2.8,3.6-3.3,4.8l-9.3,21.6c-1.9,4.3-2.4,8.6-3,12.9
					c-1.8-9.5,3-17.8,6.1-27c-5.9,5.9-8.1,13.5-9.9,21.7c-1-7.3,3.2-13.5,4.9-20.9l-4.2,5.8c0.3-3,1.1-5.3,2.5-7.3
					c5.6-7.8,9.9-15.5,12.1-25l-2.2,2.7l-0.5-2.7l-3.2,4.8l0.1-3.6c-3.1,4.7-5.3,9.2-9.5,13.8l4.3-14.8c2.9-9.9,7.1-19,14.2-26.8
					l1.2-6.2l-5.2,1.6c1.8-4,5.1-5.7,8.6-7.9l9.5-6.2l-16.2,6.7l3-4.7l-14.9,10l3.8-9.3c2.4-5.9,5-12.7,9.4-17.7
					c8.7-9.9,22.2-14.4,35.4-15.2c3.3-0.2,6.2-0.4,9.3-1.1c-10.4-2.5-20,1-30.1,2.4c-14.4,2-26.6,11.7-27.6,26.1
					c1.7-3,2.5-6.1,5.7-8.2c-6.7,14.7-7.2,24.9-21.6,31.2c4,0.8,7.9,0.3,12.6-0.7c-4.2,9.2-6.1,18.1-6.4,27.9
					C636,392,636,394,624.3,403.1z M680.5,309c6.5-3,12.7-5.2,19.6-6C693.6,305.5,687.2,307.7,680.5,309z M761.9,430.2
					c0.3,2.1,0.3,3.9,0,5.5C761.6,433.6,761.6,431.8,761.9,430.2z M737.8,452.7l2,3.1c0.3,0.5-1.4,1-1.4,0.8l-1.1-2.7
					C737.1,453.5,738,452.1,737.8,452.7z M771,391l-6-11.8l6.3,7c0.5,0.6,1.4,2,1.7,2.6C773.3,389.4,771.5,390.8,771,391z
					 M794.4,403.1l5.5-3.8c-2.6-1.7,2.5-1.1,3-0.6C799.6,401,797.7,402.6,794.4,403.1z M797.8,305.3c11.5-6.3,9.4-5.9,10.5-16.8
					c0.5,1.2,1.6,4.1,1.5,5.6C809.4,299.9,803.5,305.3,797.8,305.3z M807.2,317.2c-0.8-3.6-1-5.4-3.6-6.9c-0.2-0.1-0.9-1.1-1.1-1.4
					c2,0.3,4.1,1.5,5,2.8C808.3,312.9,807.9,316.2,807.2,317.2z M838.4,386.7c-0.5,4.5-1.3,9.3-5.8,12.9
					C831.4,394.1,834.6,390.4,838.4,386.7z M794.4,428.5c-2-2.9-3.8-5.9-2.8-9c3.9,4.6,5.9,9.7,7,15.1L794.4,428.5z M657.6,464.4
					c-3.1-10.1-4.7-11-0.6-19C655.3,457.4,662,457.7,657.6,464.4z M673.4,408.9l6.1,11.9c0.7,1.4,2.2,3.8,2.9,5.1
					c2.2,6.2-0.4,15.4-3.9,20.9c-5.9,9.5-10.6,18.3-11.5,29.8c-10.9-6.7-6.3-17.1-2-26.1l0.9,4.1C676.4,434.9,675.7,430,673.4,408.9
					z M666.9,423c-0.5,7.6-2.5,13.6-5.4,19.9C659.6,435.9,660.5,427.7,666.9,423z M691.2,358.5l-3.7,7c-4.3,8.1-7.2,17.1-5.1,25.6
					l1.4-5.6c0.7,9.2,1.4,17.6,6.2,26c1.2,2.1,2.2,4.7,2.4,7.2c-11.9-7.5-14.2-23.6-17.9-34l-1,2.9l-1-3.9l-1.1,4.9
					c-1.9-5.1-1-9.3-0.1-14.1l1.4-7.7c-5.3,7.6-3.9,16.3-4.3,25.5c-1,3.1-3.4,6.9-5.6,9.8c5.3-27.4-0.3-40.5,21.1-61.7
					c4.1-4.1,7-7.6,12.6-10c4.9-2.1,11.9-5,17.3-4.6c0.7,0,0.9,2.4,0.4,2.8l-2.2,1.6c2.4,0.3,5.1,0.6,7.6,1.7
					c-9.5,3.5-21.9,9.1-29.3,15.1c-0.4,0.3,0.4,2.8,0.6,2.4c0.2-0.3,1.2-1.4,1.6-1.6l21.8-10.5c-0.3,3.8-4.7,4-7,5.9
					c-2.4,2-4.5,3.4-7.8,2.7C696,348.9,693.6,354,691.2,358.5z M725.4,435.1c-2.3-0.4-3.2-1.5-2.8-3.2L725.4,435.1z M732.4,470.5
					c-3.2-7.2-7.1-14-14.7-18c-2,4.5,9.7,7.5,9,21.4c-4.1-3.2-7.1-5.6-12.3-8.1l1.6,5.8c-0.2,0.4-1.7,1.6-2.1,1.1l-2.4-2.3
					c-0.6-0.6-1.3-1.6-1.6-1.5l-1.4,0.9l-7.4-5.9l0.7,3l-7.8-2.2l2.9-6.3l-7.3,6.7c1.3-3.6,2.8-5,4.8-8.1
					c-11.6,7.2-14.7,21.1-13.4,33.5l-10.2-8.2l1.5-10c1.4-9.5,18.1-29.4,18.2-44.1c9.7,10.6,17,22.8,15.5,35.8
					c2.7-4.4,5.3-11,2.4-16.2l-9.5-16.9c3.1,2.3,5.3,4.7,7.3,7.2l-0.2-5.6C716.4,442.6,733.4,456.3,732.4,470.5z M717.3,504.4
					l-3.2-7.6C717.1,498.7,717.7,501.4,717.3,504.4z M733.6,531.9c-1.1,2.3-1.3,5.3-1.8,7.9l-2.3,11.4c-9.3-3.8-0.1-13.3-2.2-18.8
					l-4.1,6.5c0.5-4.4,1.1-7.8,2.2-11.6l1.3,3.9l3.8-6.5l-1,11.7c7.3-13.5,5.4-10.6,6.2-24.1C739.1,518.9,736.7,525.6,733.6,531.9z
					 M756.9,504.2c-1.8,12.5-9,23.2-18.6,31.4c7.6-20.4,4.7-18.5,2.8-39.3c3.3,2,4.6,5,6.2,8.8c1.6-6.7-5-15-2.2-15.8
					c0.5-0.2,1.6-0.4,1.8,0l1.1,2.1c3.4,6.6,5.5,12.9,5.7,19.9c6.1-14.1-8-27.9,1-26.1C755.8,490.5,757.7,498.4,756.9,504.2z
					 M759.3,517.5c-0.9-2.2-0.4-4.6,0.3-6.7c3.7-10,4.6-19.7,5-30C768.6,493.8,766.3,506.2,759.3,517.5z M774.9,500.7l-0.3-13.1
					c0-0.3-1.9-1.4-2-1.7l-1.9-8.5l8.5-5.8C780.3,479.7,779.5,495.7,774.9,500.7z M791.6,466.4c-2-2.6-3-4.5-1-4.8
					C792.1,461.5,792.8,466.1,791.6,466.4z M869.9,547.4L891,551c8,1.4,15.1,2.9,22.8,4.9c6.4,1.6,22.3,5.6,20,14
					c-2.6,2.9-5,5-8.3,6.6c1.7-4.1,3.1-6,2.6-9.1c-2.3-13.6-54.8-15.8-59-18.3C868.7,549,869.5,547.4,869.9,547.4z M822.8,552.3
					c7.2,10,7.5,6.3,17.6,11.6c-6.5,1.6-10,1.2-16.4,1.3L822.8,552.3z M798.9,519c-1.1-5.2-3.6-22.3,1.4-24.8
					c8.6-4.5,18.1-0.8,24.5,5.2c7.7,7.3,15.9,13.7,21.5,22.6l13.6,21.8c3.5,5.6,6.6,10.7,8.1,17.4c-4.7,2.3-9.6,2.4-14.4,1.8
					c2.1-4.8,6.5-9.8,2.7-15l-1.3,5.3l-1.7-5.6l-3.3,9c-9.4,4.6-18.9,0.9-25.8-5.8c-7.4-7.3-2.3-6.1-7.8-9.3
					c1.2,7.8,6.4,23.9-3.4,27.8c-1.7-6,0.5-11.4-4.3-16l0.4,11.4c0.1,1.8-2.5,6.1-4.8,5.4C793.1,566.7,802.8,538,798.9,519z
					 M763.1,566.5l3.8-6.4c-3.2,0.9-5.8,2.5-8.7,4.4c-12.7-2.3-12.7-2.3-23.1-10.3c2.2-4.5,5.6-7.3,10.4-8.5l3.7,12.2
					c2-3.7,10.7-17.4,16.3-20.8l7-4.3c-3.4,0.3-6,0.8-9.2,1.6c-7.8,1.9-8.9,8.5-9.7,7c-0.3-0.5-0.7-1-0.5-1.3l1.2-1.2l1.3-1.4
					c0.3-0.3-1.4-1.7-1.2-2c3.2-4.5,8.9-12.6,13.4-17.4c5.6-6.1,10.6-12.4,14.3-19.2c6.3-5,6.9-12.1,10-18.3c3.8,9,0,21.9,1,33.1
					c0.8,9.1,2,17.6,1.6,26.8c-0.2,4.2,0,23-1,23l-2.8-0.2c3.4,9.2,11.1,3,7.6,18.3l-1.7-8.9c-3.4,2.6-0.2,13.8-7.7,13.3l-1.9-12.3
					c-2.3,4.6-1.6,9.6-5.8,11.7c-2.3,1.1-5.8,1.7-8.6,2.4C773.7,579.1,770.5,571.8,763.1,566.5z M647.1,510.9
					c3.4-16.7-1.4-31.9,4.5-47.3l2.3,14.7c0.6,3.9,1.9,7.6,4,10.8l-2.6-21.7c3,5.7,5.6,8.8,9.3,12.7c3,3.1,5.6,6.9,9.5,9.4
					c7.8,5,12.6,11.3,18.4,18.4l-6.5-13c-1.7-3.3-2.5-6.6-1.7-10.8l2.4,4.6c-0.8-7.4,0.7-15,4.3-22.3c2,1.5,3.9,3,6,4.3l8.5,5.4
					c4.7,3,8.4,6.9,9.4,12.9l-11.5-9.3c-1.9,2.8,6.7,8,7.5,12.2c-1.1,2.5-1,3.8-0.2,6.1c5.4,14.8,7.1,21.4,0.7,37.1
					c-0.1-6.3,0-11.7-0.9-17.6c-2.2,7.7-1.5,14.2-7.6,20.3l-1.7-9.2c-0.4-1.9-1.5-4-2.6-5.5l0.4,8.2l-4-7.3l0.6,12.9
					c-8.8-2.3-16.3-3.4-24.8-0.7c10.5,0.6,19.9,2.1,29.4,6.3l26.2,11.6c5.8,2.6,10.7,7.8,16.6,9.6l14.8,4.6
					c6.3,2,11.1,7.9,11.3,14.6c0,2-1.2,4.9-2.6,5.7c-1.2,0.8-4.6,1.1-6,0.8c-0.1-5-0.9-9.6-5-12.2c0.1,4.4,3.8,9.3,0.2,12.9
					c-2.4,2.3-9.9,0.7-11.2-2.3c-2.5-5.8-3.3-11.2-9.8-10.9c4.2,2.8,3.6,9.8,2.1,11.4c-4,4.2-18.5-5.2-22.3-7.3
					c-4.8-2.6-11.4-3-16.9-3.4c-10.9-0.8-20.9-2.5-31.4-5.6c-18.6-5.4-17.4,0.4-24.4-10.7c-0.7-1.1-1.6-2.3-1.2-3.7
					c2.5-9.2,3.2-17.8,3.2-27.2C643.8,524,645.7,517.6,647.1,510.9z M707.9,541.7c-0.6-1.5,0.5-3.4,2.4-4.5
					C709.9,538.8,709.1,540.1,707.9,541.7z"/>
				<path class="st0" d="M798.1,415.3C798.1,415.3,798.1,415.3,798.1,415.3C798.2,415.3,798.2,415.3,798.1,415.3z"/>
				<path class="st0" d="M819.7,423.8L819.7,423.8C819.4,423.2,819.4,423.1,819.7,423.8z"/>
				<path class="st0" d="M800.1,515.6c3.1,5.3,8.1,15.6,8.4,22.2C801.8,528.6,801.5,527.5,800.1,515.6z"/>
				<path class="st0" d="M699.8,268.2c-7,2.8-13.6,7.6-19,12.5c-9.1,8.2-10.7,12.8-25.7,11.9c10.7,12.7,23.4,5.8,36.8,1
					c-8-0.8-16.1,4-21.6,2.8c6.7-2.6,12-5,17.4-9.3c-3.9,0.3-5.5,2-9.5,1.9l17.3-9.2l-6.9,0.6c7.3-7.1,30.7-7.6,40.5-5l-11.7,2.3
					l21.1-0.1l0.4-3.7l8.5,4.7C739.1,265.1,713.7,262.6,699.8,268.2z M720.6,271.2c-2.5,0.4-4.7,0.4-6.7,0
					C716.4,270.8,718.6,270.8,720.6,271.2z"/>
				<path class="st0" d="M773.2,305.6l-1.7-3.2l-1.5,3.2c-1-6.3-0.8-12.2-3.4-17.6l-5.1-10.4c1.2-0.1,2.1,0,2-0.3
					c-3.4-6.7-16.3-11.8-23.3-14.2l2.9-0.9c-10.8-4.1-15-2-25.7-3.7c11.2-3.3,21.9-2.2,32.6,1.3C770.9,266.7,782,285.7,773.2,305.6z
					"/>
				<path class="st0" d="M747.9,310.6l-1.9,2.5c-0.3,0.4,1.4,1.9,1.3,1.9l-3.5,0.6c-0.3,0.1,0.6,0.9,0.8,1.2l1.9,1.8l-7.5,0.7
					c-0.4,0-2,0.7-2.4,0.9c-0.4,0.2,0.6,1.1,1.2,1.8l-6.6,8c-3.5-4.9-2.6-17.4-4-16.2l-1.4,1.1c-0.9-3.5-1.6-9.4,0.4-12.5
					c6.8-5,14.8-1.4,19.1,3.6l-5-1.6l2.3,5.4l4.1,1.4l-1.9-3.2C746.1,308.3,748.4,309.8,747.9,310.6z"/>
				<path class="st0" d="M750.4,382.7l-6.2,1.7c-6.2-6.5-11.9-16.2-8.4-24.5c3.5-8.3,4.3-17.8,9.3-26c-3.2,10.6-3.6,26.4-0.3,36.6
					C746.2,374.6,748.8,378.6,750.4,382.7z"/>
				<path class="st0" d="M722.9,279.5c12.5-2.7,25.8,1.8,32.3,12.5l-5.3-3.1c-9-8-32-9-35.4,1.9c-1,3.2-1.5,6.6-2.2,9.9
					c-1.5-3.3-3.4-7.1-3.6-10.5c-0.3-5.3,5.4-9.8,9.9-11.4L722.9,279.5z"/>
				<path class="st0" d="M807.1,355c-1.7-8.8-13.9-11.5-9.3-19c1-1.6,2-5.4,0.9-6.9l-4.3-5.9c-1.8,3.8-0.3,6.4,0.3,10.2
					c0.4,2.6-4.5,2.3-6.3,2.4l-13,1.4c12.5,4.7,7.5,5.4,17.8,7.6C799,346,803.5,351.2,807.1,355z M788.8,342.3l-2.6-1.4
					c-0.5-0.3-0.6-2.6,0-2.4c0.6,0.1,1.9,0.4,2.3,0.8l1.7,1.8C790.5,341.4,789.2,342.5,788.8,342.3z"/>
				<path class="st0" d="M774.4,363.9c-4-2.7-5.6-8.6-4.2-12.9c2,4.3,4.2,9.6,8.8,12.5l8.3,2.9C781.8,368.7,777.5,366,774.4,363.9z"
					/>
				<path class="st0" d="M805.1,328c1.5,3.9,0.3,6.9-2.4,8.4L805.1,328z"/>
				<path class="st0" d="M649.3,541.7c-1.2,7.3,0.6,16.4,7.3,21c5.5,3.8,12.4,5.5,18.5,8.2c-9.1,1.3-18.6-2.1-25.3-8
					c-6.6-5.8-4.6-24.5,1.2-31.9L649.3,541.7z"/>
				<path class="st0" d="M710.4,332.6l-7,3.6l-18,11.3C690.5,338.8,700.1,333.7,710.4,332.6z"/>
			</g>
			<g>
				<path class="st0" d="M443.5,377.1c-0.4-9.8-2.2-18.7-6.4-27.9c4.7,1,8.6,1.5,12.6,0.7c-14.5-6.3-14.9-16.5-21.6-31.2
					c3.2,2.1,4.1,5.2,5.7,8.2c-1-14.4-13.2-24.1-27.6-26.1c-10.1-1.4-19.7-4.9-30.1-2.4c3.1,0.6,6,0.9,9.3,1.1
					c13.1,0.8,26.6,5.3,35.4,15.2c4.4,4.9,7,11.8,9.4,17.7l3.8,9.3l-14.9-10l3,4.7l-16.2-6.7l9.5,6.2c3.5,2.3,6.8,3.9,8.6,7.9
					l-5.2-1.6l1.2,6.2c7.1,7.9,11.3,16.9,14.2,26.8l4.3,14.8c-4.1-4.5-6.4-9-9.5-13.8l0.1,3.6l-3.2-4.8l-0.5,2.7L423,375
					c2.2,9.4,6.5,17.1,12.1,25c1.4,2,2.3,4.3,2.5,7.3l-4.2-5.8c1.7,7.4,5.8,13.6,4.9,20.9c-1.8-8.1-4-15.7-9.9-21.7
					c3.1,9.2,7.9,17.4,6.1,27c-0.6-4.3-1.2-8.6-3-12.9l-9.3-21.6c-0.5-1.2-2.2-3.2-3.3-4.8c1.4,8.9,4.9,11.7,6.6,20.3
					c-5.1-6.5-9.2-14.8-8.9-23.3l0.5-13.1c0.7,0.7,1.2,1.1,1.2,1.5l0.5,2.5c2.7-8.2,0.1-16-3.1-24c-2-5.2-4.2-9.3-8.3-13.6
					c3.9-1,4.3,3.7,8.4,3.1c-6.9-6.9-24.7-17.3-34-20.9c-3.1-1.2-5.6-2.8-7.7-5.1c6.7,0,13.7,5.2,18,2.8l-6-0.8
					c16.4-4.4,24.2-2.1,36.6,9.2c-4.4-9.4-12.1-17.1-22.5-20.2l-17.7-5.4c-3.4-1-7.2-1.4-10-1c5.7,7.2,19.9,9,28.1,12.7
					c-5.3,0.3-11.8-0.7-16.8-3.1l-14.5-7l-0.6,2.1c-7-1.7-4.8-15.7-21.5-15.5c-8.9,0.1-23.3,7.1-27.9,12.8c-0.8,0.9-1.2,4.4-1.4,5.3
					c2.9-2.7,4.7-4.2,7.8-5.8l1,7.1c2.2-5,3.7-8.4,8.1-11.5c6.4-4.5,15.5-5.8,21.4-0.3c4.6,4.2,5.1,11.4,4.2,17.3
					c-1.1,6.8-5.2,12.7-9.3,17.9l-6.7-3l4.1,8.3c6.2,12.5,5,15.7,2.6,25.6c-3,12.5-6.4,24.5-16.5,33.5l0,3.6l-11.5,14
					c-11.8,14.4-11.6,38.9,3.9,48.7c-3.9-5.1-8.5-8-7.6-14.2c1.7,2.4,3.5,4.5,5.3,6.1c-3.9-8.9-6-15.9-3.9-23.9
					c0.6,11,0.8,19.3,9.7,26.9c-6.1-8.2-8.4-17.9-3.6-27.4c11.8-23.6,33.8-41.4,37.3-58.3c0.8-4.1-0.7-10-1.3-14.1l-1.5-9.5
					c6.7,5.9,15.1,16.8,18.2,22.5l-0.3-5.3c7.1,12.9,7.6,28.1,0.9,41.3c-0.4,0.7-2.2,2-2.6,1.4c-2.8-3.9,9.8-14.3,1.5-31.8
					c1.8,10.3-0.5,22.8-4.4,33.3l1.3,0.4c0.3,0.1-0.3,2-0.5,2.3l-9,11.4l-0.2-2.3c-0.4-4.6-18.6,17.7-19.5,18.3
					c-0.8-1.2,0.2-2.8,0.5-4.2l2.7-10.5l1.9-7.6c-1.3,1.7-1.7,2.7-3.4,3.2l15.4-28.3c-4.1,1.3-3.2,5.2-5.6,7.7l-4.5,4.7
					c-4.1,4.3-6.9,10.4-9,16c-2.8,7.2-0.1,14.8-0.1,22.3l-4,9.5c-1,2.3-0.8,5.2-1.1,7.6c-1.2,9.9,1.4,17.7,7.3,26.6
					c-3.6-1.9-4.5-5.6-7.2-8.1c-2.8-2.6-6.9-5.4-9.9-7.4c-1.1,0.5-3.2,0.9-3.9,0.2l-7.9-7.8c-3.3-3.2-4.4-8.1-6.7-12
					c0.1,5,3.3,8.3,4.4,13.9c-3.9-3.9-5.4-8.2-7.6-12.8l3,14c-6.8-5.3-10.5-11.6-14.1-18.4l4.7,16.3c-9.1-7.7-12-18.1-14.8-29.6
					l-2.3,10.8c-2.9-5.2-1.1-10.2,0.7-14.5c0.9,0.6,1.6,1.1,1.6,1.1c0,0,0.7-0.9,0.8-1.1l1.5-3.6c-0.2,3.3-0.2,5.9,0.6,9.1l1.3-5.6
					l2.7,8.3l1-3l1.9,8.3l0.6-8.3l1.4,3.8l0.7-5.5c1.1,4.5,1.6,8.7,4.8,12.5c0.3-2.9-0.2-6.4-0.4-9l8.3-27.9l0.5,7.8
					c3.6-10.3-0.4-19.7,7.5-31.6c11-16.6,16.5-33.9,9-51.3c0.9,5.3-0.1,8.1-0.9,11.8c-1.8,8.5-2,17.1-8.9,23.6
					c-5.4,5.1-10.9,11.2-14.2,17.7c0.4,1.7,0.5,3.4,0.5,4.8l-0.1,2.6c0,0.4-0.5,0.4-1.1,0.1l-1.2-0.5l1.3,5.8l-2.3-1.9l0.4,5.3
					l-2.3-2.8l-0.8,2.2c-0.1,0.4-0.9,0.1-2.4,0l-3.4,7.6l-0.7-2.5c-2.4,2.7-5.7,4.4-8.7,4l-0.7,2.7c-0.1,0.3-0.9,0-1.1-0.3
					c-0.1-0.2-0.5-0.8-0.6-1c-0.9,2.1-2.1,3.4-3.9,4.3c-0.3,0.6-0.7,2.3-1.2,2l-1.6-1.1l-0.7,4.6l-1.9-3.7l-1.9,6.3l-1-3.9l-1.9,4.7
					l-2-5.5l-0.4,6.1l-5.1-5.4c0,0,0,0.1-0.1,0.1l-1.2,2.2c-1.9-2.4-3.7-5.4-5.6-8.8l-1.5,2.4l-2.1-6.8c-0.8-2.6,0.6-7.4,1.6-10.4
					c6.4,2.5,12.4,5.7,18.7,6.5l13.9,1.8c3.3,0.4,8.6-0.3,8.3-4.6c-0.3-4.7-5.3-7.1-9.1-8.8l7.4,0.4c-3.1-1.1-4.9-1.7-7.4-4l4.6-1.4
					l-2.6-1.3c-0.5-0.3,0.1-2.3,0.4-2.5l6.9-0.6l-7.3-0.7c-0.6-2.6-1.5-5.1-3.7-6.1l1.7,3.8c-6.9,2.6-13.3,2.4-20.7,3.1
					c6.6,0.5,13.1,0.1,20.7-0.1c-5.4,5.4-12.2,3.2-19.5,4.4c5.9,1.7,11.6,1.3,18.4-0.6c0.1,1.4-0.7,3.7-1.7,3.6l-4.1-0.2
					c-0.5,0-1.9-0.4-1.9-0.1l0.1,2.3l-8.4-0.6c3,4.3,10.3-0.6,14.3,6.7l-3.6-0.5l0.6,3.3c-11.6,1-31.4-6-30.1-18.2
					c1.4-13.1,15.7-5.2,13.2-17.4c-1,2.6-1.6,4.4-4.1,5.6c-1.5,0.7-4.1,0-6.5-0.4l-8.8,0.5c-1,0.1-3.1-1-3.7-1.8
					c-2.6-3.8,18-24.2,22-28.2c11.4-11.4-0.7-12.4,10-22.6c6.4-6.1,12.7-13.3,20.9-17.3l8.4-4.1l2.8,1.4c10.1,5-17-21.4,10.2-39.1
					c-1.5,0.4-3,0.9-4.2,1.4c-0.1-0.1-1.2-1-1.2-1c0,0,1.6-0.5,1.9-0.7l9.3-5c-12.1,2.3-24.1,9.3-25.2,22.2
					c-0.5,6,1.4,11.6,2.8,18.2c-8.5-6.1-12.7-16.7-9.7-26.3l3.8-8.3c-6.9,5.8-6.9,13.8-6.4,21.8c-3.4-4.2-3.9-9.4-2.1-14.1
					c-9.8,6.3-3.7,22.2,2.6,27.9l4.4,3c-4.3-0.8-8.5-2.4-11.4-4.9c-4.5-3.9-3.9-9.3-3.6-15c-6.9,6.7-5.3,17.5,2.9,22.3l-5.5,4.9
					l-0.5,8.4c-14.8,12-2.4,15.6-13.1,25.9c-7.4,7.2-14.1,14.8-20.1,23.2c-2.2,3-2,7-0.5,10c4.5,9.3,2,18.5,12.2,25.5l-2.3,9.3
					c-0.9,3.8-0.9,8.5,3.3,10.2c2.2,1.4,4,5.9,5.5,8.4l0.7-5.5l6.7,8.4l1-2.7l2.8,4.3l1.4-2.8l3.3,5l2-6.6c0.6-2.1,2.7-3.1,4.1-4.3
					l7.2-6.2l-5.4,11.4c-3.2,6.8,0,14.4,2.2,20.6l1-4.6c1.7,3,2,4.9,1.7,7.5c-1.6,11.6-1.9,22.5-1.5,34c-8.5-3-16.8-2.7-23.9,2
					c-12.5,8.1-23.2,18.6-31.3,31c-4.1,6.3-7.6,12.8-12.3,19l-24,3.8c-9.7,1.5-18.7,3.4-28.1,6c-9.6,2.6-21.8,6.6-21.6,17.1
					c0.3,21.1,66.8,22.2,82.8,16.9c-10.3-2.5-66.5-3.7-66.3-16c0.1-6.9,41.8-12.8,50-14.4c0.5,2.1,0.2,4.8-0.4,6.8l-22.1,0.7
					c-4.5,0.1-9,1.6-13.3,2.6c7.5,1.7,20.2,2.5,28,1.7c7.8-0.8,14.4,1.4,21.8,2.1l34.2,3.4l20.1,4.8c0.6,2.4,1.3,6.7,2.6,8.2
					c10.3,11.4,26.4,4.6,35.5,6.9c2.8,0.7,5.8,2.9,8.5,3.2c7.5,0.9,14.3,0.3,21.7-0.3c17.5-1.6,18-11.8,36.4-12.6
					c7.2-0.3,14.3-0.8,21.3-2l27.6-4.8c4.4-0.8,9.9-0.8,13.1-4.2c2.7-2.8,3.9-9.2,2.9-12.9c-5.9-22.4-2.6-23.6-5.5-39.4
					c-1.6-8.8-3.4-17-3.5-26c-0.1-6.6-0.4-12.9-1.1-19.4c-0.9-8.7,2.8-1.4,2.9-19.7c0-5.9,0.3-11.7,3.2-16.9c6.5-11.8,6-24-0.1-36
					c6,1.4,9.5,2.5,14.6,1.7C444,394,444,392,443.5,377.1z M379.9,302.9c6.9,0.8,13.2,3,19.6,6C392.8,307.7,386.4,305.5,379.9,302.9
					z M318.1,435.7c-0.4-1.6-0.4-3.4,0-5.5C318.4,431.8,318.4,433.6,318.1,435.7z M342.8,453.9l-1.1,2.7c0,0.2-1.7-0.4-1.4-0.8
					l2-3.1C342,452.1,342.9,453.5,342.8,453.9z M307,388.8c0.3-0.6,1.2-2,1.7-2.6l6.3-7l-6,11.8C308.5,390.8,306.7,389.4,307,388.8z
					 M277,398.6c0.5-0.5,5.6-1.1,3,0.6l5.5,3.8C282.3,402.6,280.4,401,277,398.6z M270.2,294c-0.1-1.5,1-4.4,1.5-5.6
					c1.1,10.9-1,10.5,10.5,16.8C276.5,305.3,270.6,299.9,270.2,294z M272.5,311.7c0.9-1.3,3-2.6,5-2.8c-0.2,0.3-0.9,1.3-1.1,1.4
					c-2.6,1.5-2.8,3.3-3.6,6.9C272.1,316.2,271.7,312.9,272.5,311.7z M247.4,399.5c-4.5-3.6-5.3-8.4-5.8-12.9
					C245.4,390.4,248.6,394.1,247.4,399.5z M281.4,434.6c1.1-5.4,3.1-10.5,7-15.1c1,3.1-0.8,6.1-2.8,9L281.4,434.6z M423.1,445.4
					c4.1,8,2.4,9-0.6,19C418,457.7,424.7,457.4,423.1,445.4z M414.1,454.6l0.9-4.1c4.3,9,9,19.3-2,26.1
					c-0.9-11.6-5.6-20.4-11.5-29.8c-3.5-5.6-6-14.7-3.9-20.9c0.7-1.2,2.2-3.6,2.9-5.1l6.1-11.9C404.3,430,403.6,434.9,414.1,454.6z
					 M418.5,442.9c-2.9-6.3-4.9-12.3-5.4-19.9C419.5,427.7,420.4,435.9,418.5,442.9z M380.3,345.7c-3.4,0.7-5.4-0.8-7.8-2.7
					c-2.3-1.9-6.7-2.1-7-5.9l21.8,10.5c0.4,0.2,1.5,1.3,1.6,1.6c0.2,0.4,1-2.1,0.6-2.4c-7.4-6-19.8-11.6-29.3-15.1
					c2.5-1.1,5.2-1.4,7.6-1.7l-2.2-1.6c-0.5-0.4-0.3-2.7,0.4-2.8c5.4-0.3,12.3,2.5,17.3,4.6c5.6,2.4,8.5,6,12.6,10
					c21.4,21.3,15.8,34.3,21.1,61.7c-2.2-2.8-4.7-6.7-5.6-9.8c-0.4-9.2,1-17.9-4.3-25.5l1.4,7.7c0.9,4.8,1.7,9-0.1,14.1l-1.1-4.9
					l-1,3.9l-1-2.9c-3.6,10.4-5.9,26.5-17.9,34c0.2-2.5,1.2-5.1,2.4-7.2c4.8-8.3,5.4-16.8,6.2-26l1.4,5.6c2.1-8.5-0.9-17.5-5.1-25.6
					l-3.7-7C386.4,354,384,348.9,380.3,345.7z M357.4,431.9c0.5,1.7-0.4,2.8-2.8,3.2L357.4,431.9z M374,432.6l-0.2,5.6
					c2.1-2.5,4.2-4.9,7.3-7.2l-9.5,16.9c-2.9,5.2-0.3,11.8,2.4,16.2c-1.6-13,5.7-25.2,15.5-35.8c0.1,14.7,16.8,34.6,18.2,44.1
					l1.5,10l-10.2,8.2c1.4-12.4-1.8-26.4-13.4-33.5c2,3.1,3.5,4.5,4.8,8.1l-7.3-6.7l2.9,6.3l-7.8,2.2l0.7-3l-7.4,5.9L370,469
					c-0.3-0.2-1,0.9-1.6,1.5l-2.4,2.3c-0.4,0.4-1.9-0.7-2.1-1.1l1.6-5.8c-5.2,2.5-8.2,4.9-12.3,8.1c-0.7-13.9,11-16.9,9-21.4
					c-7.7,4-11.5,10.8-14.7,18C346.6,456.3,363.6,442.6,374,432.6z M365.8,496.7l-3.2,7.6C362.3,501.4,362.9,498.7,365.8,496.7z
					 M344.3,512.1c0.8,13.5-1.1,10.6,6.2,24.1l-1-11.7l3.8,6.5l1.3-3.9c1,3.9,1.6,7.2,2.2,11.6l-4.1-6.5c-2.1,5.6,7,15-2.2,18.8
					l-2.3-11.4c-0.5-2.6-0.7-5.6-1.8-7.9C343.3,525.6,340.9,518.9,344.3,512.1z M325.4,485.3c9-1.8-5.1,12,1,26.1
					c0.2-7.1,2.3-13.3,5.7-19.9l1.1-2.1c0.2-0.4,1.2-0.2,1.8,0c2.8,0.8-3.8,9.1-2.2,15.8c1.5-3.8,2.9-6.8,6.2-8.8
					c-1.8,20.7-4.7,18.9,2.8,39.3c-9.6-8.2-16.8-18.9-18.6-31.4C322.3,498.4,324.2,490.5,325.4,485.3z M315.3,480.9
					c0.4,10.3,1.3,20,5,30c0.8,2,1.2,4.4,0.3,6.7C313.7,506.2,311.4,493.8,315.3,480.9z M300.7,471.6l8.5,5.8l-1.9,8.5
					c-0.1,0.3-2,1.4-2,1.7l-0.3,13.1C300.5,495.7,299.7,479.7,300.7,471.6z M289.3,461.7c2.1,0.2,1.1,2.2-1,4.8
					C287.2,466.1,287.9,461.5,289.3,461.7z M210.9,549.2c-4.2,2.4-56.7,4.7-59,18.3c-0.5,3.1,0.8,5,2.6,9.1
					c-3.3-1.7-5.7-3.7-8.3-6.6c-2.3-8.5,13.6-12.4,20-14c7.7-2,14.8-3.5,22.8-4.9l21.2-3.7C210.5,547.4,211.3,549,210.9,549.2z
					 M256,565.1c-6.4,0-10,0.3-16.4-1.3c10.1-5.3,10.4-1.6,17.6-11.6L256,565.1z M275.8,570.2c-2.3,0.7-4.9-3.6-4.8-5.4l0.4-11.4
					c-4.8,4.6-2.6,10-4.3,16c-9.8-3.9-4.6-20-3.4-27.8c-5.4,3.2-0.3,2-7.8,9.3c-6.9,6.8-16.5,10.4-25.8,5.8l-3.3-9l-1.7,5.6
					l-1.3-5.3c-3.7,5.2,0.6,10.1,2.7,15c-4.8,0.5-9.7,0.5-14.4-1.8c1.4-6.8,4.6-11.9,8.1-17.4l13.6-21.8
					c5.6-8.9,13.8-15.3,21.5-22.6c6.4-6.1,15.9-9.7,24.5-5.2c4.9,2.6,2.4,19.7,1.4,24.8C277.2,538,286.9,566.7,275.8,570.2z
					 M307.4,588c-2.8-0.6-6.4-1.2-8.6-2.4c-4.1-2.1-3.4-7.1-5.8-11.7l-1.9,12.3c-7.5,0.5-4.3-10.7-7.7-13.3l-1.7,8.9
					c-3.5-15.3,4.2-9.1,7.6-18.3l-2.8,0.2c-1,0.1-0.8-18.7-1-23c-0.4-9.2,0.8-17.7,1.6-26.8c1-11.2-2.8-24.1,1-33.1
					c3.1,6.2,3.6,13.3,10,18.3c3.7,6.7,8.7,13.1,14.3,19.2c4.4,4.8,10.1,12.9,13.4,17.4c0.2,0.3-1.4,1.7-1.2,2l1.3,1.4l1.2,1.2
					c0.2,0.2-0.3,0.7-0.5,1.3c-0.8,1.5-1.9-5.1-9.7-7c-3.2-0.8-5.8-1.3-9.2-1.6l7,4.3c5.6,3.4,14.3,17.1,16.3,20.8l3.7-12.2
					c4.8,1.2,8.2,4,10.4,8.5c-10.4,8-10.5,8-23.1,10.3c-2.9-1.9-5.6-3.5-8.7-4.4l3.8,6.4C309.5,571.8,306.3,579.1,307.4,588z
					 M436.2,530.9c0,9.4,0.8,18,3.2,27.2c0.4,1.4-0.5,2.6-1.2,3.7c-7,11.2-5.8,5.3-24.4,10.7c-10.5,3.1-20.5,4.7-31.4,5.6
					c-5.5,0.4-12.1,0.8-16.9,3.4c-3.9,2.1-18.3,11.5-22.3,7.3c-1.5-1.5-2.1-8.5,2.1-11.4c-6.5-0.4-7.3,5.1-9.8,10.9
					c-1.3,3-8.8,4.6-11.2,2.3c-3.7-3.5,0-8.5,0.2-12.9c-4.1,2.6-4.9,7.2-5,12.2c-1.3,0.3-4.7,0-6-0.8c-1.3-0.9-2.6-3.7-2.6-5.7
					c0.1-6.6,5-12.6,11.3-14.6l14.8-4.6c5.9-1.9,10.8-7.1,16.6-9.6l26.2-11.6c9.5-4.2,18.9-5.7,29.4-6.3c-8.6-2.6-16-1.6-24.8,0.7
					l0.6-12.9l-4,7.3l0.4-8.2c-1.1,1.5-2.2,3.6-2.6,5.5l-1.7,9.2c-6.1-6.1-5.4-12.6-7.6-20.3c-0.9,5.9-0.8,11.2-0.9,17.6
					c-6.4-15.7-4.7-22.4,0.7-37.1c0.8-2.3,0.9-3.6-0.2-6.1c0.8-4.2,9.4-9.4,7.5-12.2l-11.5,9.3c1.1-6,4.8-10,9.4-12.9l8.5-5.4
					c2.1-1.4,4.1-2.8,6-4.3c3.6,7.3,5,14.8,4.3,22.3l2.4-4.6c0.8,4.2-0.1,7.4-1.7,10.8l-6.5,13c5.8-7.2,10.7-13.4,18.4-18.4
					c3.9-2.5,6.5-6.3,9.5-9.4c3.7-3.9,6.3-7,9.3-12.7l-2.6,21.7c2.2-3.2,3.4-6.9,4-10.8l2.3-14.7c5.9,15.4,1.1,30.6,4.5,47.3
					C434.3,517.6,436.2,524,436.2,530.9z M369.7,537.2c1.9,1,3,3,2.4,4.5C370.9,540.1,370.1,538.8,369.7,537.2z"/>
				<path class="st0" d="M281.9,415.3C281.9,415.3,281.9,415.3,281.9,415.3C281.8,415.3,281.8,415.3,281.9,415.3z"/>
				<path class="st0" d="M260.3,423.8L260.3,423.8C260.6,423.2,260.6,423.1,260.3,423.8z"/>
				<path class="st0" d="M279.9,515.6c-3.1,5.3-8.1,15.6-8.4,22.2C278.2,528.6,278.5,527.5,279.9,515.6z"/>
				<path class="st0" d="M332.6,278.7l8.5-4.7l0.4,3.7l21.1,0.1l-11.7-2.3c9.7-2.7,33.2-2.1,40.5,5l-6.9-0.6l17.3,9.2
					c-4,0.1-5.6-1.6-9.5-1.9c5.4,4.3,10.7,6.6,17.4,9.3c-5.5,1.2-13.6-3.6-21.6-2.8c13.4,4.8,26.2,11.7,36.8-1
					c-15.1,0.9-16.6-3.6-25.7-11.9c-5.4-4.9-12-9.7-19-12.5C366.3,262.6,340.9,265.1,332.6,278.7z M366.1,271.2
					c-2,0.4-4.2,0.4-6.7,0C361.4,270.8,363.6,270.8,366.1,271.2z"/>
				<path class="st0" d="M306.8,305.6l1.7-3.2l1.5,3.2c1-6.3,0.8-12.2,3.4-17.6l5.1-10.4c-1.2-0.1-2.1,0-2-0.3
					c3.4-6.7,16.3-11.8,23.3-14.2l-2.9-0.9c10.8-4.1,15-2,25.7-3.7c-11.2-3.3-21.9-2.2-32.6,1.3C309.1,266.7,298,285.7,306.8,305.6z
					"/>
				<path class="st0" d="M332.1,310.6l1.9,2.5c0.3,0.4-1.4,1.9-1.3,1.9l3.5,0.6c0.3,0.1-0.6,0.9-0.8,1.2l-1.9,1.8l7.5,0.7
					c0.4,0,2,0.7,2.4,0.9c0.4,0.2-0.6,1.1-1.2,1.8l6.6,8c3.5-4.9,2.6-17.4,4-16.2l1.4,1.1c0.9-3.5,1.6-9.4-0.4-12.5
					c-6.8-5-14.8-1.4-19.1,3.6l5-1.6l-2.3,5.4l-4.1,1.4l1.9-3.2C333.9,308.3,331.6,309.8,332.1,310.6z"/>
				<path class="st0" d="M329.6,382.7l6.2,1.7c6.2-6.5,11.9-16.2,8.4-24.5c-3.5-8.3-4.3-17.8-9.3-26c3.2,10.6,3.6,26.4,0.3,36.6
					C333.8,374.6,331.2,378.6,329.6,382.7z"/>
				<path class="st0" d="M357.1,279.5c-12.5-2.7-25.8,1.8-32.3,12.5l5.3-3.1c9-8,32-9,35.4,1.9c1,3.2,1.5,6.6,2.2,9.9
					c1.5-3.3,3.4-7.1,3.6-10.5c0.3-5.3-5.4-9.8-9.9-11.4L357.1,279.5z"/>
				<path class="st0" d="M286.9,344.8c10.3-2.2,5.3-2.9,17.8-7.6l-13-1.4c-1.8-0.2-6.7,0.1-6.3-2.4c0.6-3.8,2.1-6.4,0.3-10.2
					l-4.3,5.9c-1.1,1.5-0.1,5.3,0.9,6.9c4.6,7.5-7.5,10.2-9.3,19C276.6,351.2,281,346,286.9,344.8z M289.8,341l1.7-1.8
					c0.4-0.4,1.7-0.7,2.3-0.8c0.6-0.1,0.5,2.2,0,2.4l-2.6,1.4C290.8,342.5,289.5,341.4,289.8,341z"/>
				<path class="st0" d="M305.6,363.9c4-2.7,5.6-8.6,4.2-12.9c-2,4.3-4.2,9.6-8.8,12.5l-8.3,2.9C298.2,368.7,302.5,366,305.6,363.9z
					"/>
				<path class="st0" d="M274.9,328c-1.5,3.9-0.3,6.9,2.4,8.4L274.9,328z"/>
				<path class="st0" d="M430.7,541.7c1.2,7.3-0.6,16.4-7.3,21c-5.5,3.8-12.4,5.5-18.5,8.2c9.1,1.3,18.6-2.1,25.3-8
					c6.6-5.8,4.6-24.5-1.2-31.9L430.7,541.7z"/>
				<path class="st0" d="M369.6,332.6l7,3.6l18,11.3C389.5,338.8,379.9,333.7,369.6,332.6z"/>
			</g>
		</g>
	</g>
</g>
</svg>
