<svg width="86" height="37" viewBox="0 0 86 37" fill="none" xmlns="http://www.w3.org/2000/svg">
<path d="M52.0359 15.79C52.5923 15.879 52.9707 15.7677 53.6161 15.6119C52.9484 16.9028 52.9039 18.216 53.6161 19.4846C53.9277 20.041 53.95 20.6642 53.95 21.3096C53.95 23.2682 54.3506 22.4892 54.2615 23.424C54.1948 24.1362 54.1503 24.8039 54.128 25.5161C54.1058 26.4732 53.9277 27.3634 53.7497 28.3205C53.4381 30.012 53.7942 30.1455 53.1487 32.5715C53.0374 32.9721 53.171 33.662 53.4603 33.9514C53.8164 34.3075 54.3951 34.3075 54.8847 34.3965L57.8671 34.9084C58.6238 35.042 59.3806 35.0865 60.1596 35.131C62.1404 35.22 62.1849 36.3106 64.0767 36.4886C64.8779 36.5554 65.6124 36.6222 66.4137 36.5332C66.703 36.4886 67.0368 36.2661 67.3262 36.1993C68.3055 35.9545 70.0415 36.6667 71.1543 35.4426C71.3101 35.2868 71.3769 34.8194 71.4437 34.5523L73.6025 34.0404L77.2971 33.6843C78.0984 33.5953 78.8106 33.3727 79.6563 33.4618C80.5021 33.5508 81.8597 33.4617 82.6832 33.2837C82.2159 33.1724 81.7485 33.0166 81.2588 32.9944L78.8774 32.9276C78.8106 32.705 78.7661 32.4157 78.8329 32.1931C79.7231 32.3712 84.2189 32.9944 84.2189 33.7511C84.2412 35.0865 78.1874 35.22 77.0746 35.4871C78.8106 36.0658 85.955 35.9322 85.9995 33.6621C86.0217 32.527 84.7086 32.1041 83.6625 31.8148C82.6387 31.5477 81.6817 31.3251 80.6356 31.1693L78.0539 30.7687C77.542 30.101 77.1636 29.411 76.7185 28.7211C75.8505 27.3857 74.6931 26.2506 73.3577 25.3826C72.601 24.8929 71.7107 24.8484 70.7982 25.1823C70.8427 23.9359 70.7982 22.7563 70.6424 21.5099C70.5979 21.2429 70.6424 21.0203 70.8205 20.7087L70.9318 21.1983C71.1543 20.5307 71.5104 19.7072 71.1543 18.9727L70.5756 17.7486L71.3546 18.4163C71.5104 18.5498 71.733 18.6611 71.7998 18.8837L72.0223 19.5959L72.3784 19.0617L72.5342 19.3733L72.8236 18.9059L72.9349 19.1953L73.6471 18.2827L73.7138 18.8837C73.8696 18.6166 74.0699 18.1269 74.3147 17.9711C74.7821 17.7931 74.7821 17.2812 74.6709 16.8806L74.426 15.879C75.5389 15.1223 75.2495 14.1207 75.7392 13.1192C75.895 12.7854 75.9172 12.3625 75.6724 12.0509C75.027 11.1606 74.3148 10.3149 73.5135 9.55814C72.3562 8.44531 73.6916 8.06696 72.1114 6.75382L72.0446 5.84129L71.4437 5.30714C72.3339 4.77298 72.512 3.61562 71.7552 2.90341C71.7998 3.5266 71.8665 4.10528 71.3769 4.52815C71.0653 4.79523 70.6202 4.97328 70.1528 5.06231L70.6202 4.72846C71.3101 4.12753 71.9556 2.41377 70.9095 1.72381C71.1098 2.23572 71.0653 2.79213 70.6869 3.23726C70.7314 2.36925 70.7314 1.50125 69.997 0.878065L70.4198 1.76833C70.7537 2.81439 70.2863 3.94948 69.3738 4.59492C69.5296 3.88271 69.7299 3.28178 69.6854 2.63634C69.5741 1.25643 68.2832 0.499706 66.9701 0.254883L67.9716 0.789033C68.0161 0.81129 68.1719 0.878065 68.1719 0.878065C68.1719 0.878065 68.0607 0.967092 68.0384 0.989348C67.9049 0.944835 67.7491 0.878062 67.5933 0.833549C70.5089 2.74762 67.5933 5.59647 68.6838 5.04005L68.9954 4.88426L69.9079 5.32939C70.7982 5.75226 71.4659 6.53125 72.1559 7.19895C73.3132 8.28952 72.0001 8.4008 73.2464 9.62491C73.6693 10.0478 75.895 12.2512 75.6279 12.6741C75.5611 12.7631 75.3386 12.8744 75.2273 12.8744L74.2702 12.8299C74.0032 12.8744 73.7361 12.9412 73.5803 12.8744C73.3132 12.7408 73.2464 12.5628 73.1352 12.2735C72.8681 13.5866 74.4038 12.7408 74.5596 14.143C74.7154 15.4561 72.5787 16.2129 71.3101 16.1016L71.3769 15.7455L70.9985 15.8122C71.4437 15.0333 72.2226 15.5452 72.5342 15.0778L71.6217 15.1445V14.8997C71.6217 14.8552 71.4659 14.8997 71.4214 14.8997L70.9763 14.922C70.8872 14.922 70.776 14.6772 70.7982 14.5214C71.5327 14.7217 72.1336 14.7662 72.7791 14.5881C72.0001 14.4546 71.2656 14.6994 70.6869 14.1207C71.5104 14.143 72.2004 14.1875 72.9126 14.143C72.1113 14.054 71.4214 14.0762 70.6869 13.8092L70.865 13.4085C70.6202 13.5198 70.5311 13.7869 70.4644 14.0762L69.6854 14.143L70.4198 14.2098C70.4644 14.232 70.5311 14.4546 70.4644 14.4768L70.1973 14.6104L70.6869 14.7662C70.4198 15.011 70.2195 15.0778 69.8857 15.1891L70.6869 15.1445C70.264 15.3226 69.7299 15.5897 69.7076 16.0793C69.6854 16.5467 70.2418 16.6135 70.5979 16.569L72.0891 16.3687C72.779 16.2796 73.4245 15.9235 74.1144 15.6565C74.2257 15.9681 74.3593 16.5022 74.2925 16.7693L74.0699 17.5038L73.9141 17.2367C73.7138 17.615 73.5135 17.9266 73.3132 18.1937L73.1797 17.9711C73.1797 17.9711 73.1797 17.9711 73.1797 17.9489L72.6233 18.5276L72.5787 17.8599L72.3784 18.4608L72.1781 17.9489L72.0668 18.3718L71.8665 17.6818L71.6662 18.0824L71.5995 17.5928L71.4214 17.7041C71.3769 17.7486 71.3324 17.5483 71.2879 17.4815C71.1098 17.3925 70.9763 17.2367 70.865 17.0141C70.865 17.0364 70.8205 17.1031 70.7982 17.1254C70.776 17.1476 70.6869 17.1922 70.6869 17.1476L70.5979 16.8583C70.2641 16.9028 69.9302 16.7248 69.6631 16.4354L69.5741 16.7025L69.1957 15.879C69.0399 15.9013 68.9509 15.9235 68.9287 15.879L68.8396 15.6342L68.5948 15.9235L68.6393 15.3449L68.3945 15.5452L68.5503 14.922L68.4167 14.9888C68.35 15.011 68.3055 15.011 68.3055 14.9888V14.6994C68.3055 14.5436 68.3055 14.3656 68.35 14.1875C67.9939 13.4753 67.393 12.8299 66.8143 12.2735C66.0798 11.5612 66.0575 10.6487 65.8572 9.73619C65.7682 9.33558 65.6569 9.04624 65.7682 8.46756C64.9447 10.3371 65.5457 12.2067 66.7253 13.9872C67.571 15.2781 67.1481 16.2796 67.5265 17.3925L67.571 16.5467L68.4613 19.5514C68.439 19.8184 68.3945 20.2191 68.4167 20.5307C68.7729 20.13 68.8174 19.6626 68.9287 19.1953L69.0177 19.7962L69.1735 19.3956L69.2402 20.2858L69.4406 19.3956L69.5518 19.7072L69.8412 18.8169L69.9747 19.4178C70.0637 19.084 70.0637 18.7946 70.0415 18.4385L70.1973 18.8392C70.2195 18.8614 70.2863 18.9727 70.2863 18.9727C70.2863 18.9727 70.3531 18.9282 70.4644 18.8614C70.6647 19.3065 70.8427 19.863 70.5311 20.4194L70.2863 19.262C69.997 20.4861 69.6631 21.6212 68.6838 22.4447L69.1957 20.6864C68.7951 21.4209 68.3945 22.0886 67.6823 22.6673L67.9939 21.1538C67.7713 21.6435 67.5933 22.1109 67.1704 22.5337C67.2817 21.9328 67.6378 21.5767 67.6378 21.0425C67.3929 21.4654 67.2594 21.9996 66.9033 22.3334L66.0576 23.1792C65.9685 23.246 65.746 23.2237 65.6347 23.1569C65.3231 23.3572 64.8779 23.6688 64.5664 23.9582C64.277 24.2253 64.188 24.6259 63.7874 24.8262C64.4106 23.8691 64.6999 23.0234 64.5664 21.9551C64.5441 21.7103 64.5441 21.3764 64.4551 21.1316L64.0322 20.1078C64.0322 19.3065 64.3215 18.483 64.0322 17.7041C63.8096 17.1031 63.498 16.4354 63.0529 15.968L62.5633 15.4561C62.3184 15.1891 62.4075 14.7662 61.9623 14.6326L63.6093 17.6818C63.4313 17.615 63.3868 17.526 63.2532 17.3257L63.4535 18.1492L63.7429 19.2843C63.7874 19.4401 63.8764 19.5959 63.8096 19.7294C63.6984 19.6626 61.7398 17.2589 61.6953 17.7708L61.673 18.0157L60.6937 16.7915C60.6715 16.7693 60.6047 16.5467 60.6269 16.5467L60.7605 16.5022C60.3376 15.3671 60.0928 14.0317 60.2931 12.9189C59.4028 14.8107 60.7605 15.9235 60.4489 16.3464C60.4044 16.4132 60.2041 16.2796 60.1596 16.1906C59.4473 14.7662 59.4919 13.1192 60.2486 11.7393L60.2263 12.2957C60.5602 11.6725 61.4727 10.5152 62.1849 9.86974L62.0291 10.8935C61.9623 11.3387 61.7843 11.9619 61.8956 12.407C62.2739 14.232 64.6331 16.1461 65.9018 18.6834C66.4137 19.7072 66.1688 20.7532 65.5234 21.6435C66.4804 20.82 66.5027 19.9297 66.5695 18.7501C66.792 19.6181 66.5695 20.3749 66.1466 21.3319C66.3469 21.1538 66.5249 20.9313 66.7253 20.6864C66.8143 21.3541 66.3246 21.6657 65.9018 22.2222C67.571 21.1761 67.5933 18.5276 66.3246 16.9696L65.1005 15.4561V15.0778C64.0099 14.1207 63.6538 12.8076 63.32 11.4722C63.0529 10.4039 62.9416 10.0478 63.6093 8.71239L64.0545 7.82213L63.3422 8.13372C62.8971 7.55504 62.452 6.93187 62.3407 6.1974C62.2294 5.55196 62.2962 4.77297 62.7858 4.32784C63.4313 3.74917 64.4106 3.88271 65.1005 4.37236C65.5679 4.7062 65.746 5.06231 65.9685 5.61872L66.0798 4.83974C66.4137 5.01779 66.614 5.17359 66.9256 5.46292C66.9033 5.3739 66.8588 4.99554 66.7698 4.88426C66.2801 4.26107 64.7222 3.5266 63.7651 3.50434C61.9623 3.48209 62.2072 4.99554 61.4504 5.17359L61.3837 4.95102L59.8257 5.70775C59.2915 5.97483 58.5793 6.06386 58.0229 6.0416C58.8909 5.64098 60.4266 5.44067 61.0498 4.66169C60.7382 4.61718 60.3376 4.66169 59.9815 4.77297L58.0674 5.35164C56.9546 5.68549 56.1089 6.50899 55.6415 7.5328C56.9769 6.30868 57.8226 6.06386 59.5809 6.53125L58.9354 6.62027C59.4028 6.86509 60.1596 6.30868 60.8718 6.30868C60.6492 6.55351 60.3821 6.73156 60.0483 6.8651C59.0467 7.24346 57.1327 8.37854 56.3759 9.11301C56.8211 9.17978 56.8656 8.66788 57.2884 8.77916C56.8433 9.24655 56.6207 9.69168 56.3982 10.2481C56.0643 11.1161 55.775 11.9619 56.0643 12.8299L56.1311 12.5628C56.1311 12.5183 56.1979 12.4738 56.2646 12.407L56.3314 13.8092C56.3759 14.7217 55.9308 15.6342 55.3744 16.3242C55.5524 15.3894 55.9308 15.1 56.0866 14.143C55.9753 14.3211 55.775 14.5214 55.7305 14.6549L54.7289 16.9696C54.5286 17.437 54.4619 17.9044 54.3951 18.3495C54.1948 17.3257 54.7289 16.4354 55.0628 15.4339C54.4396 16.0793 54.1948 16.9028 53.9945 17.7708C53.8832 16.9919 54.3506 16.3242 54.5286 15.5229L54.0835 16.1461C54.1058 15.8345 54.1948 15.5674 54.3506 15.3671C54.9515 14.5214 55.4189 13.6979 55.6637 12.6741L55.4189 12.9634L55.3744 12.6741L55.0183 13.186V12.7854C54.6844 13.2973 54.4396 13.7869 53.9945 14.2765L54.4619 12.6741C54.7735 11.6058 55.2186 10.6265 55.9976 9.78071L56.1311 9.11301L55.5747 9.29106C55.775 8.84593 56.1311 8.69014 56.5095 8.44531L57.5333 7.77761L55.775 8.48983L56.1088 7.97793L54.5064 9.0685L54.907 8.06695C55.1741 7.42151 55.4411 6.68704 55.9308 6.15288C56.8656 5.08457 58.3345 4.59492 59.7367 4.52815C60.0928 4.5059 60.4044 4.48364 60.7382 4.41687C59.6031 4.14979 58.5793 4.52814 57.4888 4.68394C55.9308 4.90651 54.6177 5.95257 54.5064 7.51053C54.6844 7.17668 54.7735 6.84283 55.1296 6.62027C54.3951 8.20049 54.3506 9.29107 52.7926 9.98102C53.2155 10.0701 53.6384 10.0255 54.1503 9.91424C53.6829 10.9158 53.5048 11.8728 53.4603 12.9189C53.2823 14.5881 53.2823 14.8107 52.0359 15.79ZM58.0897 5.64099C58.7796 5.30714 59.4696 5.08456 60.2041 4.99554C59.4919 5.26262 58.8019 5.48519 58.0897 5.64099ZM66.8588 18.7056C66.9033 18.9282 66.9033 19.1285 66.8588 19.3065C66.8143 19.0617 66.8143 18.8614 66.8588 18.7056ZM64.2548 21.1316L64.4551 21.4654C64.4773 21.5099 64.2993 21.5767 64.2993 21.5545L64.188 21.2651C64.188 21.1983 64.277 21.0648 64.2548 21.1316ZM67.8381 14.4768L67.1926 13.2082L67.8826 13.9649C67.9271 14.0317 68.0384 14.1653 68.0606 14.2543C68.0829 14.2988 67.9049 14.4546 67.8381 14.4768ZM70.3531 15.79L70.954 15.3671C70.6647 15.1891 71.2211 15.2558 71.2879 15.3003C70.9095 15.5452 70.7092 15.7232 70.3531 15.79ZM70.7314 5.24036C71.9778 4.5504 71.7552 4.59492 71.8665 3.41532C71.911 3.54886 72.0446 3.86045 72.0223 4.01624C71.9778 4.66168 71.3324 5.24036 70.7314 5.24036ZM71.733 6.53125C71.644 6.15289 71.6217 5.95257 71.3324 5.79677C71.3101 5.79677 71.2433 5.66324 71.2211 5.64099C71.4437 5.66324 71.6662 5.79677 71.7552 5.95257C71.8443 6.06385 71.822 6.41997 71.733 6.53125ZM75.0937 14.0095C75.027 14.4991 74.9602 15.011 74.4705 15.3894C74.3593 14.8107 74.6931 14.4101 75.0937 14.0095ZM70.3531 18.5276C70.1305 18.216 69.9525 17.8821 70.0637 17.5483C70.4866 18.0379 70.6869 18.5943 70.8205 19.173L70.3531 18.5276ZM55.6192 22.3779C55.2853 21.2874 55.1073 21.1984 55.5524 20.3303C55.3744 21.6435 56.0866 21.6657 55.6192 22.3779ZM57.3107 16.3909L57.9561 17.6818C58.0452 17.8376 58.201 18.0824 58.2677 18.216C58.5126 18.8837 58.2232 19.863 57.8449 20.4639C57.1994 21.4877 56.7098 22.4225 56.5985 23.6688C55.4189 22.9344 55.9308 21.8215 56.3982 20.8645L56.5095 21.3096C57.6445 19.2175 57.5555 18.6834 57.3107 16.3909ZM56.6207 17.9266C56.5762 18.7501 56.3537 19.3956 56.0421 20.0633C55.8418 19.3065 55.9308 18.4385 56.6207 17.9266ZM59.247 10.9826L58.8464 11.7393C58.379 12.6073 58.0674 13.5866 58.29 14.4991L58.4458 13.8982C58.5348 14.8775 58.6016 15.79 59.1135 16.7025C59.247 16.9251 59.3583 17.2144 59.3806 17.4815C58.0897 16.6803 57.8449 14.9442 57.4665 13.8092L57.3552 14.1207L57.2439 13.6979L57.1327 14.232C56.9323 13.6756 57.0214 13.2305 57.1104 12.7186L57.2662 11.8951C56.6875 12.7186 56.8433 13.6534 56.7988 14.6326C56.6875 14.9665 56.4204 15.3894 56.1979 15.6787C56.7765 12.7186 56.1534 11.3164 58.4681 9.02398C58.9132 8.57885 59.2248 8.20049 59.8257 7.95567C60.3599 7.7331 61.0943 7.4215 61.6953 7.46602C61.762 7.46602 61.8065 7.71085 61.7398 7.75536L61.5172 7.93341C61.7843 7.95567 62.0736 8.00018 62.3407 8.11146C61.3169 8.48983 59.9815 9.09075 59.1803 9.73619C59.1357 9.78071 59.2248 10.0478 59.247 10.0033C59.2693 9.98102 59.3806 9.84748 59.4251 9.82523L61.7843 8.69013C61.762 9.09075 61.2724 9.11301 61.0276 9.33558C60.7605 9.55814 60.5379 9.71394 60.1818 9.62491C59.7589 9.9365 59.4919 10.4929 59.247 10.9826ZM62.9194 19.2175C62.6746 19.173 62.5633 19.0617 62.63 18.8614L62.9194 19.2175ZM63.6761 23.0456C63.32 22.2667 62.9194 21.5322 62.0959 21.1093C61.8956 21.599 63.1419 21.9106 63.0752 23.424C62.63 23.0902 62.3184 22.8231 61.762 22.556L61.9401 23.1792C61.9178 23.2237 61.762 23.3572 61.7175 23.2905L61.4727 23.0456C61.4059 22.9789 61.3391 22.8676 61.2946 22.8899L61.1388 22.9789L60.3376 22.3557L60.4044 22.6895L59.5586 22.4447L59.8702 21.777L59.0912 22.5115C59.2248 22.1331 59.3806 21.9773 59.6031 21.6435C58.3568 22.4225 58.0229 23.9137 58.1565 25.2491L57.0436 24.3588L57.1994 23.2905C57.3552 22.2667 59.158 20.13 59.158 18.5276C60.2041 19.6626 61.0053 20.9758 60.8272 22.3779C61.1166 21.9106 61.4059 21.1983 61.0943 20.6419L60.0705 18.8169C60.4044 19.0617 60.6269 19.3288 60.8495 19.5959L60.8272 18.995C61.9623 20.0188 63.7874 21.5099 63.6761 23.0456ZM62.0514 26.6957L61.7175 25.8722C62.0291 26.0725 62.0959 26.3619 62.0514 26.6957ZM63.8096 29.6559C63.6761 29.9007 63.6761 30.2345 63.6093 30.5016L63.3645 31.7257C62.363 31.3251 63.3422 30.3013 63.1197 29.7004L62.6745 30.3903C62.7413 29.9229 62.8081 29.5446 62.8971 29.144L63.0307 29.5668L63.4535 28.8769L63.3422 30.1233C64.1212 28.6766 63.9209 28.9659 64.0099 27.5192C64.3883 28.2537 64.1435 28.9882 63.8096 29.6559ZM66.3024 26.6735C66.1021 28.0311 65.3453 29.1662 64.2993 30.0565C65.1228 27.8531 64.8112 28.0534 64.6109 25.8277C64.967 26.0503 65.1228 26.3619 65.2786 26.7848C65.4566 26.0726 64.7444 25.16 65.0338 25.0933C65.1005 25.071 65.2118 25.0487 65.2341 25.0933L65.3453 25.3158C65.7014 26.028 65.9463 26.6957 65.9685 27.4747C66.614 25.9613 65.1005 24.4701 66.0798 24.6704C66.1911 25.2045 66.3914 26.0503 66.3024 26.6735ZM66.5695 28.0979C66.4804 27.8531 66.5249 27.6082 66.614 27.3857C67.0146 26.3174 67.1036 25.2713 67.1481 24.1585C67.571 25.5384 67.3262 26.8738 66.5695 28.0979ZM68.261 26.2951L68.2164 24.893C68.2164 24.8707 68.0161 24.7371 67.9939 24.7149L67.7936 23.8024L68.7061 23.1792C68.8396 24.0249 68.7506 25.761 68.261 26.2951ZM70.0637 22.6005C69.8412 22.3334 69.7299 22.1109 69.9525 22.0886C70.1083 22.0664 70.175 22.556 70.0637 22.6005ZM78.4767 31.3251L80.7692 31.7257C81.6372 31.8815 82.3939 32.0373 83.2397 32.2599C83.9296 32.4379 85.6434 32.8608 85.3986 33.7733C85.1315 34.0849 84.8644 34.3075 84.5083 34.4855C84.6863 34.0404 84.8421 33.8401 84.7754 33.5063C84.5305 32.0373 78.8774 31.7925 78.41 31.5477C78.3655 31.5032 78.4545 31.3251 78.4767 31.3251ZM73.4245 31.8593C74.2035 32.9276 74.2257 32.527 75.3163 33.1056C74.6263 33.2837 74.2257 33.2392 73.5358 33.2392L73.4245 31.8593ZM70.8427 28.2759C70.7314 27.7195 70.4644 25.8722 70.9985 25.6052C71.911 25.1155 72.9348 25.5161 73.6471 26.1616C74.4705 26.9406 75.3608 27.6305 75.9617 28.5875L77.4307 30.9245C77.809 31.5254 78.1429 32.0818 78.2987 32.7941C77.7868 33.0389 77.2749 33.0611 76.7407 32.9944C76.9633 32.4825 77.4307 31.9483 77.0301 31.3919L76.8965 31.9706L76.7185 31.3696L76.3624 32.3489C75.3608 32.8386 74.3148 32.4379 73.5803 31.7257C72.779 30.9467 73.3355 31.0803 72.7345 30.7242C72.8681 31.5699 73.4245 33.3059 72.3784 33.7288C72.2004 33.0834 72.4229 32.5047 71.911 31.9928L71.9556 33.2169C71.9556 33.4172 71.6885 33.8846 71.4437 33.7956C70.2195 33.395 71.2656 30.3236 70.8427 28.2759ZM66.9701 33.3727L67.3929 32.6828C67.0591 32.7718 66.7698 32.9498 66.4582 33.1724C65.1005 32.9276 65.0783 32.9276 63.9654 32.0596C64.2102 31.5699 64.5664 31.2806 65.0783 31.1471L65.4789 32.4602C65.7015 32.0596 66.6362 30.5906 67.2372 30.2123L67.9939 29.7449C67.6155 29.7671 67.3484 29.8339 67.0146 29.9229C66.1688 30.1233 66.0575 30.8355 65.9685 30.6797C65.9463 30.6129 65.8795 30.5684 65.9018 30.5461L66.0353 30.4126L66.1688 30.2568C66.1911 30.2345 66.013 30.0787 66.0353 30.0342C66.3914 29.5446 66.9923 28.6766 67.482 28.1647C68.0829 27.5192 68.6171 26.8293 69.0177 26.0948C69.7076 25.5606 69.7521 24.8039 70.086 24.1362C70.4866 25.0933 70.086 26.4954 70.1973 27.6973C70.2863 28.6766 70.4199 29.5891 70.3753 30.5906C70.3531 31.0358 70.3753 33.0834 70.2641 33.0611L69.9747 33.0389C70.3308 34.0182 71.1766 33.3727 70.7982 35.0197L70.6202 34.0627C70.2641 34.352 70.5979 35.5539 69.7967 35.4871L69.5964 34.1517C69.3515 34.6413 69.4183 35.1755 68.9732 35.4203C68.7283 35.5539 68.35 35.5984 68.0384 35.6651C68.1274 34.7526 67.7713 33.9514 66.9701 33.3727ZM54.4841 27.4079C54.8402 25.6052 54.3283 23.9804 54.9738 22.3112L55.2186 23.8914C55.2854 24.3143 55.4189 24.7149 55.6415 25.0487L55.3744 22.7118C55.7082 23.335 55.9753 23.6688 56.3759 24.0917C56.7098 24.4256 56.9769 24.8262 57.3997 25.1155C58.2455 25.6497 58.7574 26.3396 59.3806 27.0963L58.6906 25.6942C58.5126 25.3381 58.4235 24.982 58.5126 24.5368L58.7796 25.0265C58.6906 24.2253 58.8464 23.4018 59.247 22.6228C59.4696 22.7786 59.6699 22.9344 59.8925 23.0902L60.805 23.6688C61.3169 23.9804 61.7175 24.4256 61.8288 25.0487L60.5824 24.0472C60.3821 24.3365 61.2946 24.9152 61.3837 25.3603C61.2724 25.6274 61.2724 25.7832 61.3614 26.028C61.9401 27.6083 62.1181 28.3427 61.4282 30.0342C61.4282 29.3443 61.4282 28.7656 61.3391 28.1424C61.0943 28.9659 61.1833 29.6781 60.5157 30.3236L60.3376 29.3443C60.2931 29.144 60.1818 28.8991 60.0483 28.7433L60.0928 29.6336L59.6699 28.8324L59.7367 30.2123C58.7796 29.9675 57.9784 29.8562 57.0659 30.1233C58.201 30.19 59.2025 30.3458 60.2263 30.8132L63.0529 32.0596C63.6761 32.3267 64.2103 32.9053 64.8334 33.1056L66.4359 33.5953C67.1036 33.8178 67.6378 34.441 67.66 35.1755C67.66 35.3981 67.5265 35.6874 67.3929 35.7987C67.2594 35.8877 66.9033 35.91 66.7475 35.8877C66.7475 35.3536 66.6362 34.8417 66.2134 34.5746C66.2356 35.042 66.614 35.5761 66.2356 35.9545C65.9685 36.1993 65.1673 36.0213 65.0338 35.7097C64.7667 35.0865 64.6776 34.5078 63.9877 34.5301C64.4328 34.8417 64.3661 35.5984 64.2103 35.7542C63.7651 36.2216 62.2294 35.1978 61.8065 34.9752C61.2946 34.6859 60.5824 34.6636 59.9815 34.6191C58.8019 34.5301 57.7336 34.352 56.5985 34.0182C54.5954 33.4395 54.7289 34.0627 53.9722 32.8608C53.9054 32.7495 53.7942 32.616 53.8387 32.4602C54.1057 31.4587 54.1725 30.5461 54.1948 29.5223C54.128 28.8101 54.3283 28.1202 54.4841 27.4079ZM61.0276 30.7019C60.9608 30.5461 61.0943 30.3236 61.2946 30.2123C61.2501 30.3903 61.1611 30.5461 61.0276 30.7019Z" fill="white"/>
<path d="M73.0911 18.0174C73.0461 17.9273 73.0461 17.9499 73.0911 18.0174V18.0174Z" fill="white"/>
<path d="M70.9763 27.8984C71.3102 28.4771 71.8443 29.5677 71.8666 30.2799C71.1544 29.3006 71.1099 29.1893 70.9763 27.8984Z" fill="white"/>
<path d="M60.1598 1.25631C59.403 1.56791 58.6908 2.07981 58.1122 2.59171C57.1329 3.48198 56.9548 3.97162 55.3301 3.88259C56.4874 5.24025 57.8451 4.50578 59.2918 3.99388C58.4237 3.90485 57.5557 4.41675 56.9548 4.28321C57.6893 3.99387 58.2457 3.74905 58.8244 3.28166C58.4015 3.32617 58.2234 3.50423 57.8006 3.48198L59.6701 2.48043L58.9357 2.5472C59.7146 1.79047 62.2519 1.7237 63.2979 2.01303L62.0293 2.25786H64.2995L64.344 1.85725L65.2565 2.36915C64.3885 0.900209 61.6732 0.633129 60.1598 1.25631ZM62.4077 1.5679C62.1406 1.61241 61.8958 1.61241 61.6955 1.5679C61.9626 1.52339 62.1851 1.52339 62.4077 1.5679Z" fill="white"/>
<path d="M68.0609 5.26174L67.8828 4.9279L67.727 5.284C67.6157 4.6163 67.638 3.97086 67.3487 3.39218L66.7923 2.2571C66.9258 2.23485 67.0148 2.25709 66.9926 2.23484C66.6365 1.52263 65.2343 0.966219 64.4776 0.69914L64.7892 0.610108C63.6318 0.164976 63.1644 0.387545 62.0071 0.209492C63.2089 -0.146614 64.3663 -0.0130798 65.5236 0.343026C67.8383 1.07749 69.0179 3.12511 68.0609 5.26174Z" fill="white"/>
<path d="M65.3455 5.8196L65.1452 6.08668C65.123 6.13119 65.301 6.28698 65.2788 6.28698L64.9004 6.35375C64.8559 6.35375 64.9672 6.46504 64.9894 6.4873L65.1897 6.6876L64.3885 6.77663C64.344 6.77663 64.1659 6.84341 64.1437 6.86566C64.0992 6.88792 64.2104 6.97694 64.2772 7.06596L63.565 7.93398C63.1866 7.39982 63.2757 6.06442 63.1199 6.1757L62.9641 6.28698C62.875 5.90862 62.786 5.26318 63.0086 4.95159C63.7431 4.41743 64.6111 4.79579 65.0784 5.3522L64.5443 5.17415L64.7891 5.75283L65.2342 5.90862L65.0339 5.57477C65.1452 5.55251 65.4123 5.73057 65.3455 5.8196Z" fill="white"/>
<path d="M65.6127 13.5873L64.945 13.7654C64.2773 13.0532 63.6541 12.0293 64.0325 11.1168C64.4108 10.2266 64.4998 9.20276 65.034 8.3125C64.7002 9.44759 64.6556 11.1613 64.9895 12.2519C65.1675 12.7193 65.4346 13.1422 65.6127 13.5873Z" fill="white"/>
<path d="M62.6525 2.45926C63.9879 2.16992 65.4346 2.65957 66.1245 3.81692L65.5459 3.48307C64.5666 2.61506 62.0961 2.50377 61.74 3.68337C61.6287 4.01722 61.5842 4.39559 61.4952 4.7517C61.3394 4.39559 61.1391 3.97271 61.1168 3.6166C61.0946 3.03793 61.6955 2.54829 62.1851 2.39249L62.6525 2.45926Z" fill="white"/>
<path d="M71.7331 10.6043C71.5551 9.64725 70.2419 9.35791 70.7316 8.55667C70.8429 8.37862 70.9542 7.978 70.8206 7.8222L70.3532 7.17676C70.1529 7.57738 70.331 7.86672 70.3977 8.26734C70.4423 8.53442 69.9081 8.51216 69.73 8.53442L68.3279 8.6902C69.6633 9.20211 69.1291 9.26888 70.2419 9.5137C70.8429 9.62498 71.3325 10.1814 71.7331 10.6043ZM69.7523 9.22437L69.4852 9.06857C69.4407 9.04631 69.4185 8.77923 69.4852 8.80149C69.552 8.82374 69.6855 8.84601 69.73 8.89052L69.9081 9.09083C69.9304 9.13535 69.7968 9.24663 69.7523 9.22437Z" fill="white"/>
<path d="M68.1942 11.5606C67.7713 11.2712 67.5933 10.6258 67.7491 10.1807C67.9494 10.6481 68.2165 11.2267 68.7061 11.5383L69.5964 11.8499C68.9955 12.0725 68.5281 11.7831 68.1942 11.5606Z" fill="white"/>
<path d="M71.5107 7.68945C71.6665 8.11233 71.533 8.42393 71.2437 8.60198L71.5107 7.68945Z" fill="white"/>
<path d="M54.729 30.7249C54.5955 31.5039 54.7958 32.4832 55.508 32.9951C56.1089 33.418 56.8434 33.596 57.5111 33.8854C56.5318 34.0189 55.508 33.6628 54.7958 33.0174C54.0836 32.3942 54.3061 30.3688 54.9293 29.5898L54.729 30.7249Z" fill="white"/>
<path d="M61.3171 8.17871L60.5604 8.55708L58.624 9.78119C59.1582 8.84641 60.2043 8.31225 61.3171 8.17871Z" fill="white"/>
<path d="M32.5394 12.9853C32.4949 11.917 32.2946 10.96 31.8495 9.98066C32.3614 10.0919 32.7843 10.1587 33.2071 10.0474C31.6492 9.37973 31.6047 8.26689 30.8702 6.68667C31.2263 6.90924 31.3153 7.24309 31.4934 7.57694C31.3821 6.01898 30.069 4.97293 28.511 4.75036C27.4204 4.59456 26.3966 4.2162 25.2615 4.48328C25.5954 4.55005 25.907 4.5723 26.2631 4.59456C27.6875 4.68359 29.1342 5.17323 30.069 6.21929C30.5363 6.75345 30.8257 7.48791 31.0928 8.13335L31.4934 9.1349L29.8909 8.04434L30.2248 8.55623L28.4665 7.84402L29.4903 8.51172C29.8686 8.75654 30.2247 8.93459 30.4251 9.35747L29.8686 9.17942L30.0022 9.84712C30.7589 10.6929 31.2263 11.6722 31.5379 12.7405L32.0053 14.343C31.5601 13.8533 31.3153 13.3637 30.9815 12.8518V13.2524L30.6254 12.7405L30.5809 13.0298L30.336 12.7405C30.5809 13.7643 31.026 14.5878 31.6492 15.4335C31.805 15.6561 31.894 15.9009 31.9163 16.2125L31.4711 15.5893C31.6492 16.3906 32.0943 17.0583 32.0053 17.8372C31.805 16.9692 31.5602 16.1457 30.937 15.5003C31.2708 16.5018 31.7827 17.3699 31.6047 18.4159C31.5379 17.9485 31.4711 17.5034 31.2708 17.036L30.2693 14.7213C30.2025 14.5878 30.0244 14.3652 29.9132 14.2094C30.069 15.1665 30.4473 15.478 30.6254 16.3906C30.069 15.7006 29.6238 14.7881 29.6683 13.8756L29.7351 12.4734C29.8019 12.5402 29.8686 12.5847 29.8686 12.6292L29.9354 12.8963C30.2248 12.0283 29.9354 11.1825 29.6016 10.3145C29.379 9.7581 29.1564 9.31296 28.7113 8.84557C29.1342 8.73428 29.1787 9.24619 29.6238 9.17942C28.8894 8.44495 26.953 7.30987 25.9515 6.9315C25.6176 6.79797 25.3506 6.61991 25.128 6.37509C25.8402 6.37509 26.5969 6.9315 27.0643 6.68667L26.4189 6.59766C28.1771 6.13027 29.0229 6.37509 30.3583 7.5992C29.8909 6.5754 29.0452 5.75191 27.9323 5.41806L26.0183 4.83938C25.6621 4.7281 25.2393 4.68358 24.9499 4.7281C25.5731 5.50708 27.0866 5.68513 27.9768 6.10801C27.4204 6.13026 26.7082 6.01898 26.174 5.77416L24.6161 5.01743L24.5493 5.23999C23.7926 5.06194 24.0374 3.54849 22.2346 3.57075C21.2776 3.59301 19.7196 4.32748 19.23 4.95066C19.141 5.06194 19.0964 5.41806 19.0742 5.52934C19.3858 5.24001 19.5861 5.0842 19.9199 4.90615L20.0312 5.68513C20.276 5.15097 20.4318 4.77261 20.8992 4.43876C21.5892 3.94912 22.5685 3.81557 23.2139 4.39425C23.7036 4.83938 23.7703 5.61836 23.659 6.26381C23.5478 6.99827 23.1026 7.62146 22.6575 8.20013L21.9453 7.88854L22.3904 8.7788C23.0581 10.1365 22.9246 10.4703 22.6798 11.5386C22.3459 12.874 21.9898 14.1872 20.8992 15.1442V15.5226L19.6751 17.036C18.4065 18.594 18.4287 21.2202 20.098 22.2886C19.6751 21.7322 19.1855 21.4206 19.2745 20.7529C19.4525 20.9977 19.6529 21.2425 19.8532 21.3983C19.4303 20.4413 19.2077 19.6845 19.4303 18.8165C19.4971 19.9961 19.5193 20.9086 20.4764 21.7099C19.8087 20.8196 19.5638 19.7958 20.098 18.7498C21.3666 16.2125 23.7481 14.2762 24.1042 12.4734C24.1932 12.0283 24.0374 11.4051 23.9706 10.9599L23.8148 9.93615C24.5493 10.5816 25.4396 11.7389 25.7734 12.3621L25.7512 11.8057C26.5079 13.1856 26.5747 14.8326 25.8402 16.257C25.7957 16.3238 25.5954 16.4796 25.5509 16.4128C25.2393 15.9899 26.6192 14.8771 25.7067 12.9853C25.907 14.0981 25.6399 15.4335 25.2393 16.5686L25.3728 16.6131C25.4173 16.6354 25.3506 16.8357 25.306 16.8579L24.3267 18.0821L24.3045 17.8372C24.26 17.3476 22.3014 19.7513 22.1901 19.7958C22.1011 19.6623 22.2124 19.4842 22.2569 19.3507L22.5462 18.2156L22.7465 17.3921C22.613 17.5702 22.5685 17.6814 22.3904 17.7482L24.0374 14.6991C23.5923 14.8326 23.6813 15.2555 23.4365 15.5226L22.9468 16.0345C22.5017 16.5018 22.2124 17.1473 21.9675 17.7705C21.6782 18.5495 21.9453 19.3729 21.9675 20.1742L21.5447 21.198C21.4334 21.4428 21.4556 21.7544 21.4334 22.0215C21.2998 23.0898 21.5892 23.9356 22.2124 24.8926C21.8118 24.6923 21.7227 24.2917 21.4334 24.0246C21.1218 23.7352 20.6989 23.4459 20.3651 23.2233C20.2538 23.2901 20.0312 23.3124 19.9422 23.2456L19.0964 22.3998C18.7403 22.066 18.6291 21.5318 18.362 21.109C18.3842 21.6431 18.7181 21.9992 18.8294 22.6001C18.4065 22.1773 18.2507 21.7099 18.0059 21.2203L18.3175 22.7337C17.583 22.155 17.1824 21.4873 16.804 20.7529L17.3159 22.5111C16.3366 21.6876 16.025 20.5526 15.7134 19.3284L15.4686 20.4858C15.157 19.9294 15.3573 19.3729 15.5354 18.9278C15.6244 18.9946 15.7134 19.0391 15.7134 19.0391C15.7134 19.0391 15.7802 18.9278 15.8025 18.9056L15.9583 18.5049C15.936 18.861 15.936 19.1281 16.025 19.4842L16.1586 18.8833L16.4479 19.7736L16.5592 19.462L16.7595 20.3522L16.8263 19.462L16.9821 19.8626L17.0711 19.2617C17.1824 19.7513 17.2491 20.1964 17.583 20.5971C17.6053 20.2855 17.5607 19.9071 17.5385 19.6178L18.4287 16.6131L18.4733 17.4589C18.8516 16.346 18.4287 15.3222 19.2745 14.0536C20.4541 12.2731 21.055 10.4035 20.2315 8.53398C20.3206 9.11266 20.2315 9.40198 20.1425 9.8026C19.9422 10.7151 19.9199 11.6499 19.1855 12.3399C18.6068 12.8963 18.0059 13.5417 17.6498 14.2539C17.6943 14.432 17.7165 14.61 17.6943 14.7658V15.0552C17.6943 15.0997 17.6498 15.0997 17.583 15.0552L17.4495 14.9884L17.6052 15.6116L17.3604 15.4113L17.4049 15.9899L17.1601 15.7006L17.0711 15.9454C17.0488 15.9899 16.9821 15.9677 16.804 15.9454L16.4257 16.7689L16.3366 16.5018C16.0695 16.7912 15.7357 16.9692 15.4018 16.9247L15.3128 17.2141C15.3128 17.2363 15.2015 17.2141 15.2015 17.1918C15.1793 17.1695 15.157 17.1028 15.1348 17.0805C15.0235 17.3031 14.9122 17.4589 14.7119 17.5479C14.6896 17.6147 14.6451 17.7927 14.5784 17.7705L14.4003 17.6592L14.3335 18.1488L14.1332 17.7482L13.9329 18.4382L13.8216 18.0153L13.6213 18.5272L13.421 17.9263L13.3765 18.594L12.8201 18.0153C12.8201 18.0153 12.8201 18.0153 12.8201 18.0375L12.6865 18.2601C12.4862 17.993 12.2859 17.6814 12.0856 17.3031L11.9298 17.5702L11.7072 16.8357C11.6182 16.5464 11.774 16.0345 11.8853 15.7229C12.5753 15.9899 13.2207 16.3461 13.9107 16.4351L15.4018 16.6354C15.758 16.6799 16.3144 16.6131 16.2921 16.1457C16.2699 15.6338 15.7134 15.389 15.3128 15.211L16.1141 15.2555C15.7802 15.1442 15.5799 15.0774 15.3128 14.8326L15.8025 14.6768L15.5354 14.5433C15.4686 14.521 15.5576 14.2984 15.5799 14.2762L16.3144 14.2094L15.5354 14.1426C15.4686 13.8533 15.3796 13.5862 15.1348 13.4749L15.3128 13.8756C14.5561 14.1649 13.8884 14.1426 13.0872 14.2094C13.7994 14.2539 14.4893 14.2317 15.3128 14.1872C14.7341 14.7658 13.9997 14.5433 13.2207 14.6546C13.8661 14.8326 14.4671 14.7881 15.2015 14.5878C15.2238 14.7436 15.1125 14.9884 15.0235 14.9884L14.5784 14.9661C14.5116 14.9661 14.378 14.9216 14.378 14.9661V15.211L13.4655 15.1442C13.7771 15.6116 14.5784 15.0774 15.0012 15.8787L14.6229 15.8119L14.6896 16.168C13.4433 16.2793 11.3066 15.5226 11.4402 14.2094C11.596 12.785 13.1317 13.653 12.8646 12.3399C12.7533 12.6292 12.6865 12.8073 12.4195 12.9408C12.2637 13.0076 11.9743 12.9408 11.7295 12.8963L10.7725 12.9408C10.6612 12.9408 10.4386 12.8295 10.3719 12.7405C10.1048 12.3399 12.3082 10.1364 12.7533 9.69132C13.9774 8.4672 12.6865 8.35593 13.8439 7.26535C14.5338 6.61991 15.2238 5.84093 16.0918 5.39579L17.0043 4.95066L17.3159 5.10646C18.4065 5.64062 15.4909 2.79177 18.4065 0.899956C18.2507 0.944469 18.0726 0.988985 17.9614 1.05575C17.9391 1.05575 17.8278 0.944471 17.8278 0.944471C17.8278 0.944471 18.0059 0.87771 18.0281 0.855453L19.0297 0.321289C17.7165 0.566112 16.4257 1.32284 16.3144 2.70275C16.2699 3.34819 16.4702 3.94912 16.626 4.66133C15.7134 4.01589 15.2683 2.85854 15.5799 1.83474L16.0028 0.944471C15.2683 1.56766 15.2683 2.43567 15.3128 3.30368C14.9345 2.85855 14.8899 2.27987 15.0903 1.79022C14.0442 2.48017 14.6896 4.19393 15.3796 4.79486L15.847 5.12871C15.3796 5.03968 14.9345 4.86164 14.6229 4.59456C14.1332 4.17169 14.2 3.59302 14.2445 2.96983C13.51 3.68204 13.6658 4.86164 14.5561 5.37354L13.9552 5.90769L13.8884 6.82022C12.3082 8.11111 13.6213 8.48946 12.4862 9.62455C11.685 10.4035 10.9728 11.227 10.3273 12.1173C10.1048 12.4511 10.1048 12.874 10.2606 13.1856C10.7502 14.1872 10.4831 15.1887 11.5737 15.9454L11.3289 16.947C11.2176 17.3476 11.2399 17.8595 11.685 18.0375C11.9298 18.1933 12.1079 18.6607 12.2859 18.9501L12.3527 18.3491L13.0649 19.2617L13.1762 18.9723L13.4655 19.4397L13.6213 19.1281L13.9774 19.6623L14.2 18.9501C14.2668 18.7275 14.4893 18.6162 14.6451 18.4827L15.4241 17.815L14.8454 19.0391C14.4893 19.7736 14.8454 20.5971 15.068 21.2648L15.1793 20.7751C15.3573 21.0867 15.4018 21.3093 15.3573 21.5764C15.1793 22.8227 15.157 24.0023 15.2015 25.2487C14.289 24.9148 13.3988 24.9594 12.642 25.449C11.3066 26.317 10.1493 27.4521 9.28128 28.7875C8.83614 29.4775 8.45778 30.1674 7.94588 30.8351L5.36411 31.2357C4.31805 31.3915 3.33877 31.6141 2.33722 31.8812C1.31341 32.1482 -0.021982 32.5934 0.000274573 33.7285C0.0447878 35.9986 7.21141 36.1099 8.92517 35.5535C7.81234 35.2864 1.75855 35.1529 1.7808 33.8175C1.7808 33.083 6.27663 32.4376 7.1669 32.2595C7.21141 32.4821 7.18916 32.7714 7.12239 32.994L4.74093 33.0608C4.25128 33.083 3.7839 33.2388 3.31651 33.3501C4.11775 33.5282 5.49766 33.6172 6.34341 33.5282C7.18916 33.4391 7.90137 33.6839 8.7026 33.7507L12.3972 34.1068L14.5561 34.6187C14.6229 34.8635 14.6896 35.3309 14.8454 35.509C15.9583 36.7331 17.6943 35.9986 18.6736 36.2657C18.9629 36.3325 19.2968 36.5773 19.5861 36.5996C20.4096 36.6886 21.1218 36.6441 21.923 36.555C23.8148 36.377 23.8594 35.2864 25.8402 35.1974C26.6192 35.1529 27.3759 35.1084 28.1326 34.9748L31.115 34.4629C31.5824 34.3739 32.1833 34.3739 32.5394 34.0178C32.8288 33.7062 32.9623 33.0163 32.851 32.6379C32.2056 30.2119 32.584 30.1006 32.2501 28.3869C32.0721 27.4298 31.894 26.5618 31.8717 25.5825C31.8495 24.8703 31.8272 24.2026 31.7382 23.4904C31.6269 22.5556 32.0498 23.3346 32.0498 21.376C32.0498 20.7306 32.0721 20.1074 32.3836 19.551C33.0959 18.2824 33.0291 16.9692 32.3836 15.6783C33.0291 15.8341 33.4074 15.9454 33.9639 15.8564C32.6062 14.8103 32.6062 14.5878 32.5394 12.9853ZM25.6844 4.99518C26.4411 5.0842 27.1088 5.30678 27.7988 5.64062C27.0866 5.48483 26.3966 5.26226 25.6844 4.99518ZM19.0297 19.2839C18.9852 19.1059 18.9852 18.9056 19.0297 18.683C19.0742 18.861 19.0742 19.0614 19.0297 19.2839ZM21.7005 21.2425L21.5892 21.5318C21.5892 21.5541 21.4111 21.4873 21.4334 21.4428L21.6337 21.109C21.6114 21.0645 21.7227 21.198 21.7005 21.2425ZM17.8501 14.2317C17.8946 14.1649 17.9836 14.0091 18.0281 13.9423L18.7181 13.1856L18.0726 14.4542C18.0059 14.4542 17.8056 14.2984 17.8501 14.2317ZM14.6229 15.3C14.6674 15.2555 15.2238 15.1887 14.9567 15.3668L15.5576 15.7896C15.1793 15.7229 14.979 15.5448 14.6229 15.3ZM13.8661 4.01588C13.8439 3.86008 13.9774 3.5485 14.0219 3.41496C14.1332 4.59456 13.9107 4.55004 15.157 5.23999C14.5561 5.23999 13.9107 4.66132 13.8661 4.01588ZM14.1332 5.92996C14.2222 5.79642 14.4671 5.66287 14.6674 5.61836C14.6451 5.64062 14.5784 5.7519 14.5561 5.77416C14.289 5.92995 14.2668 6.13026 14.1555 6.50862C14.0664 6.4196 14.0442 6.0635 14.1332 5.92996ZM11.4179 15.389C10.9283 15.0107 10.8392 14.4765 10.7947 14.0091C11.1953 14.4097 11.5515 14.8103 11.4179 15.389ZM15.0903 19.1726C15.2015 18.594 15.4241 18.0376 15.847 17.5479C15.9583 17.8818 15.758 18.2156 15.5576 18.5272L15.0903 19.1726ZM30.3583 20.33C30.8034 21.198 30.6254 21.287 30.2915 22.3776C29.8019 21.6654 30.5363 21.6431 30.3583 20.33ZM29.379 21.3315L29.4903 20.8864C29.9577 21.8434 30.4473 22.9785 29.29 23.6907C29.1787 22.4444 28.689 21.4873 28.0436 20.4858C27.6652 19.8848 27.3982 18.9056 27.6207 18.2379C27.7098 18.1043 27.8656 17.8372 27.9323 17.7037L28.5778 16.4128C28.3329 18.683 28.2439 19.2172 29.379 21.3315ZM29.8686 20.0629C29.5571 19.3729 29.3345 18.7498 29.29 17.9263C29.9577 18.4382 30.0467 19.3062 29.8686 20.0629ZM25.7289 9.6023C25.3728 9.66907 25.1502 9.51327 24.8832 9.31296C24.6383 9.11266 24.1487 9.09039 24.1264 8.66752L26.4856 9.8026C26.5302 9.82486 26.6414 9.95841 26.6637 9.98066C26.6859 10.0252 26.775 9.75809 26.7305 9.71358C25.9292 9.06814 24.5938 8.46721 23.57 8.08885C23.8371 7.97757 24.1264 7.93304 24.3935 7.91079L24.1709 7.73274C24.1264 7.68822 24.1487 7.4434 24.2155 7.4434C24.7941 7.39889 25.5509 7.71049 26.085 7.93305C26.6859 8.20013 26.9975 8.57849 27.4427 9.00137C29.7574 11.2938 29.1342 12.696 29.7129 15.6561C29.468 15.3445 29.2009 14.9216 29.1119 14.61C29.0674 13.6085 29.2232 12.6737 28.6445 11.8725L28.8003 12.696C28.8894 13.2079 28.9784 13.6753 28.7781 14.2094L28.6668 13.6753L28.5555 14.0981L28.4442 13.7865C28.0436 14.9216 27.7988 16.6354 26.5302 17.4589C26.5524 17.1918 26.6637 16.9247 26.7972 16.6799C27.3091 15.7896 27.3759 14.8771 27.4649 13.8756L27.6207 14.4765C27.8433 13.564 27.5317 12.5847 27.0643 11.7167L26.6637 10.9599C26.3966 10.4926 26.1295 9.93615 25.7289 9.6023ZM23.2584 18.8833C23.3029 19.0614 23.2139 19.1726 22.9691 19.2394L23.2584 18.8833ZM25.0612 18.9501L25.039 19.551C25.2615 19.2839 25.4841 19.0168 25.8179 18.772L24.7941 20.5971C24.4825 21.1535 24.7719 21.8657 25.0612 22.3331C24.8832 20.9309 25.6844 19.6178 26.7305 18.4827C26.7527 20.0629 28.5555 22.2218 28.689 23.2456L28.8448 24.3139L27.732 25.2042C27.8878 23.8688 27.5317 22.3553 26.2853 21.5986C26.5079 21.9325 26.6637 22.0883 26.7972 22.4666L26.0183 21.7322L26.3298 22.3998L25.4841 22.6447L25.5509 22.3108L24.7496 22.934L24.5938 22.845C24.5716 22.8227 24.4825 22.934 24.4158 23.0008L24.1709 23.2456C24.1264 23.2901 23.9706 23.1788 23.9484 23.1343L24.1264 22.5111C23.57 22.7782 23.2362 23.0453 22.8133 23.3791C22.7465 21.8879 23.9929 21.5541 23.7926 21.0645C22.9691 21.4873 22.5462 22.2218 22.2124 23.0008C22.1011 21.5096 23.9484 20.0184 25.0612 18.9501ZM24.1709 25.8719L23.8371 26.6954C23.7926 26.3615 23.8594 26.0722 24.1709 25.8719ZM21.8563 27.5189C21.9453 28.9655 21.745 28.654 22.524 30.1229L22.4127 28.8765L22.8356 29.5665L22.9691 29.1436C23.0804 29.5665 23.1471 29.9226 23.1917 30.39L22.7465 29.7C22.524 30.3009 23.5033 31.3247 22.5017 31.7254L22.2569 30.5012C22.1901 30.2119 22.1901 29.9003 22.0566 29.6555C21.745 28.9878 21.5002 28.2533 21.8563 27.5189ZM19.8309 24.6255C20.7879 24.4252 19.2745 25.9164 19.9422 27.4298C19.9645 26.6731 20.187 25.9832 20.5654 25.2709L20.6767 25.0484C20.6989 25.0039 20.8102 25.0261 20.877 25.0484C21.1663 25.1374 20.4764 26.0277 20.6321 26.7399C20.7879 26.3393 20.9437 26.0054 21.2998 25.7829C21.0995 28.0085 20.7879 27.8082 21.6114 30.0116C20.5654 29.1213 19.8087 27.964 19.6083 26.6286C19.4971 26.0499 19.6974 25.2042 19.8309 24.6255ZM18.7403 24.1581C18.7849 25.2709 18.8739 26.317 19.2745 27.3853C19.3635 27.6079 19.408 27.8527 19.319 28.0975C18.5623 26.8734 18.3175 25.538 18.7403 24.1581ZM17.1601 23.1566L18.0726 23.7798L17.8723 24.6923C17.8723 24.7145 17.6498 24.8481 17.6498 24.8703L17.6052 26.2725C17.1379 25.7606 17.0488 24.0246 17.1601 23.1566ZM15.936 22.0883C16.1586 22.1105 16.0473 22.3331 15.8247 22.6001C15.7134 22.5556 15.7802 22.066 15.936 22.0883ZM7.47849 31.5251C7.03336 31.7921 1.38018 32.037 1.11311 33.4836C1.04634 33.8175 1.20213 34.0178 1.38018 34.4629C1.02407 34.2849 0.756995 34.0623 0.489916 33.7507C0.245093 32.8382 1.95886 32.4153 2.64881 32.2373C3.4723 32.0147 4.25129 31.8589 5.1193 31.7031L7.41172 31.3025C7.43398 31.3247 7.523 31.5028 7.47849 31.5251ZM12.3527 33.2388C11.6627 33.2388 11.2844 33.2833 10.5722 33.1053C11.6627 32.5266 11.685 32.9272 12.464 31.8589L12.3527 33.2388ZM14.4671 33.7952C14.2222 33.8843 13.9329 33.4169 13.9552 33.2166L13.9997 31.9924C13.4878 32.4821 13.7103 33.0608 13.5323 33.7285C12.464 33.3056 13.0426 31.5696 13.1762 30.7238C12.5975 31.0799 13.1317 30.9464 12.3304 31.7254C11.596 32.4598 10.5499 32.8382 9.54836 32.3486L9.19225 31.3693L9.0142 31.9702L8.88066 31.3915C8.48004 31.9479 8.94743 32.4821 9.16999 32.994C8.65809 33.0608 8.12393 33.0385 7.61203 32.7937C7.76783 32.0592 8.10168 31.5028 8.48004 30.9241L9.94898 28.5872C10.5499 27.6301 11.4402 26.9402 12.2637 26.1612C12.9536 25.5158 13.9774 25.1151 14.9122 25.6048C15.4464 25.8719 15.1793 27.7192 15.068 28.2756C14.6451 30.3232 15.6912 33.3946 14.4671 33.7952ZM17.8946 35.687C17.583 35.6203 17.2046 35.5535 16.9598 35.4422C16.5147 35.2197 16.5814 34.6855 16.3366 34.1736L16.1363 35.509C15.3351 35.5535 15.6689 34.3516 15.3128 34.0846L15.1348 35.0416C14.7564 33.3946 15.5799 34.0623 15.9583 33.0608L15.6689 33.083C15.5576 33.083 15.5799 31.0577 15.5576 30.6125C15.5131 29.6332 15.6467 28.6985 15.7357 27.7192C15.847 26.5173 15.4241 25.1151 15.847 24.1581C16.1808 24.8258 16.2476 25.5825 16.9153 26.1167C17.3159 26.8512 17.8501 27.5189 18.451 28.1866C18.9184 28.6985 19.5416 29.5665 19.8977 30.0561C19.9199 30.1006 19.7419 30.2342 19.7641 30.2787L19.8977 30.4345L20.0312 30.568C20.0535 30.5903 20.009 30.657 19.9645 30.7016C19.8754 30.8574 19.7641 30.1451 18.9184 29.9448C18.5845 29.8558 18.2952 29.8113 17.9391 29.7668L18.6958 30.2342C19.2968 30.5903 20.2315 32.0815 20.4541 32.4821L20.8547 31.1689C21.3666 31.3025 21.745 31.5918 21.9675 32.0815C20.8325 32.9272 20.8325 32.9495 19.4748 33.1943C19.1632 32.994 18.8739 32.8159 18.54 32.7047L18.9629 33.3946C18.1172 33.951 17.761 34.7523 17.8946 35.687ZM31.7605 29.5442C31.7605 30.568 31.8495 31.4805 32.1166 32.4821C32.1611 32.6379 32.0498 32.7492 31.983 32.8827C31.2263 34.0846 31.3598 33.4614 29.3567 34.0401C28.2217 34.3739 27.1533 34.552 25.9737 34.641C25.3728 34.6855 24.6829 34.73 24.1487 34.9971C23.7258 35.2197 22.1679 36.2435 21.745 35.7761C21.5892 35.6203 21.5224 34.8635 21.9675 34.552C21.2553 34.5074 21.1886 35.1084 20.9215 35.7315C20.788 36.0431 19.9867 36.2212 19.7196 35.9764C19.319 35.598 19.7196 35.0639 19.7419 34.5965C19.2968 34.8858 19.2077 35.3755 19.2077 35.9096C19.0519 35.9319 18.6958 35.9096 18.5623 35.8206C18.4287 35.7316 18.2729 35.42 18.2952 35.1974C18.3175 34.4852 18.8294 33.8397 19.5193 33.6172L21.1218 33.1275C21.7672 32.9272 22.2791 32.3708 22.9023 32.0815L25.7289 30.8351C26.7527 30.39 27.7765 30.2119 28.8894 30.1451C27.9546 29.8558 27.1756 29.9671 26.2186 30.2342L26.2853 28.8543L25.8625 29.6555L25.907 28.7652C25.7957 28.921 25.6621 29.1436 25.6176 29.3662L25.4396 30.3455C24.7719 29.6778 24.8609 28.9878 24.6161 28.1643C24.5271 28.8097 24.5271 29.3662 24.5271 30.0561C23.8371 28.3646 24.0152 27.6524 24.5938 26.0499C24.6829 25.8051 24.7051 25.6716 24.5716 25.3822C24.6606 24.9371 25.5731 24.3584 25.3728 24.0691L24.1264 25.0706C24.2377 24.4252 24.6383 24.0023 25.1502 23.6907L26.0628 23.1121C26.2853 22.9563 26.5079 22.8227 26.7082 22.6447C27.0866 23.4236 27.2424 24.2471 27.1756 25.0484L27.4427 24.5587C27.5317 25.0039 27.4427 25.36 27.2646 25.7161L26.5747 27.1183C27.1979 26.3393 27.732 25.6716 28.5555 25.1374C28.9784 24.8703 29.2455 24.4697 29.5793 24.1136C29.9799 23.6907 30.247 23.3569 30.5809 22.7337L30.3138 25.0706C30.5363 24.7145 30.6921 24.3139 30.7367 23.9133L30.9815 22.3331C31.6269 23.9801 31.0928 25.6271 31.4711 27.4298C31.5601 28.1198 31.7605 28.8097 31.7605 29.5442ZM24.5938 30.2342C24.7941 30.3455 24.9054 30.5458 24.8609 30.7238C24.7274 30.5458 24.6383 30.39 24.5938 30.2342Z" fill="white"/>
<path d="M12.7976 18.0174C12.8426 17.9273 12.8426 17.9499 12.7976 18.0174V18.0174Z" fill="white"/>
<path d="M14.9122 27.8984C14.5784 28.4771 14.0442 29.5677 14.022 30.2799C14.7342 29.3006 14.7787 29.1893 14.9122 27.8984Z" fill="white"/>
<path d="M20.6096 2.36915L21.5221 1.85725L21.5667 2.25786H23.8368L22.5682 2.01303C23.6143 1.7237 26.1515 1.79047 26.9305 2.5472L26.196 2.48043L28.0656 3.48198C27.6427 3.50423 27.4647 3.30392 27.0418 3.28166C27.6205 3.74905 28.1991 3.99387 28.9113 4.28321C28.3104 4.41675 27.4424 3.88259 26.5744 3.99387C28.0211 4.50578 29.401 5.2625 30.5361 3.88259C28.9113 3.99387 28.7333 3.48198 27.754 2.59171C27.1753 2.05755 26.4631 1.54565 25.7064 1.25631C24.2375 0.633129 21.4999 0.900209 20.6096 2.36915ZM24.2152 1.5679C23.9926 1.61241 23.7701 1.61241 23.503 1.5679C23.7033 1.52339 23.9481 1.52339 24.2152 1.5679Z" fill="white"/>
<path d="M17.8277 5.26174L18.0058 4.9279L18.1616 5.284C18.2729 4.6163 18.2506 3.97086 18.5399 3.39218L19.0964 2.2571C18.9628 2.23485 18.8738 2.25709 18.896 2.23484C19.2522 1.52263 20.6543 0.966219 21.411 0.69914L21.0994 0.610108C22.2568 0.164976 22.7242 0.387545 23.8815 0.209492C22.6797 -0.146614 21.5223 -0.0130798 20.365 0.343026C18.0726 1.07749 16.8707 3.12511 17.8277 5.26174Z" fill="white"/>
<path d="M20.5429 5.8196L20.7433 6.08668C20.7655 6.13119 20.5875 6.28698 20.6097 6.28698L20.9881 6.35375C21.0326 6.35375 20.9213 6.46504 20.8991 6.4873L20.6987 6.6876L21.5 6.77663C21.5445 6.77663 21.7225 6.84341 21.7448 6.86566C21.7893 6.88792 21.678 6.97694 21.6113 7.06596L22.3235 7.93398C22.7018 7.39982 22.6128 6.06442 22.7686 6.1757L22.9244 6.28698C23.0134 5.90862 23.1025 5.26318 22.8799 4.95159C22.1454 4.41743 21.2774 4.79579 20.81 5.3522L21.3442 5.17415L21.0994 5.75283L20.6542 5.90862L20.8545 5.57477C20.7433 5.55251 20.4984 5.73057 20.5429 5.8196Z" fill="white"/>
<path d="M20.2761 13.5873L20.9438 13.7654C21.6115 13.0532 22.2347 12.0293 21.8563 11.1168C21.478 10.2266 21.389 9.20276 20.8548 8.3125C21.1886 9.44759 21.2332 11.1613 20.8993 12.2519C20.7213 12.7193 20.4542 13.1422 20.2761 13.5873Z" fill="white"/>
<path d="M23.2364 2.45926C21.901 2.16992 20.4544 2.65957 19.7644 3.81692L20.3431 3.48307C21.3224 2.61506 23.7929 2.50377 24.149 3.68337C24.2602 4.01722 24.3048 4.39559 24.3938 4.7517C24.5496 4.39559 24.7499 3.97271 24.7721 3.6166C24.7944 3.03793 24.1935 2.54829 23.7038 2.39249L23.2364 2.45926Z" fill="white"/>
<path d="M15.6689 9.49124C16.7818 9.24642 16.2476 9.17965 17.583 8.66774L16.1808 8.51194C15.9805 8.48969 15.4686 8.5342 15.5131 8.24486C15.5799 7.84424 15.7357 7.55492 15.5576 7.1543L15.0903 7.79973C14.979 7.95553 15.068 8.35616 15.1793 8.53421C15.6689 9.3577 14.3558 9.62477 14.1777 10.5818C14.5561 10.1812 15.0457 9.62478 15.6689 9.49124ZM15.9805 9.09062L16.1586 8.89031C16.2031 8.8458 16.3366 8.82353 16.4034 8.80128C16.4702 8.77902 16.4479 9.02385 16.4034 9.06836L16.1363 9.22416C16.0918 9.24642 15.9583 9.13514 15.9805 9.09062Z" fill="white"/>
<path d="M17.6942 11.5606C18.117 11.2712 18.2951 10.6258 18.1393 10.1807C17.939 10.6481 17.6719 11.2267 17.1823 11.5383L16.292 11.8499C16.8929 12.0725 17.3603 11.7831 17.6942 11.5606Z" fill="white"/>
<path d="M14.3781 7.68945C14.2223 8.11233 14.3558 8.42393 14.6451 8.60198L14.3781 7.68945Z" fill="white"/>
<path d="M31.1595 30.7249C31.2931 31.5039 31.0927 32.4832 30.3805 32.9951C29.7796 33.418 29.0451 33.596 28.3774 33.8854C29.3567 34.0189 30.3805 33.6628 31.0927 33.0174C31.805 32.3942 31.5824 30.3688 30.9592 29.5898L31.1595 30.7249Z" fill="white"/>
<path d="M24.5938 8.17871L25.3505 8.55708L27.2868 9.78119C26.7304 8.84641 25.7066 8.31225 24.5938 8.17871Z" fill="white"/>
</svg>
