<svg width="86" height="57" viewBox="0 0 86 57" fill="none" xmlns="http://www.w3.org/2000/svg">
<path d="M37.2578 55.9086C37.2578 55.7751 37.3468 55.686 37.4581 55.686H37.8142C40.2847 55.686 41.1082 53.9278 41.1082 50.478V5.60867C41.1082 2.15889 40.2847 0.445132 37.8142 0.445132H37.4581C37.3468 0.445132 37.2578 0.356106 37.2578 0.222566C37.2578 0.0890264 37.3468 0 37.4581 0H48.4529C48.5642 0 48.6532 0.0890264 48.6532 0.222566C48.6532 0.356106 48.5642 0.445132 48.4529 0.445132H48.0523C45.5818 0.445132 44.7583 2.15889 44.7583 5.60867V50.478C44.7583 53.9278 45.5818 55.686 48.0523 55.686H48.4529C48.5642 55.686 48.6532 55.7751 48.6532 55.9086C48.6532 56.0421 48.5642 56.1312 48.4529 56.1312H37.4581C37.3468 56.1312 37.2578 56.0421 37.2578 55.9086Z" fill="#190906"/>
<path d="M52.0359 25.5722C52.5923 25.6612 52.9707 25.55 53.6161 25.3942C52.9484 26.6851 52.9039 27.9982 53.6161 29.2668C53.9277 29.8232 53.95 30.4464 53.95 31.0919C53.95 33.0504 54.3506 32.2715 54.2615 33.2062C54.1948 33.9184 54.1503 34.5862 54.128 35.2984C54.1058 36.2554 53.9277 37.1457 53.7497 38.1027C53.4381 39.7942 53.7942 39.9277 53.1487 42.3537C53.0374 42.7543 53.171 43.4443 53.4603 43.7336C53.8164 44.0897 54.3951 44.0897 54.8847 44.1787L57.8671 44.6907C58.6238 44.8242 59.3806 44.8687 60.1596 44.9132C62.1404 45.0022 62.1849 46.0928 64.0767 46.2709C64.8779 46.3376 65.6124 46.4044 66.4137 46.3154C66.703 46.2709 67.0368 46.0483 67.3262 45.9815C68.3055 45.7367 70.0415 46.4489 71.1543 45.2248C71.3101 45.069 71.3769 44.6016 71.4437 44.3345L73.6025 43.8226L77.2971 43.4665C78.0984 43.3775 78.8106 43.1549 79.6563 43.244C80.5021 43.333 81.8597 43.244 82.6832 43.0659C82.2159 42.9546 81.7485 42.7988 81.2588 42.7766L78.8774 42.7098C78.8106 42.4872 78.7661 42.1979 78.8329 41.9753C79.7231 42.1534 84.2189 42.7766 84.2189 43.5333C84.2412 44.8687 78.1874 45.0022 77.0746 45.2693C78.8106 45.848 85.955 45.7145 85.9995 43.4443C86.0217 42.3092 84.7086 41.8863 83.6625 41.597C82.6387 41.3299 81.6817 41.1073 80.6356 40.9515L78.0539 40.5509C77.542 39.8832 77.1636 39.1933 76.7185 38.5033C75.8505 37.1679 74.6931 36.0328 73.3577 35.1648C72.601 34.6752 71.7107 34.6307 70.7982 34.9645C70.8427 33.7181 70.7982 32.5385 70.6424 31.2922C70.5979 31.0251 70.6424 30.8025 70.8205 30.4909L70.9318 30.9806C71.1543 30.3129 71.5104 29.4894 71.1543 28.7549L70.5756 27.5308L71.3546 28.1985C71.5104 28.332 71.733 28.4433 71.7998 28.6659L72.0223 29.3781L72.3784 28.8439L72.5342 29.1555L72.8236 28.6881L72.9349 28.9775L73.6471 28.065L73.7138 28.6659C73.8696 28.3988 74.0699 27.9092 74.3147 27.7534C74.7821 27.5753 74.7821 27.0634 74.6709 26.6628L74.426 25.6613C75.5389 24.9045 75.2495 23.903 75.7392 22.9014C75.895 22.5676 75.9172 22.1447 75.6724 21.8331C75.027 20.9428 74.3148 20.0971 73.5135 19.3404C72.3562 18.2275 73.6916 17.8492 72.1114 16.536L72.0446 15.6235L71.4437 15.0894C72.3339 14.5552 72.512 13.3978 71.7552 12.6856C71.7998 13.3088 71.8665 13.8875 71.3769 14.3104C71.0653 14.5775 70.6202 14.7555 70.1528 14.8445L70.6202 14.5107C71.3101 13.9098 71.9556 12.196 70.9095 11.506C71.1098 12.0179 71.0653 12.5744 70.6869 13.0195C70.7314 12.1515 70.7314 11.2835 69.997 10.6603L70.4198 11.5506C70.7537 12.5966 70.2863 13.7317 69.3738 14.3771C69.5296 13.6649 69.7299 13.064 69.6854 12.4186C69.5741 11.0387 68.2832 10.2819 66.9701 10.0371L67.9716 10.5713C68.0161 10.5935 68.1719 10.6603 68.1719 10.6603C68.1719 10.6603 68.0607 10.7493 68.0384 10.7716C67.9049 10.7271 67.7491 10.6603 67.5933 10.6158C70.5089 12.5298 67.5933 15.3787 68.6838 14.8223L68.9954 14.6665L69.9079 15.1116C70.7982 15.5345 71.4659 16.3135 72.1559 16.9812C73.3132 18.0717 72.0001 18.183 73.2464 19.4071C73.6693 19.83 75.895 22.0334 75.6279 22.4563C75.5611 22.5453 75.3386 22.6566 75.2273 22.6566L74.2702 22.6121C74.0032 22.6566 73.7361 22.7234 73.5803 22.6566C73.3132 22.5231 73.2464 22.345 73.1352 22.0557C72.8681 23.3688 74.4038 22.5231 74.5596 23.9252C74.7154 25.2384 72.5787 25.9951 71.3101 25.8838L71.3769 25.5277L70.9985 25.5945C71.4437 24.8155 72.2226 25.3274 72.5342 24.86L71.6217 24.9268V24.682C71.6217 24.6374 71.4659 24.682 71.4214 24.682L70.9763 24.7042C70.8872 24.7042 70.776 24.4594 70.7982 24.3036C71.5327 24.5039 72.1336 24.5484 72.7791 24.3704C72.0001 24.2368 71.2656 24.4816 70.6869 23.903C71.5104 23.9252 72.2004 23.9697 72.9126 23.9252C72.1113 23.8362 71.4214 23.8585 70.6869 23.5914L70.865 23.1908C70.6202 23.302 70.5311 23.5691 70.4644 23.8585L69.6854 23.9252L70.4198 23.992C70.4644 24.0143 70.5311 24.2368 70.4644 24.2591L70.1973 24.3926L70.6869 24.5484C70.4198 24.7932 70.2195 24.86 69.8857 24.9713L70.6869 24.9268C70.264 25.1048 69.7299 25.3719 69.7076 25.8616C69.6854 26.3289 70.2418 26.3957 70.5979 26.3512L72.0891 26.1509C72.779 26.0619 73.4245 25.7058 74.1144 25.4387C74.2257 25.7503 74.3593 26.2844 74.2925 26.5515L74.0699 27.286L73.9141 27.0189C73.7138 27.3973 73.5135 27.7089 73.3132 27.9759L73.1797 27.7534C73.1797 27.7534 73.1797 27.7534 73.1797 27.7311L72.6233 28.3098L72.5787 27.6421L72.3784 28.243L72.1781 27.7311L72.0668 28.154L71.8665 27.464L71.6662 27.8646L71.5995 27.375L71.4214 27.4863C71.3769 27.5308 71.3324 27.3305 71.2879 27.2637C71.1098 27.1747 70.9763 27.0189 70.865 26.7963C70.865 26.8186 70.8205 26.8854 70.7982 26.9076C70.776 26.9299 70.6869 26.9744 70.6869 26.9299L70.5979 26.6405C70.2641 26.685 69.9302 26.507 69.6631 26.2177L69.5741 26.4847L69.1957 25.6613C69.0399 25.6835 68.9509 25.7058 68.9287 25.6613L68.8396 25.4164L68.5948 25.7058L68.6393 25.1271L68.3945 25.3274L68.5503 24.7042L68.4167 24.771C68.35 24.7932 68.3055 24.7932 68.3055 24.771V24.4816C68.3055 24.3258 68.3055 24.1478 68.35 23.9697C67.9939 23.2575 67.393 22.6121 66.8143 22.0557C66.0798 21.3435 66.0575 20.4309 65.8572 19.5184C65.7682 19.1178 65.6569 18.8285 65.7682 18.2498C64.9447 20.1193 65.5457 21.9889 66.7253 23.7694C67.571 25.0603 67.1481 26.0619 67.5265 27.1747L67.571 26.329L68.4613 29.3336C68.439 29.6007 68.3945 30.0013 68.4167 30.3129C68.7729 29.9123 68.8174 29.4449 68.9287 28.9775L69.0177 29.5784L69.1735 29.1778L69.2402 30.0681L69.4406 29.1778L69.5518 29.4894L69.8412 28.5991L69.9747 29.2C70.0637 28.8662 70.0637 28.5769 70.0415 28.2208L70.1973 28.6214C70.2195 28.6436 70.2863 28.7549 70.2863 28.7549C70.2863 28.7549 70.3531 28.7104 70.4644 28.6436C70.6647 29.0888 70.8427 29.6452 70.5311 30.2016L70.2863 29.0442C69.997 30.2684 69.6631 31.4035 68.6838 32.227L69.1957 30.4687C68.7951 31.2031 68.3945 31.8708 67.6823 32.4495L67.9939 30.9361C67.7713 31.4257 67.5933 31.8931 67.1704 32.316C67.2817 31.715 67.6378 31.3589 67.6378 30.8248C67.3929 31.2477 67.2594 31.7818 66.9033 32.1157L66.0576 32.9614C65.9685 33.0282 65.746 33.0059 65.6347 32.9392C65.3231 33.1395 64.8779 33.4511 64.5664 33.7404C64.277 34.0075 64.188 34.4081 63.7874 34.6084C64.4106 33.6514 64.6999 32.8056 64.5664 31.7373C64.5441 31.4925 64.5441 31.1586 64.4551 30.9138L64.0322 29.89C64.0322 29.0888 64.3215 28.2653 64.0322 27.4863C63.8096 26.8854 63.498 26.2177 63.0529 25.7503L62.5633 25.2384C62.3184 24.9713 62.4075 24.5484 61.9623 24.4149L63.6093 27.464C63.4313 27.3973 63.3868 27.3082 63.2532 27.1079L63.4535 27.9314L63.7429 29.0665C63.7874 29.2223 63.8764 29.3781 63.8096 29.5116C63.6984 29.4449 61.7398 27.0412 61.6953 27.5531L61.673 27.7979L60.6937 26.5738C60.6715 26.5515 60.6047 26.329 60.6269 26.329L60.7605 26.2844C60.3376 25.1493 60.0928 23.8139 60.2931 22.7011C59.4028 24.5929 60.7605 25.7058 60.4489 26.1286C60.4044 26.1954 60.2041 26.0619 60.1596 25.9728C59.4473 24.5484 59.4919 22.9014 60.2486 21.5215L60.2263 22.0779C60.5602 21.4547 61.4727 20.2974 62.1849 19.652L62.0291 20.6758C61.9623 21.1209 61.7843 21.7441 61.8956 22.1892C62.2739 24.0143 64.6331 25.9283 65.9018 28.4656C66.4137 29.4894 66.1688 30.5354 65.5234 31.4257C66.4804 30.6022 66.5027 29.7119 66.5695 28.5323C66.792 29.4004 66.5695 30.1571 66.1466 31.1141C66.3469 30.9361 66.5249 30.7135 66.7253 30.4687C66.8143 31.1364 66.3246 31.448 65.9018 32.0044C67.571 30.9583 67.5933 28.3098 66.3246 26.7518L65.1005 25.2384V24.86C64.0099 23.903 63.6538 22.5898 63.32 21.2544C63.0529 20.1861 62.9416 19.83 63.6093 18.4946L64.0545 17.6044L63.3422 17.9159C62.8971 17.3373 62.452 16.7141 62.3407 15.9796C62.2294 15.3342 62.2962 14.5552 62.7858 14.1101C63.4313 13.5314 64.4106 13.6649 65.1005 14.1546C65.5679 14.4884 65.746 14.8445 65.9685 15.4009L66.0798 14.622C66.4137 14.8 66.614 14.9558 66.9256 15.2451C66.9033 15.1561 66.8588 14.7778 66.7698 14.6665C66.2801 14.0433 64.7222 13.3088 63.7651 13.2866C61.9623 13.2643 62.2072 14.7778 61.4504 14.9558L61.3837 14.7332L59.8257 15.49C59.2915 15.7571 58.5793 15.8461 58.0229 15.8238C58.8909 15.4232 60.4266 15.2229 61.0498 14.4439C60.7382 14.3994 60.3376 14.4439 59.9815 14.5552L58.0674 15.1339C56.9546 15.4677 56.1089 16.2912 55.6415 17.315C56.9769 16.0909 57.8226 15.8461 59.5809 16.3135L58.9354 16.4025C59.4028 16.6473 60.1596 16.0909 60.8718 16.0909C60.6492 16.3357 60.3821 16.5138 60.0483 16.6473C59.0467 17.0257 57.1327 18.1608 56.3759 18.8952C56.8211 18.962 56.8656 18.4501 57.2884 18.5614C56.8433 19.0288 56.6207 19.4739 56.3982 20.0303C56.0643 20.8983 55.775 21.7441 56.0643 22.6121L56.1311 22.345C56.1311 22.3005 56.1979 22.256 56.2646 22.1892L56.3314 23.5914C56.3759 24.5039 55.9308 25.4164 55.3744 26.1064C55.5524 25.1716 55.9308 24.8823 56.0866 23.9252C55.9753 24.1033 55.775 24.3036 55.7305 24.4371L54.7289 26.7518C54.5286 27.2192 54.4619 27.6866 54.3951 28.1317C54.1948 27.1079 54.7289 26.2177 55.0628 25.2161C54.4396 25.8616 54.1948 26.6851 53.9945 27.5531C53.8832 26.7741 54.3506 26.1064 54.5286 25.3051L54.0835 25.9283C54.1058 25.6167 54.1948 25.3496 54.3506 25.1493C54.9515 24.3036 55.4189 23.4801 55.6637 22.4563L55.4189 22.7456L55.3744 22.4563L55.0183 22.9682V22.5676C54.6844 23.0795 54.4396 23.5691 53.9945 24.0588L54.4619 22.4563C54.7735 21.388 55.2186 20.4087 55.9976 19.5629L56.1311 18.8952L55.5747 19.0733C55.775 18.6282 56.1311 18.4724 56.5095 18.2275L57.5333 17.5598L55.775 18.2721L56.1088 17.7602L54.5064 18.8507L54.907 17.8492C55.1741 17.2037 55.4411 16.4693 55.9308 15.9351C56.8656 14.8668 58.3345 14.3772 59.7367 14.3104C60.0928 14.2881 60.4044 14.2659 60.7382 14.1991C59.6031 13.932 58.5793 14.3104 57.4888 14.4662C55.9308 14.6887 54.6177 15.7348 54.5064 17.2928C54.6844 16.9589 54.7735 16.6251 55.1296 16.4025C54.3951 17.9827 54.3506 19.0733 52.7926 19.7633C53.2155 19.8523 53.6384 19.8078 54.1503 19.6965C53.6829 20.698 53.5048 21.6551 53.4603 22.7011C53.2823 24.3704 53.2823 24.5929 52.0359 25.5722ZM58.0897 15.4232C58.7796 15.0894 59.4696 14.8668 60.2041 14.7778C59.4919 15.0448 58.8019 15.2674 58.0897 15.4232ZM66.8588 28.4878C66.9033 28.7104 66.9033 28.9107 66.8588 29.0888C66.8143 28.8439 66.8143 28.6436 66.8588 28.4878ZM64.2548 30.9138L64.4551 31.2477C64.4773 31.2922 64.2993 31.3589 64.2993 31.3367L64.188 31.0473C64.188 30.9806 64.277 30.847 64.2548 30.9138ZM67.8381 24.2591L67.1926 22.9905L67.8826 23.7472C67.9271 23.8139 68.0384 23.9475 68.0606 24.0365C68.0829 24.081 67.9049 24.2368 67.8381 24.2591ZM70.3531 25.5722L70.954 25.1493C70.6647 24.9713 71.2211 25.0381 71.2879 25.0826C70.9095 25.3274 70.7092 25.5055 70.3531 25.5722ZM70.7314 15.0226C71.9778 14.3326 71.7552 14.3772 71.8665 13.1976C71.911 13.3311 72.0446 13.6427 72.0223 13.7985C71.9778 14.4439 71.3324 15.0226 70.7314 15.0226ZM71.733 16.3135C71.644 15.9351 71.6217 15.7348 71.3324 15.579C71.3101 15.579 71.2433 15.4455 71.2211 15.4232C71.4437 15.4455 71.6662 15.579 71.7552 15.7348C71.8443 15.8461 71.822 16.2022 71.733 16.3135ZM75.0937 23.7917C75.027 24.2813 74.9602 24.7932 74.4705 25.1716C74.3593 24.5929 74.6931 24.1923 75.0937 23.7917ZM70.3531 28.3098C70.1305 27.9982 69.9525 27.6643 70.0637 27.3305C70.4866 27.8201 70.6869 28.3766 70.8205 28.9552L70.3531 28.3098ZM55.6192 32.1602C55.2853 31.0696 55.1073 30.9806 55.5524 30.1126C55.3744 31.4257 56.0866 31.448 55.6192 32.1602ZM57.3107 26.1732L57.9561 27.464C58.0452 27.6198 58.201 27.8647 58.2677 27.9982C58.5126 28.6659 58.2232 29.6452 57.8449 30.2461C57.1994 31.2699 56.7098 32.2047 56.5985 33.4511C55.4189 32.7166 55.9308 31.6038 56.3982 30.6467L56.5095 31.0919C57.6445 28.9997 57.5555 28.4656 57.3107 26.1732ZM56.6207 27.7089C56.5762 28.5323 56.3537 29.1778 56.0421 29.8455C55.8418 29.0888 55.9308 28.2208 56.6207 27.7089ZM59.247 20.7648L58.8464 21.5215C58.379 22.3895 58.0674 23.3688 58.29 24.2813L58.4458 23.6804C58.5348 24.6597 58.6016 25.5722 59.1135 26.4847C59.247 26.7073 59.3583 26.9966 59.3806 27.2637C58.0897 26.4625 57.8449 24.7265 57.4665 23.5914L57.3552 23.903L57.2439 23.4801L57.1327 24.0143C56.9323 23.4578 57.0214 23.0127 57.1104 22.5008L57.2662 21.6773C56.6875 22.5008 56.8433 23.4356 56.7988 24.4149C56.6875 24.7487 56.4204 25.1716 56.1979 25.4609C56.7765 22.5008 56.1534 21.0986 58.4681 18.8062C58.9132 18.3611 59.2248 17.9827 59.8257 17.7379C60.3599 17.5153 61.0943 17.2037 61.6953 17.2482C61.762 17.2482 61.8065 17.4931 61.7398 17.5376L61.5172 17.7156C61.7843 17.7379 62.0736 17.7824 62.3407 17.8937C61.3169 18.2721 59.9815 18.873 59.1803 19.5184C59.1357 19.5629 59.2248 19.83 59.247 19.7855C59.2693 19.7632 59.3806 19.6297 59.4251 19.6075L61.7843 18.4724C61.762 18.873 61.2724 18.8952 61.0276 19.1178C60.7605 19.3404 60.5379 19.4962 60.1818 19.4071C59.7589 19.7187 59.4919 20.2752 59.247 20.7648ZM62.9194 28.9997C62.6746 28.9552 62.5633 28.8439 62.63 28.6436L62.9194 28.9997ZM63.6761 32.8279C63.32 32.0489 62.9194 31.3144 62.0959 30.8916C61.8956 31.3812 63.1419 31.6928 63.0752 33.2062C62.63 32.8724 62.3184 32.6053 61.762 32.3382L61.9401 32.9614C61.9178 33.0059 61.762 33.1395 61.7175 33.0727L61.4727 32.8279C61.4059 32.7611 61.3391 32.6498 61.2946 32.6721L61.1388 32.7611L60.3376 32.1379L60.4044 32.4718L59.5586 32.227L59.8702 31.5593L59.0912 32.2937C59.2248 31.9154 59.3806 31.7596 59.6031 31.4257C58.3568 32.2047 58.0229 33.6959 58.1565 35.0313L57.0436 34.141L57.1994 33.0727C57.3552 32.0489 59.158 29.9123 59.158 28.3098C60.2041 29.4449 61.0053 30.758 60.8272 32.1602C61.1166 31.6928 61.4059 30.9806 61.0943 30.4242L60.0705 28.5991C60.4044 28.8439 60.6269 29.111 60.8495 29.3781L60.8272 28.7772C61.9623 29.801 63.7874 31.2922 63.6761 32.8279ZM62.0514 36.478L61.7175 35.6545C62.0291 35.8548 62.0959 36.1441 62.0514 36.478ZM63.8096 39.4381C63.6761 39.6829 63.6761 40.0168 63.6093 40.2838L63.3645 41.5079C62.363 41.1073 63.3422 40.0835 63.1197 39.4826L62.6745 40.1726C62.7413 39.7052 62.8081 39.3268 62.8971 38.9262L63.0307 39.3491L63.4535 38.6591L63.3422 39.9055C64.1212 38.4588 63.9209 38.7481 64.0099 37.3015C64.3883 38.0359 64.1435 38.7704 63.8096 39.4381ZM66.3024 36.4557C66.1021 37.8134 65.3453 38.9484 64.2993 39.8387C65.1228 37.6353 64.8112 37.8356 64.6109 35.6099C64.967 35.8325 65.1228 36.1441 65.2786 36.567C65.4566 35.8548 64.7444 34.9423 65.0338 34.8755C65.1005 34.8532 65.2118 34.831 65.2341 34.8755L65.3453 35.098C65.7014 35.8103 65.9463 36.478 65.9685 37.2569C66.614 35.7435 65.1005 34.2523 66.0798 34.4526C66.1911 34.9868 66.3914 35.8325 66.3024 36.4557ZM66.5695 37.8801C66.4804 37.6353 66.5249 37.3905 66.614 37.1679C67.0146 36.0996 67.1036 35.0535 67.1481 33.9407C67.571 35.3206 67.3262 36.656 66.5695 37.8801ZM68.261 36.0773L68.2164 34.6752C68.2164 34.6529 68.0161 34.5194 67.9939 34.4971L67.7936 33.5846L68.7061 32.9614C68.8396 33.8072 68.7506 35.5432 68.261 36.0773ZM70.0637 32.3827C69.8412 32.1157 69.7299 31.8931 69.9525 31.8708C70.1083 31.8486 70.175 32.3382 70.0637 32.3827ZM78.4767 41.1073L80.7692 41.5079C81.6372 41.6637 82.3939 41.8195 83.2397 42.0421C83.9296 42.2202 85.6434 42.643 85.3986 43.5556C85.1315 43.8672 84.8644 44.0897 84.5083 44.2678C84.6863 43.8226 84.8421 43.6223 84.7754 43.2885C84.5305 41.8195 78.8774 41.5747 78.41 41.3299C78.3655 41.2854 78.4545 41.1073 78.4767 41.1073ZM73.4245 41.6415C74.2035 42.7098 74.2257 42.3092 75.3163 42.8879C74.6263 43.0659 74.2257 43.0214 73.5358 43.0214L73.4245 41.6415ZM70.8427 38.0582C70.7314 37.5018 70.4644 35.6545 70.9985 35.3874C71.911 34.8977 72.9348 35.2984 73.6471 35.9438C74.4705 36.7228 75.3608 37.4127 75.9617 38.3698L77.4307 40.7067C77.809 41.3076 78.1429 41.8641 78.2987 42.5763C77.7868 42.8211 77.2749 42.8433 76.7407 42.7766C76.9633 42.2647 77.4307 41.7305 77.0301 41.1741L76.8965 41.7528L76.7185 41.1518L76.3624 42.1311C75.3608 42.6208 74.3148 42.2202 73.5803 41.5079C72.779 40.729 73.3355 40.8625 72.7345 40.5064C72.8681 41.3522 73.4245 43.0882 72.3784 43.511C72.2004 42.8656 72.4229 42.2869 71.911 41.775L71.9556 42.9991C71.9556 43.1995 71.6885 43.6669 71.4437 43.5778C70.2195 43.1772 71.2656 40.1058 70.8427 38.0582ZM66.9701 43.1549L67.3929 42.465C67.0591 42.554 66.7698 42.7321 66.4582 42.9546C65.1005 42.7098 65.0783 42.7098 63.9654 41.8418C64.2102 41.3522 64.5664 41.0628 65.0783 40.9293L65.4789 42.2424C65.7015 41.8418 66.6362 40.3729 67.2372 39.9945L67.9939 39.5271C67.6155 39.5494 67.3484 39.6161 67.0146 39.7052C66.1688 39.9055 66.0575 40.6177 65.9685 40.4619C65.9463 40.3951 65.8795 40.3506 65.9018 40.3284L66.0353 40.1948L66.1688 40.039C66.1911 40.0168 66.013 39.861 66.0353 39.8165C66.3914 39.3268 66.9923 38.4588 67.482 37.9469C68.0829 37.3015 68.6171 36.6115 69.0177 35.877C69.7076 35.3429 69.7521 34.5861 70.086 33.9185C70.4866 34.8755 70.086 36.2777 70.1973 37.4795C70.2863 38.4588 70.4199 39.3713 70.3753 40.3729C70.3531 40.818 70.3753 42.8656 70.2641 42.8433L69.9747 42.8211C70.3308 43.8004 71.1766 43.1549 70.7982 44.8019L70.6202 43.8449C70.2641 44.1342 70.5979 45.3361 69.7967 45.2693L69.5964 43.9339C69.3515 44.4236 69.4183 44.9577 68.9732 45.2026C68.7283 45.3361 68.35 45.3806 68.0384 45.4474C68.1274 44.5349 67.7713 43.7336 66.9701 43.1549ZM54.4841 37.1902C54.8402 35.3874 54.3283 33.7627 54.9738 32.0934L55.2186 33.6736C55.2854 34.0965 55.4189 34.4971 55.6415 34.831L55.3744 32.494C55.7082 33.1172 55.9753 33.4511 56.3759 33.8739C56.7098 34.2078 56.9769 34.6084 57.3997 34.8977C58.2455 35.4319 58.7574 36.1219 59.3806 36.8786L58.6906 35.4764C58.5126 35.1203 58.4235 34.7642 58.5126 34.3191L58.7796 34.8087C58.6906 34.0075 58.8464 33.184 59.247 32.405C59.4696 32.5608 59.6699 32.7166 59.8925 32.8724L60.805 33.4511C61.3169 33.7627 61.7175 34.2078 61.8288 34.831L60.5824 33.8294C60.3821 34.1188 61.2946 34.6974 61.3837 35.1426C61.2724 35.4096 61.2724 35.5654 61.3614 35.8103C61.9401 37.3905 62.1181 38.125 61.4282 39.8165C61.4282 39.1265 61.4282 38.5478 61.3391 37.9246C61.0943 38.7481 61.1833 39.4603 60.5157 40.1058L60.3376 39.1265C60.2931 38.9262 60.1818 38.6814 60.0483 38.5256L60.0928 39.4158L59.6699 38.6146L59.7367 39.9945C58.7796 39.7497 57.9784 39.6384 57.0659 39.9055C58.201 39.9723 59.2025 40.128 60.2263 40.5954L63.0529 41.8418C63.6761 42.1089 64.2103 42.6876 64.8334 42.8879L66.4359 43.3775C67.1036 43.6001 67.6378 44.2233 67.66 44.9577C67.66 45.1803 67.5265 45.4696 67.3929 45.5809C67.2594 45.6699 66.9033 45.6922 66.7475 45.6699C66.7475 45.1358 66.6362 44.6239 66.2134 44.3568C66.2356 44.8242 66.614 45.3583 66.2356 45.7367C65.9685 45.9815 65.1673 45.8035 65.0338 45.4919C64.7667 44.8687 64.6776 44.29 63.9877 44.3123C64.4328 44.6239 64.3661 45.3806 64.2103 45.5364C63.7651 46.0038 62.2294 44.98 61.8065 44.7574C61.2946 44.4681 60.5824 44.4458 59.9815 44.4013C58.8019 44.3123 57.7336 44.1342 56.5985 43.8004C54.5954 43.2217 54.7289 43.8449 53.9722 42.643C53.9054 42.5318 53.7942 42.3982 53.8387 42.2424C54.1057 41.2409 54.1725 40.3284 54.1948 39.3046C54.128 38.5923 54.3283 37.9024 54.4841 37.1902ZM61.0276 40.4842C60.9608 40.3284 61.0943 40.1058 61.2946 39.9945C61.2501 40.1726 61.1611 40.3284 61.0276 40.4842Z" fill="#190906"/>
<path d="M73.0911 27.7996C73.0461 27.7096 73.0461 27.7321 73.0911 27.7996V27.7996Z" fill="#190906"/>
<path d="M70.9763 37.6807C71.3102 38.2593 71.8443 39.3499 71.8666 40.0621C71.1544 39.0828 71.1099 38.9715 70.9763 37.6807Z" fill="#190906"/>
<path d="M60.1598 11.0385C59.403 11.3501 58.6908 11.862 58.1122 12.3739C57.1329 13.2642 56.9548 13.7538 55.3301 13.6648C56.4874 15.0225 57.8451 14.288 59.2918 13.7761C58.4237 13.6871 57.5557 14.199 56.9548 14.0654C57.6893 13.7761 58.2457 13.5313 58.8244 13.0639C58.4015 13.1084 58.2234 13.2865 57.8006 13.2642L59.6701 12.2627L58.9357 12.3294C59.7146 11.5727 62.2519 11.5059 63.2979 11.7953L62.0293 12.0401H64.2995L64.344 11.6395L65.2565 12.1514C64.3885 10.6824 61.6732 10.4154 60.1598 11.0385ZM62.4077 11.3501C62.1406 11.3946 61.8958 11.3946 61.6955 11.3501C61.9626 11.3056 62.1851 11.3056 62.4077 11.3501Z" fill="#190906"/>
<path d="M68.0609 15.044L67.8828 14.7101L67.727 15.0662C67.6157 14.3985 67.638 13.7531 67.3487 13.1744L66.7923 12.0393C66.9258 12.0171 67.0148 12.0393 66.9926 12.0171C66.6365 11.3049 65.2343 10.7484 64.4776 10.4814L64.7892 10.3923C63.6318 9.9472 63.1644 10.1698 62.0071 9.99172C63.2089 9.63561 64.3663 9.76915 65.5236 10.1253C67.8383 10.8597 69.0179 12.9073 68.0609 15.044Z" fill="#190906"/>
<path d="M65.3455 15.6018L65.1452 15.8689C65.123 15.9134 65.301 16.0692 65.2788 16.0692L64.9004 16.136C64.8559 16.136 64.9672 16.2473 64.9894 16.2695L65.1897 16.4698L64.3885 16.5589C64.344 16.5589 64.1659 16.6256 64.1437 16.6479C64.0992 16.6701 64.2104 16.7592 64.2772 16.8482L63.565 17.7162C63.1866 17.182 63.2757 15.8466 63.1199 15.9579L62.9641 16.0692C62.875 15.6908 62.786 15.0454 63.0086 14.7338C63.7431 14.1997 64.6111 14.578 65.0784 15.1344L64.5443 14.9564L64.7891 15.5351L65.2342 15.6908L65.0339 15.357C65.1452 15.3347 65.4123 15.5128 65.3455 15.6018Z" fill="#190906"/>
<path d="M65.6127 23.3695L64.945 23.5476C64.2773 22.8354 63.6541 21.8116 64.0325 20.8991C64.4108 20.0088 64.4998 18.985 65.034 18.0947C64.7002 19.2298 64.6556 20.9436 64.9895 22.0341C65.1675 22.5015 65.4346 22.9244 65.6127 23.3695Z" fill="#190906"/>
<path d="M62.6525 12.2415C63.9879 11.9521 65.4346 12.4418 66.1245 13.5991L65.5459 13.2653C64.5666 12.3973 62.0961 12.286 61.74 13.4656C61.6287 13.7994 61.5842 14.1778 61.4952 14.5339C61.3394 14.1778 61.1391 13.7549 61.1168 13.3988C61.0946 12.8202 61.6955 12.3305 62.1851 12.1747L62.6525 12.2415Z" fill="#190906"/>
<path d="M71.7331 20.3865C71.5551 19.4295 70.2419 19.1401 70.7316 18.3389C70.8429 18.1608 70.9542 17.7602 70.8206 17.6044L70.3532 16.959C70.1529 17.3596 70.331 17.6489 70.3977 18.0496C70.4423 18.3166 69.9081 18.2944 69.73 18.3166L68.3279 18.4724C69.6633 18.9843 69.1291 19.0511 70.2419 19.2959C70.8429 19.4072 71.3325 19.9636 71.7331 20.3865ZM69.7523 19.0066L69.4852 18.8508C69.4407 18.8285 69.4185 18.5615 69.4852 18.5837C69.552 18.606 69.6855 18.6282 69.73 18.6727L69.9081 18.8731C69.9304 18.9176 69.7968 19.0289 69.7523 19.0066Z" fill="#190906"/>
<path d="M68.1942 21.3428C67.7713 21.0535 67.5933 20.408 67.7491 19.9629C67.9494 20.4303 68.2165 21.009 68.7061 21.3206L69.5964 21.6321C68.9955 21.8547 68.5281 21.5654 68.1942 21.3428Z" fill="#190906"/>
<path d="M71.5107 17.4717C71.6665 17.8946 71.533 18.2062 71.2437 18.3842L71.5107 17.4717Z" fill="#190906"/>
<path d="M54.729 40.5072C54.5955 41.2861 54.7958 42.2654 55.508 42.7773C56.1089 43.2002 56.8434 43.3783 57.5111 43.6676C56.5318 43.8011 55.508 43.445 54.7958 42.7996C54.0836 42.1764 54.3061 40.1511 54.9293 39.3721L54.729 40.5072Z" fill="#190906"/>
<path d="M61.3171 17.9609L60.5604 18.3393L58.624 19.5634C59.1582 18.6286 60.2043 18.0945 61.3171 17.9609Z" fill="#190906"/>
<path d="M32.5394 22.7675C32.4949 21.6992 32.2946 20.7422 31.8495 19.7629C32.3614 19.8742 32.7843 19.9409 33.2071 19.8297C31.6492 19.162 31.6047 18.0491 30.8702 16.4689C31.2263 16.6915 31.3153 17.0253 31.4934 17.3592C31.3821 15.8012 30.069 14.7552 28.511 14.5326C27.4204 14.3768 26.3966 13.9984 25.2615 14.2655C25.5954 14.3323 25.907 14.3545 26.2631 14.3768C27.6875 14.4658 29.1342 14.9555 30.069 16.0015C30.5363 16.5357 30.8257 17.2701 31.0928 17.9156L31.4934 18.9171L29.8909 17.8266L30.2248 18.3385L28.4665 17.6262L29.4903 18.2939C29.8686 18.5388 30.2247 18.7168 30.4251 19.1397L29.8686 18.9616L30.0022 19.6293C30.7589 20.4751 31.2263 21.4544 31.5379 22.5227L32.0053 24.1252C31.5601 23.6355 31.3153 23.1459 30.9815 22.634V23.0346L30.6254 22.5227L30.5809 22.812L30.336 22.5227C30.5809 23.5465 31.026 24.37 31.6492 25.2158C31.805 25.4383 31.894 25.6831 31.9163 25.9947L31.4711 25.3715C31.6492 26.1728 32.0943 26.8405 32.0053 27.6195C31.805 26.7515 31.5602 25.928 30.937 25.2825C31.2708 26.2841 31.7827 27.1521 31.6047 28.1981C31.5379 27.7307 31.4711 27.2856 31.2708 26.8182L30.2693 24.5035C30.2025 24.37 30.0244 24.1474 29.9132 23.9916C30.069 24.9487 30.4473 25.2603 30.6254 26.1728C30.069 25.4828 29.6238 24.5703 29.6683 23.6578L29.7351 22.2556C29.8019 22.3224 29.8686 22.3669 29.8686 22.4114L29.9354 22.6785C30.2248 21.8105 29.9354 20.9647 29.6016 20.0967C29.379 19.5403 29.1564 19.0952 28.7113 18.6278C29.1342 18.5165 29.1787 19.0284 29.6238 18.9616C28.8894 18.2272 26.953 17.0921 25.9515 16.7137C25.6176 16.5802 25.3506 16.4021 25.128 16.1573C25.8402 16.1573 26.5969 16.7137 27.0643 16.4689L26.4189 16.3799C28.1771 15.9125 29.0229 16.1573 30.3583 17.3814C29.8909 16.3576 29.0452 15.5341 27.9323 15.2003L26.0183 14.6216C25.6621 14.5103 25.2393 14.4658 24.9499 14.5103C25.5731 15.2893 27.0866 15.4674 27.9768 15.8902C27.4204 15.9125 26.7082 15.8012 26.174 15.5564L24.6161 14.7997L24.5493 15.0222C23.7926 14.8442 24.0374 13.3307 22.2346 13.353C21.2776 13.3752 19.7196 14.1097 19.23 14.7329C19.141 14.8442 19.0964 15.2003 19.0742 15.3116C19.3858 15.0222 19.5861 14.8664 19.9199 14.6884L20.0312 15.4674C20.276 14.9332 20.4318 14.5548 20.8992 14.221C21.5892 13.7313 22.5685 13.5978 23.2139 14.1765C23.7036 14.6216 23.7703 15.4006 23.659 16.046C23.5478 16.7805 23.1026 17.4037 22.6575 17.9824L21.9453 17.6708L22.3904 18.561C23.0581 19.9187 22.9246 20.2525 22.6798 21.3209C22.3459 22.6562 21.9898 23.9694 20.8992 24.9264V25.3048L19.6751 26.8182C18.4065 28.3762 18.4287 31.0025 20.098 32.0708C19.6751 31.5144 19.1855 31.2028 19.2745 30.5351C19.4525 30.7799 19.6529 31.0247 19.8532 31.1805C19.4303 30.2235 19.2077 29.4668 19.4303 28.5988C19.4971 29.7784 19.5193 30.6909 20.4764 31.4921C19.8087 30.6018 19.5638 29.578 20.098 28.532C21.3666 25.9947 23.7481 24.0584 24.1042 22.2556C24.1932 21.8105 24.0374 21.1873 23.9706 20.7422L23.8148 19.7184C24.5493 20.3638 25.4396 21.5212 25.7734 22.1443L25.7512 21.5879C26.5079 22.9678 26.5747 24.6148 25.8402 26.0392C25.7957 26.106 25.5954 26.2618 25.5509 26.195C25.2393 25.7722 26.6192 24.6593 25.7067 22.7675C25.907 23.8804 25.6399 25.2158 25.2393 26.3508L25.3728 26.3954C25.4173 26.4176 25.3506 26.6179 25.306 26.6402L24.3267 27.8643L24.3045 27.6195C24.26 27.1298 22.3014 29.5335 22.1901 29.578C22.1011 29.4445 22.2124 29.2665 22.2569 29.1329L22.5462 27.9978L22.7465 27.1743C22.613 27.3524 22.5685 27.4637 22.3904 27.5304L24.0374 24.4813C23.5923 24.6148 23.6813 25.0377 23.4365 25.3048L22.9468 25.8167C22.5017 26.2841 22.2124 26.9295 21.9675 27.5527C21.6782 28.3317 21.9453 29.1552 21.9675 29.9564L21.5447 30.9802C21.4334 31.225 21.4556 31.5366 21.4334 31.8037C21.2998 32.872 21.5892 33.7178 22.2124 34.6748C21.8118 34.4745 21.7227 34.0739 21.4334 33.8068C21.1218 33.5175 20.6989 33.2281 20.3651 33.0056C20.2538 33.0723 20.0312 33.0946 19.9422 33.0278L19.0964 32.1821C18.7403 31.8482 18.6291 31.3141 18.362 30.8912C18.3842 31.4254 18.7181 31.7814 18.8294 32.3824C18.4065 31.9595 18.2507 31.4921 18.0059 31.0025L18.3175 32.5159C17.583 31.9373 17.1824 31.2695 16.804 30.5351L17.3159 32.2934C16.3366 31.4699 16.025 30.3348 15.7134 29.1107L15.4686 30.268C15.157 29.7116 15.3573 29.1552 15.5354 28.71C15.6244 28.7768 15.7134 28.8213 15.7134 28.8213C15.7134 28.8213 15.7802 28.71 15.8025 28.6878L15.9583 28.2872C15.936 28.6433 15.936 28.9103 16.025 29.2665L16.1586 28.6655L16.4479 29.5558L16.5592 29.2442L16.7595 30.1345L16.8263 29.2442L16.9821 29.6448L17.0711 29.0439C17.1824 29.5335 17.2491 29.9787 17.583 30.3793C17.6053 30.0677 17.5607 29.6893 17.5385 29.4L18.4287 26.3954L18.4733 27.2411C18.8516 26.1283 18.4287 25.1045 19.2745 23.8358C20.4541 22.0553 21.055 20.1858 20.2315 18.3162C20.3206 18.8949 20.2315 19.1842 20.1425 19.5848C19.9422 20.4973 19.9199 21.4321 19.1855 22.1221C18.6068 22.6785 18.0059 23.3239 17.6498 24.0361C17.6943 24.2142 17.7165 24.3923 17.6943 24.5481V24.8374C17.6943 24.8819 17.6498 24.8819 17.583 24.8374L17.4495 24.7706L17.6052 25.3938L17.3604 25.1935L17.4049 25.7722L17.1601 25.4828L17.0711 25.7277C17.0488 25.7722 16.9821 25.7499 16.804 25.7277L16.4257 26.5512L16.3366 26.2841C16.0695 26.5734 15.7357 26.7515 15.4018 26.7069L15.3128 26.9963C15.3128 27.0185 15.2015 26.9963 15.2015 26.974C15.1793 26.9518 15.157 26.885 15.1348 26.8627C15.0235 27.0853 14.9122 27.2411 14.7119 27.3301C14.6896 27.3969 14.6451 27.575 14.5784 27.5527L14.4003 27.4414L14.3335 27.9311L14.1332 27.5304L13.9329 28.2204L13.8216 27.7975L13.6213 28.3094L13.421 27.7085L13.3765 28.3762L12.8201 27.7975C12.8201 27.7975 12.8201 27.7975 12.8201 27.8198L12.6865 28.0423C12.4862 27.7753 12.2859 27.4637 12.0856 27.0853L11.9298 27.3524L11.7072 26.6179C11.6182 26.3286 11.774 25.8167 11.8853 25.5051C12.5753 25.7722 13.2207 26.1283 13.9107 26.2173L15.4018 26.4176C15.758 26.4621 16.3144 26.3953 16.2921 25.928C16.2699 25.4161 15.7134 25.1712 15.3128 24.9932L16.1141 25.0377C15.7802 24.9264 15.5799 24.8597 15.3128 24.6148L15.8025 24.459L15.5354 24.3255C15.4686 24.3032 15.5576 24.0807 15.5799 24.0584L16.3144 23.9916L15.5354 23.9249C15.4686 23.6355 15.3796 23.3684 15.1348 23.2572L15.3128 23.6578C14.5561 23.9471 13.8884 23.9249 13.0872 23.9916C13.7994 24.0362 14.4893 24.0139 15.3128 23.9694C14.7341 24.5481 13.9997 24.3255 13.2207 24.4368C13.8661 24.6148 14.4671 24.5703 15.2015 24.37C15.2238 24.5258 15.1125 24.7706 15.0235 24.7706L14.5784 24.7484C14.5116 24.7484 14.378 24.7038 14.378 24.7484V24.9932L13.4655 24.9264C13.7771 25.3938 14.5784 24.8597 15.0012 25.6609L14.6229 25.5941L14.6896 25.9502C13.4433 26.0615 11.3066 25.3048 11.4402 23.9916C11.596 22.5672 13.1317 23.4352 12.8646 22.1221C12.7533 22.4114 12.6865 22.5895 12.4195 22.723C12.2637 22.7898 11.9743 22.723 11.7295 22.6785L10.7725 22.723C10.6612 22.723 10.4386 22.6117 10.3719 22.5227C10.1048 22.1221 12.3082 19.9187 12.7533 19.4735C13.9774 18.2494 12.6865 18.1382 13.8439 17.0476C14.5338 16.4021 15.2238 15.6232 16.0918 15.178L17.0043 14.7329L17.3159 14.8887C18.4065 15.4228 15.4909 12.574 18.4065 10.6822C18.2507 10.7267 18.0726 10.7712 17.9614 10.838C17.9391 10.838 17.8278 10.7267 17.8278 10.7267C17.8278 10.7267 18.0059 10.6599 18.0281 10.6377L19.0297 10.1035C17.7165 10.3483 16.4257 11.1051 16.3144 12.485C16.2699 13.1304 16.4702 13.7313 16.626 14.4436C15.7134 13.7981 15.2683 12.6408 15.5799 11.617L16.0028 10.7267C15.2683 11.3499 15.2683 12.2179 15.3128 13.0859C14.9345 12.6408 14.8899 12.0621 15.0903 11.5724C14.0442 12.2624 14.6896 13.9762 15.3796 14.5771L15.847 14.9109C15.3796 14.8219 14.9345 14.6439 14.6229 14.3768C14.1332 13.9539 14.2 13.3752 14.2445 12.7521C13.51 13.4643 13.6658 14.6439 14.5561 15.1558L13.9552 15.6899L13.8884 16.6024C12.3082 17.8933 13.6213 18.2717 12.4862 19.4068C11.685 20.1858 10.9728 21.0093 10.3273 21.8995C10.1048 22.2334 10.1048 22.6562 10.2606 22.9678C10.7502 23.9694 10.4831 24.9709 11.5737 25.7277L11.3289 26.7292C11.2176 27.1298 11.2399 27.6417 11.685 27.8198C11.9298 27.9756 12.1079 28.443 12.2859 28.7323L12.3527 28.1314L13.0649 29.0439L13.1762 28.7546L13.4655 29.2219L13.6213 28.9104L13.9774 29.4445L14.2 28.7323C14.2668 28.5097 14.4893 28.3984 14.6451 28.2649L15.4241 27.5972L14.8454 28.8213C14.4893 29.5558 14.8454 30.3793 15.068 31.047L15.1793 30.5573C15.3573 30.8689 15.4018 31.0915 15.3573 31.3586C15.1793 32.6049 15.157 33.7845 15.2015 35.0309C14.289 34.6971 13.3988 34.7416 12.642 35.2312C11.3066 36.0992 10.1493 37.2343 9.28128 38.5697C8.83614 39.2597 8.45778 39.9496 7.94588 40.6173L5.36411 41.018C4.31805 41.1737 3.33877 41.3963 2.33722 41.6634C1.31341 41.9305 -0.021982 42.3756 0.000274573 43.5107C0.0447878 45.7809 7.21141 45.8921 8.92517 45.3357C7.81234 45.0686 1.75855 44.9351 1.7808 43.5997C1.7808 42.8652 6.27663 42.2198 7.1669 42.0417C7.21141 42.2643 7.18916 42.5536 7.12239 42.7762L4.74093 42.843C4.25128 42.8652 3.7839 43.021 3.31651 43.1323C4.11775 43.3104 5.49766 43.3994 6.34341 43.3104C7.18916 43.2214 7.90137 43.4662 8.7026 43.5329L12.3972 43.889L14.5561 44.4009C14.6229 44.6458 14.6896 45.1132 14.8454 45.2912C15.9583 46.5153 17.6943 45.7809 18.6736 46.0479C18.9629 46.1147 19.2968 46.3595 19.5861 46.3818C20.4096 46.4708 21.1218 46.4263 21.923 46.3373C23.8148 46.1592 23.8594 45.0687 25.8402 44.9796C26.6192 44.9351 27.3759 44.8906 28.1326 44.7571L31.115 44.2452C31.5824 44.1561 32.1833 44.1561 32.5394 43.8C32.8288 43.4884 32.9623 42.7985 32.851 42.4201C32.2056 39.9941 32.584 39.8829 32.2501 38.1691C32.0721 37.2121 31.894 36.3441 31.8717 35.3648C31.8495 34.6526 31.8272 33.9849 31.7382 33.2726C31.6269 32.3379 32.0498 33.1168 32.0498 31.1583C32.0498 30.5128 32.0721 29.8896 32.3836 29.3332C33.0959 28.0646 33.0291 26.7515 32.3836 25.4606C33.0291 25.6164 33.4074 25.7277 33.9639 25.6386C32.6062 24.5926 32.6062 24.37 32.5394 22.7675ZM25.6844 14.7774C26.4411 14.8664 27.1088 15.089 27.7988 15.4229C27.0866 15.2671 26.3966 15.0445 25.6844 14.7774ZM19.0297 29.0662C18.9852 28.8881 18.9852 28.6878 19.0297 28.4652C19.0742 28.6433 19.0742 28.8436 19.0297 29.0662ZM21.7005 31.0247L21.5892 31.3141C21.5892 31.3363 21.4111 31.2696 21.4334 31.225L21.6337 30.8912C21.6114 30.8467 21.7227 30.9802 21.7005 31.0247ZM17.8501 24.0139C17.8946 23.9471 17.9836 23.7913 18.0281 23.7246L18.7181 22.9678L18.0726 24.2365C18.0059 24.2365 17.8056 24.0807 17.8501 24.0139ZM14.6229 25.0822C14.6674 25.0377 15.2238 24.9709 14.9567 25.149L15.5576 25.5719C15.1793 25.5051 14.979 25.327 14.6229 25.0822ZM13.8661 13.7981C13.8439 13.6423 13.9774 13.3307 14.0219 13.1972C14.1332 14.3768 13.9107 14.3323 15.157 15.0222C14.5561 15.0222 13.9107 14.4435 13.8661 13.7981ZM14.1332 15.7122C14.2222 15.5786 14.4671 15.4451 14.6674 15.4006C14.6451 15.4228 14.5784 15.5341 14.5561 15.5564C14.289 15.7122 14.2668 15.9125 14.1555 16.2909C14.0664 16.2018 14.0442 15.8457 14.1332 15.7122ZM11.4179 25.1712C10.9283 24.7929 10.8392 24.2587 10.7947 23.7913C11.1953 24.1919 11.5515 24.5926 11.4179 25.1712ZM15.0903 28.9549C15.2015 28.3762 15.4241 27.8198 15.847 27.3301C15.9583 27.664 15.758 27.9978 15.5576 28.3094L15.0903 28.9549ZM30.3583 30.1122C30.8034 30.9802 30.6254 31.0692 30.2915 32.1598C29.8019 31.4476 30.5363 31.4254 30.3583 30.1122ZM29.379 31.1138L29.4903 30.6686C29.9577 31.6257 30.4473 32.7607 29.29 33.473C29.1787 32.2266 28.689 31.2695 28.0436 30.268C27.6652 29.6671 27.3982 28.6878 27.6207 28.0201C27.7098 27.8865 27.8656 27.6195 27.9323 27.4859L28.5778 26.195C28.3329 28.4652 28.2439 28.9994 29.379 31.1138ZM29.8686 29.8451C29.5571 29.1552 29.3345 28.532 29.29 27.7085C29.9577 28.2204 30.0467 29.0884 29.8686 29.8451ZM25.7289 19.3845C25.3728 19.4513 25.1502 19.2955 24.8832 19.0952C24.6383 18.8949 24.1487 18.8726 24.1264 18.4497L26.4856 19.5848C26.5302 19.6071 26.6414 19.7406 26.6637 19.7629C26.6859 19.8074 26.775 19.5403 26.7305 19.4958C25.9292 18.8504 24.5938 18.2494 23.57 17.8711C23.8371 17.7598 24.1264 17.7153 24.3935 17.693L24.1709 17.515C24.1264 17.4705 24.1487 17.2256 24.2155 17.2256C24.7941 17.1811 25.5509 17.4927 26.085 17.7153C26.6859 17.9824 26.9975 18.3607 27.4427 18.7836C29.7574 21.076 29.1342 22.4782 29.7129 25.4383C29.468 25.1267 29.2009 24.7039 29.1119 24.3923C29.0674 23.3907 29.2232 22.4559 28.6445 21.6547L28.8003 22.4782C28.8894 22.9901 28.9784 23.4575 28.7781 23.9916L28.6668 23.4575L28.5555 23.8804L28.4442 23.5688C28.0436 24.7039 27.7988 26.4176 26.5302 27.2411C26.5524 26.974 26.6637 26.7069 26.7972 26.4621C27.3091 25.5719 27.3759 24.6593 27.4649 23.6578L27.6207 24.2587C27.8433 23.3462 27.5317 22.3669 27.0643 21.4989L26.6637 20.7422C26.3966 20.2748 26.1295 19.7184 25.7289 19.3845ZM23.2584 28.6655C23.3029 28.8436 23.2139 28.9549 22.9691 29.0216L23.2584 28.6655ZM25.0612 28.7323L25.039 29.3332C25.2615 29.0662 25.4841 28.7991 25.8179 28.5543L24.7941 30.3793C24.4825 30.9357 24.7719 31.6479 25.0612 32.1153C24.8832 30.7131 25.6844 29.4 26.7305 28.2649C26.7527 29.8451 28.5555 32.004 28.689 33.0278L28.8448 34.0961L27.732 34.9864C27.8878 33.651 27.5317 32.1376 26.2853 31.3808C26.5079 31.7147 26.6637 31.8705 26.7972 32.2488L26.0183 31.5144L26.3298 32.1821L25.4841 32.4269L25.5509 32.093L24.7496 32.7162L24.5938 32.6272C24.5716 32.6049 24.4825 32.7162 24.4158 32.783L24.1709 33.0278C24.1264 33.0723 23.9706 32.9611 23.9484 32.9165L24.1264 32.2934C23.57 32.5604 23.2362 32.8275 22.8133 33.1614C22.7465 31.6702 23.9929 31.3363 23.7926 30.8467C22.9691 31.2696 22.5462 32.004 22.2124 32.783C22.1011 31.2918 23.9484 29.8006 25.0612 28.7323ZM24.1709 35.6541L23.8371 36.4776C23.7926 36.1437 23.8594 35.8544 24.1709 35.6541ZM21.8563 37.3011C21.9453 38.7478 21.745 38.4362 22.524 39.9051L22.4127 38.6587L22.8356 39.3487L22.9691 38.9258C23.0804 39.3487 23.1471 39.7048 23.1917 40.1722L22.7465 39.4822C22.524 40.0832 23.5033 41.107 22.5017 41.5076L22.2569 40.2835C22.1901 39.9941 22.1901 39.6825 22.0566 39.4377C21.745 38.77 21.5002 38.0356 21.8563 37.3011ZM19.8309 34.4077C20.7879 34.2074 19.2745 35.6986 19.9422 37.2121C19.9645 36.4553 20.187 35.7654 20.5654 35.0532L20.6767 34.8306C20.6989 34.7861 20.8102 34.8083 20.877 34.8306C21.1663 34.9196 20.4764 35.8099 20.6321 36.5221C20.7879 36.1215 20.9437 35.7876 21.2998 35.5651C21.0995 37.7907 20.7879 37.5904 21.6114 39.7938C20.5654 38.9036 19.8087 37.7462 19.6083 36.4108C19.4971 35.8322 19.6974 34.9864 19.8309 34.4077ZM18.7403 33.9403C18.7849 35.0532 18.8739 36.0992 19.2745 37.1675C19.3635 37.3901 19.408 37.6349 19.319 37.8798C18.5623 36.6556 18.3175 35.3202 18.7403 33.9403ZM17.1601 32.9388L18.0726 33.562L17.8723 34.4745C17.8723 34.4968 17.6498 34.6303 17.6498 34.6526L17.6052 36.0547C17.1379 35.5428 17.0488 33.8068 17.1601 32.9388ZM15.936 31.8705C16.1586 31.8927 16.0473 32.1153 15.8247 32.3824C15.7134 32.3379 15.7802 31.8482 15.936 31.8705ZM7.47849 41.3073C7.03336 41.5744 1.38018 41.8192 1.11311 43.2659C1.04634 43.5997 1.20213 43.8 1.38018 44.2452C1.02407 44.0671 0.756995 43.8445 0.489916 43.5329C0.245093 42.6204 1.95886 42.1976 2.64881 42.0195C3.4723 41.7969 4.25129 41.6411 5.1193 41.4853L7.41172 41.0847C7.43398 41.107 7.523 41.285 7.47849 41.3073ZM12.3527 43.021C11.6627 43.021 11.2844 43.0656 10.5722 42.8875C11.6627 42.3088 11.685 42.7095 12.464 41.6411L12.3527 43.021ZM14.4671 43.5775C14.2222 43.6665 13.9329 43.1991 13.9552 42.9988L13.9997 41.7747C13.4878 42.2643 13.7103 42.843 13.5323 43.5107C12.464 43.0878 13.0426 41.3518 13.1762 40.506C12.5975 40.8621 13.1317 40.7286 12.3304 41.5076C11.596 42.2421 10.5499 42.6204 9.54836 42.1308L9.19225 41.1515L9.0142 41.7524L8.88066 41.1737C8.48004 41.7302 8.94743 42.2643 9.16999 42.7762C8.65809 42.843 8.12393 42.8207 7.61203 42.5759C7.76783 41.8414 8.10168 41.285 8.48004 40.7064L9.94898 38.3694C10.5499 37.4124 11.4402 36.7224 12.2637 35.9434C12.9536 35.298 13.9774 34.8974 14.9122 35.387C15.4464 35.6541 15.1793 37.5014 15.068 38.0578C14.6451 40.1054 15.6912 43.1768 14.4671 43.5775ZM17.8946 45.4693C17.583 45.4025 17.2046 45.3357 16.9598 45.2244C16.5147 45.0019 16.5814 44.4677 16.3366 43.9558L16.1363 45.2912C15.3351 45.3357 15.6689 44.1339 15.3128 43.8668L15.1348 44.8238C14.7564 43.1768 15.5799 43.8445 15.9583 42.843L15.6689 42.8652C15.5576 42.8652 15.5799 40.8399 15.5576 40.3948C15.5131 39.4155 15.6467 38.4807 15.7357 37.5014C15.847 36.2995 15.4241 34.8974 15.847 33.9403C16.1808 34.608 16.2476 35.3648 16.9153 35.8989C17.3159 36.6334 17.8501 37.3011 18.451 37.9688C18.9184 38.4807 19.5416 39.3487 19.8977 39.8383C19.9199 39.8829 19.7419 40.0164 19.7641 40.0609L19.8977 40.2167L20.0312 40.3503C20.0535 40.3725 20.009 40.4393 19.9645 40.4838C19.8754 40.6396 19.7641 39.9274 18.9184 39.7271C18.5845 39.638 18.2952 39.5935 17.9391 39.549L18.6958 40.0164C19.2968 40.3725 20.2315 41.8637 20.4541 42.2643L20.8547 40.9512C21.3666 41.0847 21.745 41.3741 21.9675 41.8637C20.8325 42.7095 20.8325 42.7317 19.4748 42.9765C19.1632 42.7762 18.8739 42.5982 18.54 42.4869L18.9629 43.1768C18.1172 43.7332 17.761 44.5345 17.8946 45.4693ZM31.7605 39.3264C31.7605 40.3502 31.8495 41.2628 32.1166 42.2643C32.1611 42.4201 32.0498 42.5314 31.983 42.6649C31.2263 43.8668 31.3598 43.2436 29.3567 43.8223C28.2217 44.1561 27.1533 44.3342 25.9737 44.4232C25.3728 44.4677 24.6829 44.5122 24.1487 44.7793C23.7258 45.0019 22.1679 46.0257 21.745 45.5583C21.5892 45.4025 21.5224 44.6458 21.9675 44.3342C21.2553 44.2897 21.1886 44.8906 20.9215 45.5138C20.788 45.8254 19.9867 46.0034 19.7196 45.7586C19.319 45.3802 19.7196 44.8461 19.7419 44.3787C19.2968 44.668 19.2077 45.1577 19.2077 45.6918C19.0519 45.7141 18.6958 45.6918 18.5623 45.6028C18.4287 45.5138 18.2729 45.2022 18.2952 44.9796C18.3175 44.2674 18.8294 43.622 19.5193 43.3994L21.1218 42.9098C21.7672 42.7095 22.2791 42.153 22.9023 41.8637L25.7289 40.6173C26.7527 40.1722 27.7765 39.9941 28.8894 39.9274C27.9546 39.638 27.1756 39.7493 26.2186 40.0164L26.2853 38.6365L25.8625 39.4377L25.907 38.5475C25.7957 38.7033 25.6621 38.9258 25.6176 39.1484L25.4396 40.1277C24.7719 39.46 24.8609 38.77 24.6161 37.9465C24.5271 38.592 24.5271 39.1484 24.5271 39.8383C23.8371 38.1468 24.0152 37.4346 24.5938 35.8322C24.6829 35.5873 24.7051 35.4538 24.5716 35.1645C24.6606 34.7193 25.5731 34.1407 25.3728 33.8513L24.1264 34.8529C24.2377 34.2074 24.6383 33.7845 25.1502 33.473L26.0628 32.8943C26.2853 32.7385 26.5079 32.6049 26.7082 32.4269C27.0866 33.2059 27.2424 34.0294 27.1756 34.8306L27.4427 34.341C27.5317 34.7861 27.4427 35.1422 27.2646 35.4983L26.5747 36.9005C27.1979 36.1215 27.732 35.4538 28.5555 34.9196C28.9784 34.6526 29.2455 34.2519 29.5793 33.8958C29.9799 33.473 30.247 33.1391 30.5809 32.5159L30.3138 34.8529C30.5363 34.4968 30.6921 34.0961 30.7367 33.6955L30.9815 32.1153C31.6269 33.7623 31.0928 35.4093 31.4711 37.2121C31.5601 37.902 31.7605 38.592 31.7605 39.3264ZM24.5938 40.0164C24.7941 40.1277 24.9054 40.328 24.8609 40.506C24.7274 40.328 24.6383 40.1722 24.5938 40.0164Z" fill="#190906"/>
<path d="M12.7976 27.7996C12.8426 27.7096 12.8426 27.7321 12.7976 27.7996V27.7996Z" fill="#190906"/>
<path d="M14.9122 37.6807C14.5784 38.2593 14.0442 39.3499 14.022 40.0621C14.7342 39.0828 14.7787 38.9715 14.9122 37.6807Z" fill="#190906"/>
<path d="M20.6096 12.1514L21.5221 11.6395L21.5667 12.0401H23.8368L22.5682 11.7953C23.6143 11.5059 26.1515 11.5727 26.9305 12.3294L26.196 12.2627L28.0656 13.2642C27.6427 13.2865 27.4647 13.0861 27.0418 13.0639C27.6205 13.5313 28.1991 13.7761 28.9113 14.0654C28.3104 14.199 27.4424 13.6648 26.5744 13.7761C28.0211 14.288 29.401 15.0447 30.5361 13.6648C28.9113 13.7761 28.7333 13.2642 27.754 12.3739C27.1753 11.8398 26.4631 11.3279 25.7064 11.0385C24.2375 10.4154 21.4999 10.6824 20.6096 12.1514ZM24.2152 11.3501C23.9926 11.3946 23.7701 11.3946 23.503 11.3501C23.7033 11.3056 23.9481 11.3056 24.2152 11.3501Z" fill="#190906"/>
<path d="M17.8277 15.044L18.0058 14.7101L18.1616 15.0662C18.2729 14.3985 18.2506 13.7531 18.5399 13.1744L19.0964 12.0393C18.9628 12.0171 18.8738 12.0393 18.896 12.0171C19.2522 11.3049 20.6543 10.7484 21.411 10.4814L21.0994 10.3923C22.2568 9.9472 22.7242 10.1698 23.8815 9.99172C22.6797 9.63561 21.5223 9.76915 20.365 10.1253C18.0726 10.8597 16.8707 12.9073 17.8277 15.044Z" fill="#190906"/>
<path d="M20.5429 15.6018L20.7433 15.8689C20.7655 15.9134 20.5875 16.0692 20.6097 16.0692L20.9881 16.136C21.0326 16.136 20.9213 16.2473 20.8991 16.2695L20.6987 16.4698L21.5 16.5589C21.5445 16.5589 21.7225 16.6256 21.7448 16.6479C21.7893 16.6701 21.678 16.7592 21.6113 16.8482L22.3235 17.7162C22.7018 17.182 22.6128 15.8466 22.7686 15.9579L22.9244 16.0692C23.0134 15.6908 23.1025 15.0454 22.8799 14.7338C22.1454 14.1997 21.2774 14.578 20.81 15.1344L21.3442 14.9564L21.0994 15.5351L20.6542 15.6908L20.8545 15.357C20.7433 15.3347 20.4984 15.5128 20.5429 15.6018Z" fill="#190906"/>
<path d="M20.2761 23.3695L20.9438 23.5476C21.6115 22.8354 22.2347 21.8116 21.8563 20.8991C21.478 20.0088 21.389 18.985 20.8548 18.0947C21.1886 19.2298 21.2332 20.9436 20.8993 22.0341C20.7213 22.5015 20.4542 22.9244 20.2761 23.3695Z" fill="#190906"/>
<path d="M23.2364 12.2415C21.901 11.9521 20.4544 12.4418 19.7644 13.5991L20.3431 13.2653C21.3224 12.3973 23.7929 12.286 24.149 13.4656C24.2602 13.7994 24.3048 14.1778 24.3938 14.5339C24.5496 14.1778 24.7499 13.7549 24.7721 13.3988C24.7944 12.8202 24.1935 12.3305 23.7038 12.1747L23.2364 12.2415Z" fill="#190906"/>
<path d="M15.6689 19.2735C16.7818 19.0286 16.2476 18.9619 17.583 18.45L16.1808 18.2942C15.9805 18.2719 15.4686 18.3164 15.5131 18.0271C15.5799 17.6265 15.7357 17.3371 15.5576 16.9365L15.0903 17.582C14.979 17.7378 15.068 18.1384 15.1793 18.3164C15.6689 19.1399 14.3558 19.407 14.1777 20.364C14.5561 19.9634 15.0457 19.407 15.6689 19.2735ZM15.9805 18.8729L16.1586 18.6725C16.2031 18.628 16.3366 18.6058 16.4034 18.5835C16.4702 18.5612 16.4479 18.8061 16.4034 18.8506L16.1363 19.0064C16.0918 19.0286 15.9583 18.9174 15.9805 18.8729Z" fill="#190906"/>
<path d="M17.6942 21.3428C18.117 21.0535 18.2951 20.408 18.1393 19.9629C17.939 20.4303 17.6719 21.009 17.1823 21.3206L16.292 21.6321C16.8929 21.8547 17.3603 21.5654 17.6942 21.3428Z" fill="#190906"/>
<path d="M14.3781 17.4717C14.2223 17.8946 14.3558 18.2062 14.6451 18.3842L14.3781 17.4717Z" fill="#190906"/>
<path d="M31.1595 40.5072C31.2931 41.2861 31.0927 42.2654 30.3805 42.7773C29.7796 43.2002 29.0451 43.3783 28.3774 43.6676C29.3567 43.8011 30.3805 43.445 31.0927 42.7996C31.805 42.1764 31.5824 40.1511 30.9592 39.3721L31.1595 40.5072Z" fill="#190906"/>
<path d="M24.5938 17.9609L25.3505 18.3393L27.2868 19.5634C26.7304 18.6286 25.7066 18.0945 24.5938 17.9609Z" fill="#190906"/>
</svg>
